SplineFontDB: 3.2
FontName: RallyDisplay-ExtraBold
FullName: Rally Display ExtraBold
FamilyName: Rally Display
Weight: Extra-Bold
Copyright: Copyright (c) 2023-2024, Zamero Type Foundry
UComments: "2023-12-31: Created with FontForge (http://fontforge.org)"
Version: 001.000
ItalicAngle: 0
UnderlinePosition: -100
UnderlineWidth: 50
Ascent: 800
Descent: 200
InvalidEm: 0
LayerCount: 2
Layer: 0 0 "Back" 1
Layer: 1 0 "Fore" 0
XUID: [1021 474 1118879153 10182]
StyleMap: 0x0000
FSType: 0
OS2Version: 0
OS2_WeightWidthSlopeOnly: 0
OS2_UseTypoMetrics: 1
CreationTime: 1704051534
ModificationTime: 1707374755
PfmFamily: 81
TTFWeight: 800
TTFWidth: 5
LineGap: 90
VLineGap: 90
OS2TypoAscent: 0
OS2TypoAOffset: 1
OS2TypoDescent: 0
OS2TypoDOffset: 1
OS2TypoLinegap: 90
OS2WinAscent: 0
OS2WinAOffset: 1
OS2WinDescent: 0
OS2WinDOffset: 1
HheadAscent: 0
HheadAOffset: 1
HheadDescent: 0
HheadDOffset: 1
OS2Vendor: 'PfEd'
Lookup: 1 0 0 "'ss05' Style Set 5 lookup 13" { "'ss05' Style Set 5 lookup 13-1" ("ss05") } ['ss05' ('DFLT' <'dflt' > 'grek' <'dflt' > 'latn' <'AZE ' 'CAT ' 'CRT ' 'KAZ ' 'MOL ' 'NLD ' 'ROM ' 'TAT ' 'TRK ' 'dflt' > ) ]
Lookup: 1 0 0 "'ss06' Style Set 6 lookup 14" { "'ss06' Style Set 6 lookup 14-1" ("ss06") } ['ss06' ('DFLT' <'dflt' > 'grek' <'dflt' > 'latn' <'AZE ' 'CAT ' 'CRT ' 'KAZ ' 'MOL ' 'NLD ' 'ROM ' 'TAT ' 'TRK ' 'dflt' > ) ]
Lookup: 1 0 0 "'ss07' Style Set 7 lookup 15" { "'ss07' Style Set 7 lookup 15-1" ("ss07") } ['ss07' ('DFLT' <'dflt' > 'grek' <'dflt' > 'latn' <'AZE ' 'CAT ' 'CRT ' 'KAZ ' 'MOL ' 'NLD ' 'ROM ' 'TAT ' 'TRK ' 'dflt' > ) ]
Lookup: 1 0 0 "'ss08' Style Set 8 lookup 16" { "'ss08' Style Set 8 lookup 16-1" ("ss08") } ['ss08' ('DFLT' <'dflt' > 'grek' <'dflt' > 'latn' <'AZE ' 'CAT ' 'CRT ' 'KAZ ' 'MOL ' 'NLD ' 'ROM ' 'TAT ' 'TRK ' 'dflt' > ) ]
Lookup: 1 0 0 "'ss09' Style Set 9 lookup 17" { "'ss09' Style Set 9 lookup 17-1" ("ss09") } ['ss09' ('DFLT' <'dflt' > 'grek' <'dflt' > 'latn' <'AZE ' 'CAT ' 'CRT ' 'KAZ ' 'MOL ' 'NLD ' 'ROM ' 'TAT ' 'TRK ' 'dflt' > ) ]

StartChar: dotlessi
Encoding: 305 305 1
Width: 330
Flags: W
HStem: 0 21G<103.83 300.159> 346.084 150.927<13.6201 108.151>
VStem: 103.83 196.329<0 346.084>
AnchorPoint: "Anchor-3" 235 0 basechar 0
AnchorPoint: "Anchor-2" 200 0 basechar 0
AnchorPoint: "Anchor-0" 179 496.019 basechar 0
LayerCount: 2
Back
SplineSet
294.729492188 496.93359375 m 5
 300.159179688 0 l 5
 103.830078125 0 l 5
 110 496.93359375 l 5
 294.729492188 496.93359375 l 5
EndSplineSet
Fore
SplineSet
294.729492188 497.010742188 m 1
 300.159179688 0 l 1
 103.830078125 0 l 1
 108.151367188 346.083984375 l 1
 10 344.080078125 l 1
 13.6201171875 497.010742188 l 1
 294.729492188 497.010742188 l 1
EndSplineSet
Validated: 1
EndChar

StartChar: period
Encoding: 46 46 2
Width: 280
Flags: W
HStem: -10 220<69.35 210.65>
VStem: 30 220<29.35 170.65>
LayerCount: 2
Fore
SplineSet
30 100 m 4
 30 167.22265625 72.77734375 210 140 210 c 4
 207.22265625 210 250 167.22265625 250 100 c 4
 250 32.77734375 207.22265625 -10 140 -10 c 4
 72.77734375 -10 30 32.77734375 30 100 c 4
EndSplineSet
Validated: 1
EndChar

StartChar: o
Encoding: 111 111 3
Width: 555
Flags: W
HStem: -10.0664 164.925<220.912 333.544> 342.009 164.925<220.912 333.544>
VStem: 20 174.375<184.303 314.108> 360.625 174.375<184.303 314.108>
AnchorPoint: "Anchor-3" 315 0 basechar 0
AnchorPoint: "Anchor-2" 278 0 basechar 0
AnchorPoint: "Anchor-0" 277 496.019 basechar 0
LayerCount: 2
Fore
SplineSet
194.375 249.858398438 m 4
 194.375 191.802734375 226.516601562 154.858398438 277.025390625 154.858398438 c 4
 328.114257812 154.858398438 360.625 191.802734375 360.625 249.858398438 c 4
 360.625 306.172851562 328.114257812 342.008789062 277.025390625 342.008789062 c 4
 226.516601562 342.008789062 194.375 306.172851562 194.375 249.858398438 c 4
20 249.93359375 m 4
 20 406.989257812 119.944335938 506.93359375 277 506.93359375 c 4
 434.666992188 506.93359375 535 406.989257812 535 249.93359375 c 4
 535 91.0439453125 434.666992188 -10.06640625 277 -10.06640625 c 4
 119.944335938 -10.06640625 20 91.0439453125 20 249.93359375 c 4
EndSplineSet
Validated: 1
EndChar

StartChar: slash
Encoding: 47 47 4
Width: 507
Flags: W
LayerCount: 2
Fore
SplineSet
1 -143.994140625 m 5
 317 795.001953125 l 5
 506 743.001953125 l 5
 190 -195.994140625 l 5
 1 -143.994140625 l 5
EndSplineSet
Validated: 1
Substitution2: "'frac' Diagonal Fractions in Latin lookup 25 subtable" fraction
EndChar

StartChar: d
Encoding: 100 100 5
Width: 682
Flags: W
HStem: -10.0664 160<232.696 341.639> 0 150.927<576.849 668.38> 346.934 160<233.48 347.312> 735.002 20G<386.875 574.259>
VStem: 20 182<181.816 316.761> 377 199.849<187.655 308.045> 382.271 92.7295<126.289 420.212> 387 187.17<283.934 755.002>
AnchorPoint: "Anchor-2" 328 0 basechar 0
AnchorPoint: "Anchor-0" 483 755.01 basechar 0
LayerCount: 2
Back
SplineSet
387.270507812 755.001953125 m 5
 381.840820312 0 l 5
 578.169921875 0 l 5
 573.848632812 604.075195312 l 5
 672 602.071289062 l 5
 668.379882812 755.001953125 l 5
 387.270507812 755.001953125 l 5
EndSplineSet
Fore
SplineSet
377 246.93359375 m 0xbc
 377 308.044921875 343.166992188 346.93359375 290 346.93359375 c 0
 236.221679688 346.93359375 202 308.044921875 202 246.93359375 c 0
 202 187.655273438 236.221679688 149.93359375 290 149.93359375 c 0
 343.166992188 149.93359375 377 187.655273438 377 246.93359375 c 0xbc
475 283.93359375 m 0xba
 475 126.2890625 396.30078125 -10.06640625 248 -10.06640625 c 0
 108.666015625 -10.06640625 20 89.8779296875 20 246.93359375 c 0
 20 405.823242188 108.666015625 506.93359375 248 506.93359375 c 0
 386.72265625 506.93359375 475 420.211914062 475 283.93359375 c 0xba
382.270507812 0 m 1x7a
 387 755.001953125 l 1
 574.169921875 755.001953125 l 1x79
 576.848632812 150.926757812 l 1x7c
 672 152.930664062 l 1
 668.379882812 0 l 1
 382.270507812 0 l 1x7a
EndSplineSet
Validated: 1048581
EndChar

StartChar: p
Encoding: 112 112 6
Width: 682
Flags: W
HStem: -10.0664 160<334.688 448.52> 346.084 150.927<13.6201 108.151> 346.934 160<340.361 449.304>
VStem: 207 87.7295<76.6553 370.578> 480 182<180.106 315.052>
AnchorPoint: "Anchor-2" 201 -173.994 basechar 0
AnchorPoint: "Anchor-0" 359 496.019 basechar 0
LayerCount: 2
Fore
SplineSet
305 249.93359375 m 0xb8
 305 188.822265625 338.833007812 149.93359375 392 149.93359375 c 0
 445.778320312 149.93359375 480 188.822265625 480 249.93359375 c 0
 480 309.211914062 445.778320312 346.93359375 392 346.93359375 c 0
 338.833007812 346.93359375 305 309.211914062 305 249.93359375 c 0xb8
207 212.93359375 m 0
 207 370.578125 285.69921875 506.93359375 434 506.93359375 c 0
 573.333984375 506.93359375 662 406.989257812 662 249.93359375 c 0
 662 91.0439453125 573.333984375 -10.06640625 434 -10.06640625 c 0
 295.27734375 -10.06640625 207 76.6552734375 207 212.93359375 c 0
294.729492188 497.010742188 m 1xd8
 300.159179688 -174 l 1
 103.830078125 -174 l 1
 108.151367188 346.083984375 l 1
 10 344.080078125 l 1
 13.6201171875 497.010742188 l 1
 294.729492188 497.010742188 l 1xd8
EndSplineSet
Validated: 1048581
EndChar

StartChar: t
Encoding: 116 116 7
Width: 443
Flags: W
HStem: 346 151<12 225.667> 480 20G<190 422.518>
VStem: 103.83 179.299<195.878 493.825>
AnchorPoint: "Anchor-2" 248 0 basechar 0
AnchorPoint: "Anchor-0" 203 648.019 basechar 0
LayerCount: 2
Fore
SplineSet
12 497 m 5xa0
 190 493 l 5
 423 500 l 5x60
 419 334 l 5
 187 351 l 5
 7 346 l 5
 12 497 l 5xa0
283.12890625 282 m 4
 283.12890625 201 299.870117188 170.66015625 397.159179688 156.930664062 c 5
 363.5390625 -16 l 5
 150.62109375 33.078125 103.830078125 72 103.830078125 262 c 4
 103.830078125 363 118.151367188 652.046875 118.151367188 652.046875 c 5
 288.729492188 645 l 5
 288.729492188 645 283.12890625 404 283.12890625 282 c 4
118.151367188 652.046875 m 1025
EndSplineSet
Validated: 1048581
EndChar

StartChar: l
Encoding: 108 108 8
Width: 407
Flags: W
HStem: 0 151.397<299.129 393.539> 604.075 150.927<13.6201 108.151>
VStem: 103.83 195.299<151.397 604.075>
AnchorPoint: "Anchor-2" 230 0 basechar 0
AnchorPoint: "Anchor-0" 174 755.01 basechar 0
LayerCount: 2
Back
SplineSet
105.334960938 140.244140625 m 5
 109.862304688 751.69921875 l 5
 349.01953125 797.84375 l 5
 404.7265625 645.374023438 l 5
 295.80859375 623.6875 l 5
 300.63671875 14.7734375 l 5
 48.3994140625 -44.3125 l 5
 -7.3076171875 108.157226562 l 5
 105.334960938 140.244140625 l 5
EndSplineSet
Fore
SplineSet
299.12890625 151.397460938 m 1
 397.159179688 152.930664062 l 1
 393.5390625 0 l 1
 103.830078125 0 l 1
 108.151367188 604.075195312 l 1
 10 602.071289062 l 1
 13.6201171875 755.001953125 l 1
 294.729492188 755.001953125 l 1
 299.12890625 151.397460938 l 1
EndSplineSet
Validated: 1048577
EndChar

StartChar: e
Encoding: 101 101 9
Width: 531
Flags: W
HStem: -23.9004 145.801<292.839 421.819> 204 102<160 346> 366.934 140<226.346 326.665>
VStem: 20 492.619<192.02 375>
AnchorPoint: "Anchor-3" 355 0 basechar 0
AnchorPoint: "Anchor-2" 288 0 basechar 0
AnchorPoint: "Anchor-0" 274 496.019 basechar 0
LayerCount: 2
Fore
SplineSet
199 251.93359375 m 4
 199 151 276.819335938 136.854492188 443.2890625 121.900390625 c 5
 421.819335938 -23.900390625 l 5
 193.979492188 -22.2919921875 20 49 20 259 c 4
 20 399.989257812 107.833007812 506.93359375 271 506.93359375 c 4
 470.92578125 506.93359375 512.619140625 375 512.619140625 257.659179688 c 4
 512.619140625 219.858398438 507 192 507 192 c 5
 160 204 l 5
 145 306 l 5
 346 302 l 5
 346 302 345 366.93359375 278 366.93359375 c 4
 215.610351562 366.93359375 199 311.211914062 199 251.93359375 c 4
EndSplineSet
Validated: 5
Substitution2: "'ss04' Style Set 4 lookup 12-1" e.ss04
EndChar

StartChar: s
Encoding: 115 115 10
Width: 388
Flags: W
HStem: 495.9 20G<297.303 300.869>
AnchorPoint: "Anchor-2" 186 0 basechar 0
AnchorPoint: "Anchor-0" 189 496.019 basechar 0
LayerCount: 2
Fore
SplineSet
297.302734375 515.900390625 m 1
 321.232421875 381.700195312 l 1
 321.232421875 381.700195312 230.431640625 377 230.431640625 344 c 0
 230.431640625 331.900390625 237.382388187 323.3204705 277.732421875 303.299804688 c 0
 342.576171875 271.125976562 368.2890625 233.5 368.2890625 172 c 0
 368.2890625 -19.900390625 63.0390625 -23.900390625 63.0390625 -23.900390625 c 1
 41.5693359375 111.900390625 l 1
 41.5693359375 111.900390625 162.4375 117.099609375 162.4375 164 c 0
 162.4375 183.099609375 151.040579252 193.356230531 122.036132812 208.700195312 c 0
 47.7504258968 247.998903291 20 278.099609375 20 335 c 0
 20 511.299804688 297.302734375 515.900390625 297.302734375 515.900390625 c 1
EndSplineSet
Validated: 1048577
EndChar

StartChar: b
Encoding: 98 98 11
Width: 682
Flags: W
HStem: -10.0664 160<340.361 449.304> 0 21G<103.83 300.159> 346.934 160<334.688 448.52> 604.075 150.927<13.6201 108.151>
VStem: 108.151 186.578<283.934 604.075> 207 93.1592<126.289 420.212> 480 182<181.816 316.761>
AnchorPoint: "Anchor-2" 358 0 basechar 0
AnchorPoint: "Anchor-0" 174 755.01 basechar 0
LayerCount: 2
Fore
SplineSet
305 246.93359375 m 0xb2
 305 187.655273438 338.833007812 149.93359375 392 149.93359375 c 0
 445.778320312 149.93359375 480 187.655273438 480 246.93359375 c 0
 480 308.044921875 445.778320312 346.93359375 392 346.93359375 c 0
 338.833007812 346.93359375 305 308.044921875 305 246.93359375 c 0xb2
207 283.93359375 m 0xb6
 207 420.211914062 295.27734375 506.93359375 434 506.93359375 c 0
 573.333984375 506.93359375 662 405.823242188 662 246.93359375 c 0
 662 89.8779296875 573.333984375 -10.06640625 434 -10.06640625 c 0
 285.69921875 -10.06640625 207 126.2890625 207 283.93359375 c 0xb6
294.729492188 755.001953125 m 1x7a
 300.159179688 0 l 1x76
 103.830078125 0 l 1
 108.151367188 604.075195312 l 1
 10 602.071289062 l 1
 13.6201171875 755.001953125 l 1
 294.729492188 755.001953125 l 1x7a
EndSplineSet
Validated: 1048581
EndChar

StartChar: grave
Encoding: 96 96 12
Width: 230
Flags: W
HStem: 516.72 223.784
VStem: 1 228.518
LayerCount: 2
Fore
SplineSet
92.6767578125 740.50390625 m 25
 229.517578125 582.465820312 l 25
 170.080078125 516.719726562 l 25
 1 636.18359375 l 25
 92.6767578125 740.50390625 l 25
EndSplineSet
Validated: 1
EndChar

StartChar: q
Encoding: 113 113 13
Width: 682
Flags: W
HStem: -173.994 150.927<576.849 668.38> -10.0664 160<232.696 341.639> 346.934 160<233.48 347.312> 476.934 20G<386.859 574.273>
VStem: 20 182<181.816 316.761> 387 187.17<283.934 496.934> 387 88<126.289 420.212>
AnchorPoint: "Anchor-2" 506 -173.994 basechar 0
AnchorPoint: "Anchor-0" 323 496.019 basechar 0
LayerCount: 2
Fore
SplineSet
377 246.93359375 m 0xe8
 377 308.044921875 343.166992188 346.93359375 290 346.93359375 c 0
 236.221679688 346.93359375 202 308.044921875 202 246.93359375 c 0
 202 187.655273438 236.221679688 149.93359375 290 149.93359375 c 0
 343.166992188 149.93359375 377 187.655273438 377 246.93359375 c 0xe8
475 283.93359375 m 0xea
 475 126.2890625 396.30078125 -10.06640625 248 -10.06640625 c 0
 108.666015625 -10.06640625 20 89.8779296875 20 246.93359375 c 0
 20 405.823242188 108.666015625 506.93359375 248 506.93359375 c 0
 386.72265625 506.93359375 475 420.211914062 475 283.93359375 c 0xea
382.270507812 -173.994140625 m 1
 387 496.93359375 l 1
 574.169921875 496.93359375 l 1xdc
 576.848632812 -23.0673828125 l 1
 672 -21.0634765625 l 1
 668.379882812 -173.994140625 l 1
 382.270507812 -173.994140625 l 1
EndSplineSet
Validated: 1048581
EndChar

StartChar: a
Encoding: 97 97 14
Width: 682
Flags: W
HStem: -10.0664 160<232.696 341.639> 0 150.927<576.849 668.38> 346.934 160<233.48 347.312> 477.002 20G<386.81 574.325>
VStem: 20 182<181.816 316.761> 377 199.849<187.655 308.045> 387 187.17<283.934 497.002> 387 88<126.289 420.212>
AnchorPoint: "Anchor-3" 475 0 basechar 0
AnchorPoint: "Anchor-2" 328 0 basechar 0
AnchorPoint: "Anchor-0" 323 496.019 basechar 0
LayerCount: 2
Back
SplineSet
327 169.93359375 m 4x53
 327 200.600585938 300.944335938 220.93359375 260 220.93359375 c 4
 218.444335938 220.93359375 192 200.600585938 192 169.93359375 c 4
 192 134.989257812 218.444335938 113.93359375 260 113.93359375 c 4
 300.944335938 113.93359375 327 134.989257812 327 169.93359375 c 4x53
402 183.93359375 m 4xb2
 402 79.9096513605 348.741636839 -10.06640625 208 -10.06640625 c 4
 93.1105742873 -10.06640625 20 58.7668523529 20 166.93359375 c 4
 20 270.822979267 93.1105742873 336.93359375 208 336.93359375 c 4
 326.555926487 336.93359375 402 277.433965982 402 183.93359375 c 4xb2
332.270507812 0 m 5
 332.270507812 0 337 181.337820432 337 311 c 4
 337 376.921568627 191 393 191 393 c 5
 233 521 l 5
 233 521 504.169921875 506.93359375 504.169921875 337.001953125 c 4
 504.169921875 266.75299463 506.848632812 150.926757812 506.848632812 150.926757812 c 5
 602 152.930664062 l 5
 598.379882812 0 l 5
 332.270507812 0 l 5
EndSplineSet
Fore
SplineSet
377 246.93359375 m 0xac
 377 308.044921875 343.166992188 346.93359375 290 346.93359375 c 0
 236.221679688 346.93359375 202 308.044921875 202 246.93359375 c 0
 202 187.655273438 236.221679688 149.93359375 290 149.93359375 c 0
 343.166992188 149.93359375 377 187.655273438 377 246.93359375 c 0xac
475 283.93359375 m 0xa9
 475 126.2890625 396.30078125 -10.06640625 248 -10.06640625 c 0
 108.666015625 -10.06640625 20 89.8779296875 20 246.93359375 c 0
 20 405.823242188 108.666015625 506.93359375 248 506.93359375 c 0
 386.72265625 506.93359375 475 420.211914062 475 283.93359375 c 0xa9
382.270507812 0 m 1x5c
 387 497.001953125 l 1
 574.169921875 497.001953125 l 1x5a
 576.848632812 150.926757812 l 1
 672 152.930664062 l 1
 668.379882812 0 l 1
 382.270507812 0 l 1x5c
EndSplineSet
Validated: 5
Substitution2: "'ss03' Style Set 3 lookup 11-1" a.ss03
EndChar

StartChar: h
Encoding: 104 104 15
Width: 663
Flags: W
HStem: 0 21G<103.83 300.159> 347.934 159<325.167 500.535> 604.075 150.927<13.6201 108.151>
VStem: 103.83 196.329<0 604.075> 446 192<-1.00814 329.64>
AnchorPoint: "Anchor-2" 360 0 basechar 0
AnchorPoint: "Anchor-0" 174 755.01 basechar 0
LayerCount: 2
Fore
SplineSet
294.729492188 755.001953125 m 1
 300.159179688 0 l 1
 103.830078125 0 l 1
 108.151367188 604.075195312 l 1
 10 602.071289062 l 1
 13.6201171875 755.001953125 l 1
 294.729492188 755.001953125 l 1
188 253.93359375 m 1
 210.936523438 411.989257812 283.27734375 506.93359375 433 506.93359375 c 0
 568.0703125 506.93359375 638 432.569335938 638 288.93359375 c 0
 638 139.458984375 620.159179688 -15 620.159179688 -15 c 1
 425.830078125 0 l 1
 425.830078125 0 446 143.766601562 446 261.93359375 c 0
 446 316.521484375 428.012695312 347.93359375 377 347.93359375 c 0
 311.48828125 347.93359375 284.346679688 311.094726562 266 216.93359375 c 1
 188 253.93359375 l 1
EndSplineSet
Validated: 1048581
EndChar

StartChar: n
Encoding: 110 110 16
Width: 663
Flags: W
HStem: 0 21G<103.83 300.159> 346.075 150.927<13.6201 108.151> 347.934 159<325.167 498.831>
VStem: 103.83 196.329<0 253.934> 446 192<-1.00814 329.64>
AnchorPoint: "Anchor-2" 360 0 basechar 0
AnchorPoint: "Anchor-0" 343 496.019 basechar 0
AnchorPoint: "Anchor-0" 343 496.019 basechar 0
LayerCount: 2
Fore
SplineSet
188 253.93359375 m 1xb8
 210.936523438 411.989257812 283.27734375 506.93359375 433 506.93359375 c 0
 568.0703125 506.93359375 638 432.569335938 638 288.93359375 c 0
 638 139.458984375 620.159179688 -15 620.159179688 -15 c 1
 425.830078125 0 l 1
 425.830078125 0 446 143.766601562 446 261.93359375 c 0
 446 316.521484375 428.012695312 347.93359375 377 347.93359375 c 0
 311.48828125 347.93359375 284.346679688 311.094726562 266 216.93359375 c 1
 188 253.93359375 l 1xb8
294.729492188 497.001953125 m 1xd8
 300.159179688 0 l 1
 103.830078125 0 l 1
 108.151367188 346.075195312 l 1
 10 344.071289062 l 1
 13.6201171875 497.001953125 l 1
 294.729492188 497.001953125 l 1xd8
EndSplineSet
Validated: 1048581
EndChar

StartChar: I
Encoding: 73 73 17
Width: 468
Flags: W
HStem: 0 164<13.958 123.084 337.21 455.287> 558.08 172.931<18.748 126.279 334.135 445.857>
VStem: 123.084 214.126<164 559>
AnchorPoint: "Anchor-3" 305 0 basechar 0
AnchorPoint: "Anchor-2" 228 0 basechar 0
AnchorPoint: "Anchor-2" 228 0 basechar 0
AnchorPoint: "Anchor-0" 233 731.008 basechar 0
LayerCount: 2
Back
SplineSet
339.857421875 731.010742188 m 5
 345.287109375 0 l 5
 128.958007812 0 l 5
 133.279296875 560.083984375 l 5
 15.1279296875 558.080078125 l 5
 18.748046875 731.010742188 l 5
 339.857421875 731.010742188 l 5
EndSplineSet
Fore
SplineSet
445.857421875 731.010742188 m 1
 452.127929688 556 l 1
 334.134765625 559 l 1
 337.209960938 164 l 1
 458.26953125 168 l 1
 455.287109375 0 l 1
 13.9580078125 0 l 1
 10 166 l 1
 123.083984375 164 l 1
 126.279296875 560.083984375 l 1
 15.1279296875 558.080078125 l 1
 18.748046875 731.010742188 l 1
 445.857421875 731.010742188 l 1
EndSplineSet
Validated: 1
EndChar

StartChar: c
Encoding: 99 99 18
Width: 461
Flags: W
HStem: -10.0664 160<232.609 400.732> 346.934 160<234.533 376.802>
VStem: 20 179<184.275 312.459>
AnchorPoint: "Anchor-0" 287 496.019 basechar 0
AnchorPoint: "Anchor-2" 278 0 basechar 0
LayerCount: 2
Fore
SplineSet
20 249.93359375 m 0
 20 406.989257812 123.833220604 506.93359375 287 506.93359375 c 0
 405.535915516 506.93359375 455.916992188 450.782226562 455.916992188 450.782226562 c 1
 399.647460938 308.369140625 l 1
 399.647460938 308.369140625 362.994090218 346.93359375 306 346.93359375 c 0
 240.610710758 346.93359375 199 309.211914062 199 249.93359375 c 0
 199 188.822265625 232.833007812 149.93359375 299 149.93359375 c 0
 385.39088378 149.93359375 429.1484375 188.364257812 429.1484375 188.364257812 c 1
 471.146484375 32.31640625 l 1
 471.146484375 32.31640625 423.822161327 -10.06640625 277 -10.06640625 c 0
 119.944335938 -10.06640625 20 91.0439453125 20 249.93359375 c 0
EndSplineSet
Validated: 1048577
EndChar

StartChar: equal
Encoding: 61 61 19
Width: 450
Flags: W
HStem: 167 136<223 393> 178 139<49 223> 349 148<174.455 401> 360 133<49 271.545>
LayerCount: 2
Fore
SplineSet
49 317 m 5x40
 397 303 l 5
 393 167 l 1x80
 45 178 l 1
 49 317 l 5x40
49 493 m 1x10
 405 497 l 1
 401 349 l 1x20
 45 360 l 1
 49 493 l 1x10
EndSplineSet
Validated: 1
EndChar

StartChar: k
Encoding: 107 107 20
Width: 630
Flags: W
HStem: 0 21G<103.83 300.159> 494 20G<450.68 491> 604.075 150.927<13.6201 108.151>
VStem: 103.83 196.329<0 604.075>
AnchorPoint: "Anchor-2" 371 0 basechar 0
AnchorPoint: "Anchor-0" 174 755.01 basechar 0
LayerCount: 2
Fore
SplineSet
471 514 m 29
 595 390 l 29
 449 264 l 29
 620 118 l 29
 486 -17 l 29
 217 264 l 29
 471 514 l 29
294.729492188 755.001953125 m 5
 300.159179688 0 l 5
 103.830078125 0 l 5
 108.151367188 604.075195312 l 5
 10 602.071289062 l 5
 13.6201171875 755.001953125 l 5
 294.729492188 755.001953125 l 5
EndSplineSet
Validated: 1048581
Substitution2: "'ss06' Style Set 6 lookup 14-1" k.ss06
EndChar

StartChar: m
Encoding: 109 109 21
Width: 958
Flags: W
HStem: 0 21G<103.83 300.159> 346.075 150.927<13.6201 108.151> 347.934 159<330.182 485.492 645.182 800.492>
VStem: 103.83 196.329<0 253.934> 426 192<0.311436 381.609> 741 192<-0.580393 338.226>
AnchorPoint: "Anchor-2" 510 0 basechar 0
AnchorPoint: "Anchor-0" 549 496.019 basechar 0
LayerCount: 2
Fore
SplineSet
503 253.93359375 m 1xbc
 524.064453125 411.989257812 610.5 506.93359375 748 506.93359375 c 0
 869.892578125 506.93359375 933 439.391601562 933 308.93359375 c 0
 933 149.623046875 915.159179688 -15 915.159179688 -15 c 1
 720.830078125 0 l 1
 720.830078125 0 741 154.744140625 741 281.93359375 c 0
 741 323.826171875 725.619140625 347.93359375 682 347.93359375 c 0
 634.194335938 347.93359375 594.387695312 311.094726562 581 216.93359375 c 1
 503 253.93359375 l 1xbc
188 253.93359375 m 1
 209.064453125 411.989257812 295.5 506.93359375 433 506.93359375 c 0
 554.892578125 506.93359375 618 439.391601562 618 308.93359375 c 0
 618 154.541015625 605.159179688 -5 605.159179688 -5 c 1
 415.830078125 0 l 1
 415.830078125 0 426 154.744140625 426 281.93359375 c 0
 426 323.826171875 410.619140625 347.93359375 367 347.93359375 c 0
 319.194335938 347.93359375 279.387695312 311.094726562 266 216.93359375 c 1
 188 253.93359375 l 1
294.729492188 497.001953125 m 1xdc
 300.159179688 0 l 1
 103.830078125 0 l 1
 108.151367188 346.075195312 l 1
 10 344.071289062 l 1
 13.6201171875 497.001953125 l 1
 294.729492188 497.001953125 l 1xdc
EndSplineSet
Validated: 1048581
EndChar

StartChar: hyphen
Encoding: 45 45 23
Width: 380
Flags: W
HStem: 175 172<139.455 366> 186 157<14 236.545>
LayerCount: 2
Fore
SplineSet
14 343 m 5x40
 370 347 l 5
 366 175 l 5x80
 10 186 l 5
 14 343 l 5x40
EndSplineSet
Validated: 1
EndChar

StartChar: three
Encoding: 51 51 24
Width: 581
Flags: W
HStem: -10.0664 174<84.2771 316.557> 532.008 199<30 273.848>
VStem: 340.917 219<188.359 280.34>
LayerCount: 2
Fore
SplineSet
396 421 m 1
 396 421 559.916992188 401.526718959 559.916992188 216.9921875 c 0
 559.916992188 68.2338010229 445.97265625 -10.06640625 266.916992188 -10.06640625 c 0
 85.2246769868 -10.06640625 8 24.0849609375 8 24.0849609375 c 1
 50 197 l 1
 50 197 126.85984585 163.93359375 233.916992188 163.93359375 c 4
 305.791015625 163.93359375 340.916992188 191.567382812 340.916992188 234.9921875 c 4
 340.916992188 273.4921875 313.850585938 297.9921875 260.916992188 297.9921875 c 4
 188.724510347 297.9921875 145.2578125 288.43359375 145.2578125 288.43359375 c 1
 129 402 l 1
 273.84765625 538.0078125 l 1
 20 532.0078125 l 1
 30 731.0078125 l 1
 529.016601562 731.0078125 l 1
 539.016601562 573.0078125 l 1
 396 421 l 1
EndSplineSet
Validated: 1
Substitution2: "'ss01' Style Set 1 lookup 9-1" three.ss01
Substitution2: "'frac' Diagonal Fractions in Latin lookup 26 subtable" three.numr
Substitution2: "'dnom' Denominators lookup 0 subtable" three.dnom
Substitution2: "'numr' Numerators lookup 0 subtable" three.numr
Substitution2: "'sinf' Scientific Inferiors lookup 0 subtable" three.inferior
Substitution2: "'sups' Superscript lookup 0 subtable" three.superior
EndChar

StartChar: eight
Encoding: 56 56 25
Width: 608
Flags: W
HStem: -10.0078 168.739<236.734 360.619> 573.656 165.336<251.166 359.481>
VStem: 20 198.311<178.953 281.671> 46.6787 193.121<483.355 560.178> 373.223 184.935<466.944 559.847> 374.693 214.235<175.924 256.55>
LayerCount: 2
Fore
SplineSet
299.500976562 158.731445312 m 4xe4
 346.12895474 158.731445312 374.693359375 181.279655161 374.693359375 218.086914062 c 4xe4
 374.693359375 251.793172301 348.202336657 270.59172723 264.751953125 296.103515625 c 4
 119.516282485 340.503494736 46.6787109375 420.630140121 46.6787109375 536 c 4
 46.6787109375 660.085723141 148.472772262 738.9921875 308.55078125 738.9921875 c 4
 461.512746649 738.9921875 558.157226562 666.827860182 558.157226562 552.611328125 c 4
 558.157226562 413.3203125 414.053710938 362 414.053710938 362 c 5
 295.579101562 416.384765625 l 5
 295.579101562 416.384765625 373.22265625 460.543945312 373.22265625 519.682617188 c 4
 373.22265625 553.246718278 348.191631657 573.65625 307.02734375 573.65625 c 4
 265.56614765 573.65625 239.799804688 552.901620003 239.799804688 519.504882812 c 4xd8
 239.799804688 489.916379655 260.995231636 475.260420239 330.245117188 456.96484375 c 4
 517.258092575 407.554491755 588.928710938 340.89826254 588.928710938 216.379882812 c 4
 588.928710938 75.260500131 482.219824711 -10.0078125 305.616210938 -10.0078125 c 4
 134.082920797 -10.0078125 20 72.9892081907 20 197.782226562 c 4
 20 335.038085938 158.459960938 379.984375 158.459960938 379.984375 c 5
 282.620117188 318.284179688 l 5
 282.620117188 318.284179688 218.310546875 288.15234375 218.310546875 223.194335938 c 4
 218.310546875 184.158511732 250.335707836 158.731445312 299.500976562 158.731445312 c 4xe4
EndSplineSet
Validated: 5
Substitution2: "'frac' Diagonal Fractions in Latin lookup 26 subtable" eight.numr
Substitution2: "'dnom' Denominators lookup 0 subtable" eight.dnom
Substitution2: "'numr' Numerators lookup 0 subtable" eight.numr
Substitution2: "'sinf' Scientific Inferiors lookup 0 subtable" eight.inferior
Substitution2: "'sups' Superscript lookup 0 subtable" eight.superior
EndChar

StartChar: g
Encoding: 103 103 26
Width: 611
Flags: W
HStem: -203.994 142.931<172.244 266.549> 29.9336 150<228.76 342.47> 356.934 150<228.76 348.843> 476.934 20G<388.101 571.271>
VStem: 20 182<207.736 327.541> 391.422 184.578<9.81415 496.755>
AnchorPoint: "Anchor-2" 320 -190 basechar 0
AnchorPoint: "Anchor-0" 323 496.019 basechar 0
LayerCount: 2
Back
SplineSet
382.270507812 -173.994140625 m 5
 387 496.93359375 l 5
 574.169921875 496.93359375 l 5xf8
 576.848632812 -23.0673828125 l 5
 672 -21.0634765625 l 5
 668.379882812 -173.994140625 l 5
 382.270507812 -173.994140625 l 5
EndSplineSet
Fore
SplineSet
377 266.93359375 m 0xec
 377 321.933789063 343.166992188 356.93359375 290 356.93359375 c 0
 236.221679688 356.93359375 202 321.933789063 202 266.93359375 c 0
 202 213.76644048 236.221679688 179.93359375 290 179.93359375 c 0
 343.166992188 179.93359375 377 213.76644048 377 266.93359375 c 0xec
475 303.93359375 m 0
 475 157.013180272 396.30078125 29.93359375 248 29.93359375 c 0
 108.666015625 29.93359375 20 122.100160354 20 266.93359375 c 0
 20 413.600961538 108.666015625 506.93359375 248 506.93359375 c 0
 386.72265625 506.93359375 475 427.989643182 475 303.93359375 c 0
576 73 m 4
 576 -68 532 -183.994140625 173.890625 -203.994140625 c 5
 140.270507812 -61.0634765625 l 5
 339 -36 391.421875 -13 391.421875 86.9326171875 c 4
 391.421875 271 388.100585938 496.93359375 388.100585938 496.93359375 c 5
 571.270507812 496.93359375 l 5xdc
 571.270507812 496.93359375 576 232.376953125 576 73 c 4
EndSplineSet
Validated: 1048581
Substitution2: "'ss05' Style Set 5 lookup 13-1" g.ss05
EndChar

StartChar: u
Encoding: 117 117 27
Width: 663
Flags: W
HStem: -9.93164 159<164.169 316.686> 0 150.927<557.849 649.38> 477.002 20G<42.8408 237.17 367.81 555.325>
VStem: 25 192<167.362 498.01> 368 187.17<213.068 497.002>
AnchorPoint: "Anchor-3" 465 0 basechar 0
AnchorPoint: "Anchor-2" 325 0 basechar 0
AnchorPoint: "Anchor-0" 298 496.019 basechar 0
LayerCount: 2
Fore
SplineSet
363.270507812 0 m 1x78
 368 497.001953125 l 1
 555.169921875 497.001953125 l 1
 557.848632812 150.926757812 l 1
 653 152.930664062 l 1
 649.379882812 0 l 1
 363.270507812 0 l 1x78
455 213.068359375 m 5
 436 122 379.72265625 -9.931640625 217 -9.931640625 c 4
 94.9296875 -9.931640625 25 64.4326171875 25 208.068359375 c 4
 25 357.54296875 42.8408203125 512.001953125 42.8408203125 512.001953125 c 5
 237.169921875 497.001953125 l 5
 237.169921875 497.001953125 217 353.235351562 217 235.068359375 c 4
 217 180.48046875 234.987304688 149.068359375 286 149.068359375 c 4xb8
 341.51171875 149.068359375 370 182 377 250.068359375 c 5
 455 213.068359375 l 5
EndSplineSet
Validated: 5
EndChar

StartChar: exclam
Encoding: 33 33 28
Width: 256
Flags: W
HStem: -10 220<57.35 198.65> 254.635 476.365<52.0198 202.984>
VStem: 18 220<29.35 170.65>
LayerCount: 2
Fore
SplineSet
14 731 m 29
 242 731 l 29
 203 245 l 21
 203 245 181 254.634765625 130 254.634765625 c 4
 79 254.634765625 52 243 52 243 c 13
 14 731 l 29
18 100 m 0
 18 167.22265625 60.77734375 210 128 210 c 0
 195.22265625 210 238 167.22265625 238 100 c 0
 238 32.77734375 195.22265625 -10 128 -10 c 0
 60.77734375 -10 18 32.77734375 18 100 c 0
EndSplineSet
Validated: 1
EndChar

StartChar: r
Encoding: 114 114 29
Width: 508
Flags: W
HStem: 0 21G<103.83 300.159> 346.075 150.927<13.6201 108.151> 496.934 20G<400.203 435.98>
VStem: 103.83 196.329<0 263.607>
AnchorPoint: "Anchor-2" 308 0 basechar 0
AnchorPoint: "Anchor-0" 269 496.019 basechar 0
LayerCount: 2
Fore
SplineSet
427 516.93359375 m 25xb0
 510.068359375 331.926757812 l 25
 263.962890625 263.607421875 l 1
 218.669921875 361.447265625 l 1
 427 516.93359375 l 25xb0
294.729492188 497.001953125 m 1xd0
 300.159179688 0 l 1
 103.830078125 0 l 1
 108.151367188 346.075195312 l 1
 10 344.071289062 l 1
 13.6201171875 497.001953125 l 1
 294.729492188 497.001953125 l 1xd0
EndSplineSet
Substitution2: "'ss07' Style Set 7 lookup 15-1" r.ss07
EndChar

StartChar: f
Encoding: 102 102 30
Width: 423
Flags: W
HStem: 0 21G<93.335 288.637> 346 151<12 222.333> 480 20G<190 402.518>
VStem: 83.8691 181.533<495.55 597.221> 93.335 195.302<0 476.068>
AnchorPoint: "Anchor-2" 208 0 basechar 0
AnchorPoint: "Anchor-0" 254 765.01 basechar 0
LayerCount: 2
Fore
SplineSet
12 497 m 1xc0
 190 493 l 1
 403 500 l 1xa0
 399 334 l 1
 187 351 l 1
 7 346 l 1
 12 497 l 1xc0
95.984375 412.096679688 m 6
 96.5302734375 497.05859375 83.869140625 518 83.869140625 584 c 0
 83.869140625 713 181.047851562 768.412109375 352.01953125 797.84375 c 1
 377.7265625 628.374023438 l 1
 296 616 265.40234375 594.819335938 265.40234375 555 c 0x90
 265.40234375 514 283.876953125 476.068359375 284.637695312 399.96484375 c 2
 288.63671875 0 l 1
 93.3349609375 0 l 1x88
 95.984375 412.096679688 l 6
EndSplineSet
EndChar

StartChar: one
Encoding: 49 49 32
Width: 371
Flags: W
HStem: 0 21G<124.958 341.287> 560.084 170.927<14.748 129.279>
VStem: 124.958 216.329<0 560.084>
LayerCount: 2
Fore
SplineSet
335.857421875 731.010742188 m 1
 341.287109375 0 l 1
 124.958007812 0 l 1
 129.279296875 560.083984375 l 5
 11.1279296875 558.080078125 l 5
 14.748046875 731.010742188 l 5
 335.857421875 731.010742188 l 1
EndSplineSet
Validated: 1
Substitution2: "'frac' Diagonal Fractions in Latin lookup 26 subtable" one.numr
Substitution2: "'dnom' Denominators lookup 0 subtable" one.dnom
Substitution2: "'numr' Numerators lookup 0 subtable" one.numr
Substitution2: "'sinf' Scientific Inferiors lookup 0 subtable" one.inferior
Substitution2: "'sups' Superscript lookup 0 subtable" one.superior
EndChar

StartChar: zero
Encoding: 48 48 33
Width: 675
Flags: W
HStem: -10.0664 195.351<281.426 392.775> 543.583 195.351<281.426 392.775>
VStem: 20 205.487<250.375 475.752> 449.513 205.487<252.023 474.053>
LayerCount: 2
Fore
SplineSet
225.487304688 361.704101562 m 0
 225.487304688 253.89172558 268.735330828 185.284179688 336.697265625 185.284179688 c 4
 405.640321066 185.284179688 449.512695312 253.89172558 449.512695312 361.704101562 c 0
 449.512695312 472.852964535 405.640321066 543.583007812 336.697265625 543.583007812 c 0
 268.735330828 543.583007812 225.487304688 472.852964535 225.487304688 361.704101562 c 0
20 361.93359375 m 0
 20 592.322641811 143.277643938 738.93359375 337 738.93359375 c 0
 531.333734557 738.93359375 655 592.322641811 655 361.93359375 c 0
 655 134.599173678 531.333734557 -10.06640625 337 -10.06640625 c 0
 143.277643938 -10.06640625 20 134.599173678 20 361.93359375 c 0
EndSplineSet
Validated: 1
Substitution2: "'frac' Diagonal Fractions in Latin lookup 26 subtable" zero.numr
Substitution2: "'dnom' Denominators lookup 0 subtable" zero.dnom
Substitution2: "'numr' Numerators lookup 0 subtable" zero.numr
Substitution2: "'sinf' Scientific Inferiors lookup 0 subtable" zero.inferior
Substitution2: "'sups' Superscript lookup 0 subtable" zero.superior
EndChar

StartChar: uni0237
Encoding: 567 567 35
Width: 330
Flags: W
HStem: 346.084 150.927<13.6201 108.151>
VStem: 103.83 196.329<20 346.084>
AnchorPoint: "Anchor-0" 179 496.019 basechar 0
AnchorPoint: "Anchor-2" 100 -165 basechar 0
LayerCount: 2
Fore
SplineSet
294.729492188 497.010742188 m 1
 300.159179688 0 l 1
 183 -204 l 1
 1 -118 l 1
 103.830078125 20 l 1
 108.151367188 346.083984375 l 1
 10 344.080078125 l 1
 13.6201171875 497.010742188 l 1
 294.729492188 497.010742188 l 1
EndSplineSet
EndChar

StartChar: y
Encoding: 121 121 36
Width: 593
Flags: W
HStem: 491 20G<10 263.556 409.537 519.755>
AnchorPoint: "Anchor-2" 223 -186.994 basechar 0
AnchorPoint: "Anchor-0" 333 496.019 basechar 0
AnchorPoint: "Anchor-0" 333 496.019 basechar 0
LayerCount: 2
Fore
SplineSet
337.905273438 194.1328125 m 1
 327 50 l 25
 207.174804688 50 l 17
 120.151367188 352 l 1
 17.0458984375 344 l 1
 10 497 l 1
 258.546875 511 l 1
 337.905273438 194.1328125 l 1
283.198242188 94.158203125 m 10
 415.904296875 511 l 1
 592.450195312 477 l 1
 434.607421875 50 l 18
 371.131171633 -121.717451886 299 -225 299 -225 c 1
 129 -143.994140625 l 1
 129 -143.994140625 260.022200492 21.3601466407 283.198242188 94.158203125 c 10
EndSplineSet
Validated: 1048581
Substitution2: "'ss08' Style Set 8 lookup 16-1" y.ss08
EndChar

StartChar: x
Encoding: 120 120 37
Width: 574
Flags: W
HStem: 494 20G<135.004 244.319 390.681 436.538>
AnchorPoint: "Anchor-2" 324 0 basechar 0
AnchorPoint: "Anchor-0" 316 496.019 basechar 0
LayerCount: 2
Fore
SplineSet
405 514 m 25
 569 410 l 25
 433 257 l 25
 584 98 l 25
 420 -17 l 25
 221 257 l 25
 405 514 l 25
133.142578125 339.638671875 m 1
 30.1806640625 314.47265625 l 1
 1.2314453125 465.8359375 l 1
 230 514 l 1
 414 257 l 1
 215 -17 l 1
 51 98 l 1
 202 257 l 1
 133.142578125 339.638671875 l 1
EndSplineSet
Validated: 1048581
EndChar

StartChar: S
Encoding: 83 83 38
Width: 487
Flags: W
HStem: 718.393 20G<375.69 379.346>
VStem: 244.121 223.215<212.673 283.456>
AnchorPoint: "Anchor-2" 207 0 basechar 0
AnchorPoint: "Anchor-2" 207 0 basechar 0
AnchorPoint: "Anchor-0" 227 731.008 basechar 0
LayerCount: 2
Fore
SplineSet
375.690429688 738.392578125 m 1
 406.541015625 569.592773438 l 1
 406.541015625 569.592773438 262.268554686 558.505859375 262.268554688 506.93359375 c 0
 262.268554688 487.119575954 275.009624783 471.186737541 350.284179688 435.650390625 c 0
 436.708007812 394.850585938 467.3359375 337.392578125 467.3359375 251.044921875 c 0
 467.3359375 -14.0094951877 74.4423828125 -19.8779296875 74.4423828125 -19.8779296875 c 1
 47.220703125 166.682617188 l 1
 47.220703125 166.682617188 244.12109375 174.623046875 244.12109375 246 c 0
 244.12109375 266.92578125 233.191950659 282.541109115 192.401367188 302.655273438 c 0
 63.044921875 366.441975557 20 414.102909978 20 504.162109375 c 0
 20 731.98828125 375.690429688 738.392578125 375.690429688 738.392578125 c 1
EndSplineSet
Validated: 1048577
EndChar

StartChar: v
Encoding: 118 118 39
Width: 593
Flags: W
HStem: 0 21G<230.526 422.064> 491 20G<10 264.279 410.27 519.755>
AnchorPoint: "Anchor-2" 328 0 basechar 0
AnchorPoint: "Anchor-0" 336 496.019 basechar 0
LayerCount: 2
Fore
SplineSet
414.607421875 0 m 5
 237.174804688 0 l 5
 120.151367188 352 l 5
 17.0458984375 344 l 5
 10 497 l 5
 258.546875 511 l 5
 337.905273438 234.1328125 l 5
 415.904296875 511 l 5
 592.450195312 477 l 5
 414.607421875 0 l 5
EndSplineSet
Validated: 1048577
EndChar

StartChar: w
Encoding: 119 119 40
Width: 862
Flags: W
HStem: 0 21G<218.264 419.199 525.673 716.11> 491 20G<10 263.957 413.796 523.755 688.656 792.872>
AnchorPoint: "Anchor-2" 470 0 basechar 0
AnchorPoint: "Anchor-0" 503 496.019 basechar 0
LayerCount: 2
Fore
SplineSet
411.607421875 0 m 1
 224.174804688 0 l 1
 120.151367188 352 l 1
 17.0458984375 344 l 1
 10 497 l 1
 258.546875 511 l 1
 332.905273438 236.1328125 l 1
 419.904296875 521 l 1
 596.450195312 487 l 1
 411.607421875 0 l 1
709.607421875 0 m 1
 533.174804688 0 l 1
 401.151367188 352 l 1
 535 453 l 1
 610.905273438 232.1328125 l 1
 694.904296875 501 l 1
 861.450195312 467 l 1
 709.607421875 0 l 1
EndSplineSet
Validated: 1048581
EndChar

StartChar: six
Encoding: 54 54 41
Width: 619
Flags: W
HStem: -10 171.858<259.395 372.333> 336.009 149.718<257.176 444.792> 566.533 182.459<387.726 499.219>
VStem: 20 213.375<190.567 415.196> 399.625 199.691<187.448 311.063>
LayerCount: 2
Fore
SplineSet
498.310546875 748.9921875 m 5
 522 566.533203125 l 5
 261.015683787 544.143993801 251.458007812 463.932617188 251.458007812 463.932617188 c 5
 251.458007812 463.932617188 284.626883182 485.7265625 374.600585938 485.7265625 c 4
 513.98073582 485.7265625 599.31640625 394.002929688 599.31640625 255.249023438 c 4
 599.31640625 105.139648438 520.52726296 -10 316.310546875 -10 c 4
 138.863937848 -10 20 82.3932717405 20 306.348632812 c 4
 20 519.13616121 134.575531105 728.463768616 498.310546875 748.9921875 c 5
233.375 249.858398438 m 4
 233.375 196.080078125 265.516601562 161.858398438 316.025390625 161.858398438 c 4
 367.114257812 161.858398438 399.625 196.080078125 399.625 249.858398438 c 4
 399.625 302.505859375 367.114257812 336.008789062 316.025390625 336.008789062 c 4
 265.516601562 336.008789062 233.375 302.505859375 233.375 249.858398438 c 4
EndSplineSet
Validated: 1
Substitution2: "'frac' Diagonal Fractions in Latin lookup 26 subtable" six.numr
Substitution2: "'dnom' Denominators lookup 0 subtable" six.dnom
Substitution2: "'numr' Numerators lookup 0 subtable" six.numr
Substitution2: "'sinf' Scientific Inferiors lookup 0 subtable" six.inferior
Substitution2: "'sups' Superscript lookup 0 subtable" six.superior
EndChar

StartChar: z
Encoding: 122 122 42
Width: 461
Flags: W
HStem: 0 164<257.169 431.017> 338 159<30 193.848>
AnchorPoint: "Anchor-2" 238 0 basechar 0
AnchorPoint: "Anchor-0" 231 496.019 basechar 0
LayerCount: 2
Fore
SplineSet
20 338 m 5
 30 497 l 5
 399.016601562 497 l 5
 431.016601562 369 l 5
 257.168945312 164 l 5
 441.016601562 170 l 5
 431.016601562 0 l 5
 41 0 l 5
 12 128 l 5
 193.84765625 344 l 5
 20 338 l 5
EndSplineSet
Validated: 1048577
EndChar

StartChar: O
Encoding: 79 79 43
Width: 765
Flags: W
HStem: -10.0664 205.351<296.681 461.379> 533.583 205.351<298.251 459.688>
VStem: 20 205.487<269.389 456.402> 539.513 205.487<271.083 454.652>
AnchorPoint: "Anchor-3" 435 0 basechar 0
AnchorPoint: "Anchor-2" 377 0 basechar 0
AnchorPoint: "Anchor-2" 377 0 basechar 0
AnchorPoint: "Anchor-0" 377 731.008 basechar 0
AnchorPoint: "Anchor-0" 377 731.008 basechar 0
LayerCount: 2
Fore
SplineSet
225.487304688 361.704101562 m 0
 225.487304688 260.002848113 284.290781356 195.284179688 376.697265625 195.284179688 c 0
 476.196006415 195.284179688 539.512695312 260.002848113 539.512695312 361.704101562 c 0
 539.512695312 466.741818099 476.196006415 533.583007812 376.697265625 533.583007812 c 0
 284.290781356 533.583007812 225.487304688 466.741818099 225.487304688 361.704101562 c 0
20 361.93359375 m 0
 20 592.322641811 158.833182606 738.93359375 377 738.93359375 c 0
 601.889353198 738.93359375 745 592.322641811 745 361.93359375 c 0
 745 134.599173678 601.889353198 -10.06640625 377 -10.06640625 c 0
 158.833182606 -10.06640625 20 134.599173678 20 361.93359375 c 0
EndSplineSet
Validated: 1
EndChar

StartChar: L
Encoding: 76 76 44
Width: 620
Flags: W
HStem: 0 171.293<339.065 606.539> 560.084 170.927<13.6201 128.151>
VStem: 123.43 215.635<171.293 560.084>
AnchorPoint: "Anchor-2" 377 0 basechar 0
AnchorPoint: "Anchor-2" 377 0 basechar 0
AnchorPoint: "Anchor-0" 206 731.008 basechar 0
LayerCount: 2
Fore
SplineSet
339.064795055 171.292732541 m 1
 610.159179688 172.930664062 l 1
 606.5390625 0 l 1
 123.4296875 0 l 1
 128.151367188 560.083984375 l 1
 10 558.080078125 l 1
 13.6201171875 731.010742188 l 1
 334.729492188 731.010742188 l 1
 339.064795055 171.292732541 l 1
EndSplineSet
Validated: 1048577
EndChar

StartChar: K
Encoding: 75 75 45
Width: 757
Flags: W
HStem: 0 21G<123.83 340.159> 560.084 170.927<13.6201 128.151>
VStem: 123.83 216.329<0 560.084>
AnchorPoint: "Anchor-2" 426 0 basechar 0
AnchorPoint: "Anchor-2" 426 0 basechar 0
AnchorPoint: "Anchor-0" 416 731.008 basechar 0
LayerCount: 2
Fore
SplineSet
334.729492188 731.010742188 m 1
 340.159179688 0 l 1
 123.830078125 0 l 1
 128.151367188 560.083984375 l 1
 10 558.080078125 l 1
 13.6201171875 731.010742188 l 1
 334.729492188 731.010742188 l 1
538 745.0078125 m 1
 722 621.0078125 l 1
 506 364 l 1
 747 108 l 1
 553 -27 l 1
 264 364 l 1
 538 745.0078125 l 1
EndSplineSet
Validated: 1048581
EndChar

StartChar: J
Encoding: 74 74 46
Width: 370
Flags: W
HStem: 560.084 170.927<13.6201 128.151>
VStem: 123.83 216.329<70 560.084>
AnchorPoint: "Anchor-2" 100 -148 basechar 0
AnchorPoint: "Anchor-2" 100 -148 basechar 0
AnchorPoint: "Anchor-0" 186 731.008 basechar 0
LayerCount: 2
Fore
SplineSet
334.729492188 731.010742188 m 1
 340.159179688 30 l 1
 198 -197 l 1
 0 -100 l 1
 123.830078125 70 l 1
 128.151367188 560.083984375 l 1
 10 558.080078125 l 1
 13.6201171875 731.010742188 l 1
 334.729492188 731.010742188 l 1
EndSplineSet
Validated: 1048577
EndChar

StartChar: H
Encoding: 72 72 47
Width: 780
Flags: W
HStem: 0 21G<123.83 340.159 533.83 750.159> 245 172<377.455 604> 256 157<252 474.545> 560.084 170.927<13.6201 128.151 423.62 538.151>
VStem: 123.83 216.329<0 256 413 560.084> 248 92.1592<256 413> 533.83 216.329<0 245 417 560.084>
AnchorPoint: "Anchor-2" 432 0 basechar 0
AnchorPoint: "Anchor-2" 432 0 basechar 0
AnchorPoint: "Anchor-0" 386 731.008 basechar 0
LayerCount: 2
Fore
SplineSet
252 413 m 1xb6
 608 417 l 1
 604 245 l 1xd6
 248 256 l 1
 252 413 l 1xb6
744.729492188 731.010742188 m 1
 750.159179688 0 l 1
 533.830078125 0 l 1
 538.151367188 560.083984375 l 1
 420 558.080078125 l 1
 423.620117188 731.010742188 l 1
 744.729492188 731.010742188 l 1
334.729492188 731.010742188 m 1
 340.159179688 0 l 1
 123.830078125 0 l 1x9a
 128.151367188 560.083984375 l 1
 10 558.080078125 l 1
 13.6201171875 731.010742188 l 1
 334.729492188 731.010742188 l 1
EndSplineSet
Validated: 1048581
EndChar

StartChar: backslash
Encoding: 92 92 48
Width: 507
Flags: W
LayerCount: 2
Fore
SplineSet
506 -143.994140625 m 1
 317 -195.994140625 l 1
 1 743.001953125 l 5
 190 795.001953125 l 5
 506 -143.994140625 l 1
EndSplineSet
Validated: 1
EndChar

StartChar: F
Encoding: 70 70 49
Width: 620
Flags: W
HStem: 0 21G<123.83 340.159> 235 172<327.455 554> 246 157<202 424.545> 558.08 172.931<13.6201 128.151 336.104 598.729>
VStem: 198 142.159<246 403>
AnchorPoint: "Anchor-2" 367 0 basechar 0
AnchorPoint: "Anchor-2" 367 0 basechar 0
AnchorPoint: "Anchor-0" 327 731.008 basechar 0
LayerCount: 2
Fore
SplineSet
202 403 m 1xb8
 558 407 l 1
 554 235 l 1xd8
 198 246 l 1
 202 403 l 1xb8
598.729492188 731.010742188 m 5
 604.61328125 554 l 5
 336.103515625 558 l 5
 340.159179688 0 l 5
 123.830078125 0 l 5
 128.151367188 560.083984375 l 5
 10 558.080078125 l 5
 13.6201171875 731.010742188 l 5
 598.729492188 731.010742188 l 5
EndSplineSet
Validated: 1048581
EndChar

StartChar: E
Encoding: 69 69 50
Width: 620
Flags: W
HStem: 0 171.293<339.065 606.539> 278 172<327.455 554> 289 157<202 424.545> 558.08 172.931<13.6201 128.151 336.104 598.729>
VStem: 198 141.017<289 446>
AnchorPoint: "Anchor-3" 535 0 basechar 0
AnchorPoint: "Anchor-2" 377 0 basechar 0
AnchorPoint: "Anchor-2" 377 0 basechar 0
AnchorPoint: "Anchor-0" 327 731.008 basechar 0
LayerCount: 2
Fore
SplineSet
202 446 m 1xb8
 558 450 l 1
 554 278 l 1xd8
 198 289 l 1
 202 446 l 1xb8
598.729492188 731.010742188 m 1
 604.61328125 554 l 1
 336.103515625 558 l 1
 339.017254914 171.480871913 l 1
 339.064795055 171.292732541 l 1
 610.159179688 172.930664062 l 1
 606.5390625 0 l 1
 123.4296875 0 l 1
 128.151367188 560.083984375 l 1
 10 558.080078125 l 1
 13.6201171875 731.010742188 l 1
 598.729492188 731.010742188 l 1
EndSplineSet
Validated: 5
EndChar

StartChar: N
Encoding: 78 78 51
Width: 781
Flags: W
HStem: -10 21G<542.701 751.539> 0 21G<125.21 331.539> 711.011 20G<552.787 746.258>
VStem: 125.21 206.329<0 351.793> 549.151 196.958<369.889 731.011>
AnchorPoint: "Anchor-2" 433 0 basechar 0
AnchorPoint: "Anchor-2" 433 0 basechar 0
AnchorPoint: "Anchor-0" 436 731.008 basechar 0
LayerCount: 2
Fore
SplineSet
746.109375 731.010742188 m 1x78
 751.5390625 0 l 1x78
 555.209960938 -10 l 1xb8
 328.92578125 351.79296875 l 1
 331.5390625 0 l 1
 125.209960938 0 l 1
 129.53125 564.083984375 l 1
 14.3798828125 558.080078125 l 1
 10 731.010742188 l 1
 346.109375 741.010742188 l 1
 549.151367188 369.888671875 l 1
 553 731.010742188 l 1
 746.109375 731.010742188 l 1x78
EndSplineSet
Validated: 1048577
EndChar

StartChar: bar
Encoding: 124 124 52
Width: 256
Flags: W
VStem: 30 196.329<-170 788.992>
LayerCount: 2
Fore
SplineSet
220.899414062 788.9921875 m 5
 226.329101562 -170 l 5
 30 -170 l 5
 36.169921875 788.9921875 l 5
 220.899414062 788.9921875 l 5
EndSplineSet
Validated: 1
EndChar

StartChar: U
Encoding: 85 85 53
Width: 767
Flags: W
HStem: -10 192<358.339 494.701> 560.084 170.927<13.6201 128.151 403.62 522.151>
VStem: 116.517 209.643<212.019 645.363> 527.83 209.812<214.132 556.03>
AnchorPoint: "Anchor-3" 495 0 basechar 0
AnchorPoint: "Anchor-2" 425 0 basechar 0
AnchorPoint: "Anchor-2" 425 0 basechar 0
AnchorPoint: "Anchor-0" 386 731.008 basechar 0
AnchorPoint: "Anchor-0" 386 731.008 basechar 0
LayerCount: 2
Fore
SplineSet
737.641601562 250.946289062 m 0
 737.641601562 87.6005859375 620.267578125 -10 423.830078125 -10 c 0
 223.546875 -10 116.516601562 87.5517578125 116.516601562 270.099609375 c 0
 116.516601562 383.298828125 128.151367188 560.083984375 128.151367188 560.083984375 c 1
 10 558.080078125 l 1
 13.6201171875 731.010742188 l 1
 330.729492188 731.010742188 l 1
 330.729492188 731.010742188 326.159179688 401.265625 326.159179688 286 c 0
 326.159179688 224.055664062 351.038085938 182 422 182 c 0
 495.7890625 182 527.830078125 219.811523438 527.830078125 286 c 0
 527.830078125 391.94921875 522.151367188 560.083984375 522.151367188 560.083984375 c 1
 400 558.080078125 l 1
 403.620117188 731.010742188 l 1
 724.729492188 731.010742188 l 1
 724.729492188 731.010742188 737.641601562 438.259765625 737.641601562 250.946289062 c 0
EndSplineSet
Validated: 1
EndChar

StartChar: A
Encoding: 65 65 54
Width: 670
Flags: W
HStem: 118 172<277.455 504> 129 157<152 374.545> 529.069 191.931<45.8193 177.508> 711 20G<41.4395 450.11>
AnchorPoint: "Anchor-3" 505 -0 basechar 0
AnchorPoint: "Anchor-2" 338 0 basechar 0
AnchorPoint: "Anchor-2" 338 0 basechar 0
AnchorPoint: "Anchor-0" 316 731.008 basechar 0
LayerCount: 2
Fore
SplineSet
152 286 m 1x40
 508 290 l 1
 504 118 l 1x80
 148 129 l 1
 152 286 l 1x40
177.5078125 534.112304688 m 5
 45.8193359375 529.069335938 l 5
 41.439453125 721 l 5x20
 443.548828125 731 l 5x10
 678.450195312 14.9111328125 l 5
 467.176757812 -15 l 5
 336.818359375 476.8671875 l 5
 199.819335938 -15 l 5
 -9.7265625 19 l 5
 177.5078125 534.112304688 l 5
EndSplineSet
Validated: 5
EndChar

StartChar: B
Encoding: 66 66 55
Width: 739
Flags: W
HStem: -10.0664 174<331.018 485.432> 297.992 139.941<328.823 457.956> 555.992 183<326.758 450.763> 555.992 33.2578<166.336 325.67>
VStem: 118 209.714<167.246 288.434 448.877 589.25> 470.917 209<453.359 534.968> 510.917 209<188.942 279.999>
AnchorPoint: "Anchor-2" 427 0 basechar 0
AnchorPoint: "Anchor-2" 427 0 basechar 0
AnchorPoint: "Anchor-0" 386 731.008 basechar 0
LayerCount: 2
Fore
SplineSet
285.196289062 448.876953125 m 5xda
 285.196289062 448.876953125 317.522460938 437.93359375 390.916992188 437.93359375 c 4
 443.850585938 437.93359375 470.916992188 459.322265625 470.916992188 492.93359375 c 4
 470.916992188 531.469726562 435.791015625 555.9921875 363.916992188 555.9921875 c 4
 166.3359375 555.9921875 39.26953125 471.427734375 39.26953125 471.427734375 c 5
 -2 664.840820312 l 5
 -2 664.840820312 113.998046875 738.9921875 386.916992188 738.9921875 c 4
 565.97265625 738.9921875 679.916992188 654.581054688 679.916992188 521.93359375 c 4xec
 679.916992188 413.459960938 586.275390625 384.96875 586.275390625 384.96875 c 5
 586.275390625 384.96875 719.916992188 354.49609375 719.916992188 196.9921875 c 4
 719.916992188 70.4560546875 605.97265625 -10.06640625 426.916992188 -10.06640625 c 4
 210.137695312 -10.06640625 118 24.0849609375 118 24.0849609375 c 5
 123.940429688 589.25 l 5
 325.669921875 589.25 l 5
 327.713867188 167.24609375 l 5
 327.713867188 167.24609375 347.770507812 163.93359375 403.916992188 163.93359375 c 4
 475.791015625 163.93359375 510.916992188 191.567382812 510.916992188 234.9921875 c 4
 510.916992188 273.4921875 483.850585938 297.9921875 430.916992188 297.9921875 c 4
 339.999023438 297.9921875 285.2578125 288.43359375 285.2578125 288.43359375 c 5
 285.196289062 448.876953125 l 5xda
EndSplineSet
Validated: 1048581
EndChar

StartChar: C
Encoding: 67 67 56
Width: 641
Flags: W
HStem: -10.0664 206<316.088 532.896> 533.992 205<325.34 512.002>
VStem: 20 226<269.622 454.823>
AnchorPoint: "Anchor-0" 387 731.008 basechar 0
AnchorPoint: "Anchor-2" 378 0 basechar 0
AnchorPoint: "Anchor-2" 378 0 basechar 0
LayerCount: 2
Fore
SplineSet
20 361.93359375 m 0
 20 592.358449127 162.722067273 738.9921875 387 738.9921875 c 0
 561.675165443 738.9921875 635.916992188 662.840820312 635.916992188 662.840820312 c 1
 574.647460938 475.427734375 l 1
 574.647460938 475.427734375 510.596273719 533.9921875 411 533.9921875 c 0
 310.1660493 533.9921875 246 467.081474501 246 361.93359375 c 0
 246 260.488789062 299.456152344 195.93359375 404 195.93359375 c 0
 536.855996852 195.93359375 604.1484375 254.364257812 604.1484375 254.364257812 c 1
 651.146484375 52.31640625 l 1
 651.146484375 52.31640625 584.321700857 -10.06640625 377 -10.06640625 c 0
 158.833182606 -10.06640625 20 134.599173678 20 361.93359375 c 0
EndSplineSet
Validated: 1048577
EndChar

StartChar: D
Encoding: 68 68 57
Width: 773
Flags: W
HStem: -10.0664 197<330.852 466.41> 539.992 199<332.557 461.153> 539.992 59.2578<170.25 325.67>
VStem: 123.94 201.729<188.847 599.25> 538.917 215<262.359 463.054>
AnchorPoint: "Anchor-2" 399 0 basechar 0
AnchorPoint: "Anchor-2" 399 0 basechar 0
AnchorPoint: "Anchor-0" 386 731.008 basechar 0
LayerCount: 2
Fore
SplineSet
753.916992188 361.93359375 m 0xd8
 753.916992188 134.599609375 615.083984375 -10.06640625 396.916992188 -10.06640625 c 0
 185.814453125 -10.06640625 117.770507812 37.31640625 117.770507812 37.31640625 c 1
 123.940429688 599.25 l 1
 325.669921875 599.25 l 1xb8
 329.002929688 188.846679688 l 1
 329.002929688 188.846679688 351.546875 186.93359375 380.916992188 186.93359375 c 0
 485.4609375 186.93359375 538.916992188 254.98828125 538.916992188 361.93359375 c 0
 538.916992188 470.748046875 484.750976562 539.9921875 373.916992188 539.9921875 c 0
 170.25 539.9921875 39.26953125 471.427734375 39.26953125 471.427734375 c 1
 -2 664.840820312 l 1
 -2 664.840820312 113.998046875 738.9921875 386.916992188 738.9921875 c 0
 611.1953125 738.9921875 753.916992188 592.358398438 753.916992188 361.93359375 c 0xd8
EndSplineSet
Validated: 1048581
EndChar

StartChar: P
Encoding: 80 80 58
Width: 724
Flags: W
HStem: 0 21G<117.771 329.003> 169.934 175<328.892 461.169> 542.992 196<332.642 451.253> 542.992 56.2578<166.336 325.67>
VStem: 117.771 211.232<0 194.434 365.877 599.25> 495.917 209<378.517 501.601>
AnchorPoint: "Anchor-2" 377 0 basechar 0
AnchorPoint: "Anchor-2" 377 0 basechar 0
AnchorPoint: "Anchor-0" 386 731.008 basechar 0
LayerCount: 2
Fore
SplineSet
329.002929688 0 m 1xdc
 117.770507812 0 l 1
 123.940429688 599.25 l 1
 325.669921875 599.25 l 1
 329.002929688 0 l 1xdc
284.196289062 365.876953125 m 1
 284.196289062 365.876953125 316.828125 344.93359375 390.916992188 344.93359375 c 0
 460.392578125 344.93359375 495.916992188 381.877929688 495.916992188 439.93359375 c 0
 495.916992188 502.9140625 452.583984375 542.9921875 363.916992188 542.9921875 c 0
 166.3359375 542.9921875 39.26953125 471.427734375 39.26953125 471.427734375 c 1
 -2 664.840820312 l 1
 -2 664.840820312 113.998046875 738.9921875 386.916992188 738.9921875 c 0xec
 581.25 738.9921875 704.916992188 619.581054688 704.916992188 431.93359375 c 0
 704.916992188 271.821289062 596.805664062 169.93359375 426.916992188 169.93359375 c 0
 319.770507812 169.93359375 255.2578125 194.43359375 255.2578125 194.43359375 c 1
 284.196289062 365.876953125 l 1
EndSplineSet
Validated: 1048581
EndChar

StartChar: M
Encoding: 77 77 59
Width: 889
VWidth: 1111
Flags: W
AnchorPoint: "Anchor-2" 479 0 basechar 0
AnchorPoint: "Anchor-2" 479 0 basechar 0
AnchorPoint: "Anchor-0" 490 731.008 basechar 0
LayerCount: 2
Fore
SplineSet
128.817481776 545.212951969 m 1
 13 539.080078125 l 1
 8.6201171875 731.010742188 l 1
 370.729492188 741.010742188 l 1
 483 487 l 1
 622 740 l 1
 836 731 l 1
 895 5 l 1
 673 -9 l 1
 644 391 l 1
 476 120 l 1
 320 382 l 1
 286 -6 l 1
 85 9 l 1
 128.817481776 545.212951969 l 1
EndSplineSet
Validated: 1048577
EndChar

StartChar: G
Encoding: 71 71 60
Width: 784
Flags: W
HStem: -10.0664 206<316.836 484.469> 533.992 205<325.34 526.222>
VStem: 20 226<269.622 454.823> 508.987 261.109<228.323 399.25>
AnchorPoint: "Anchor-2" 407 -40 basechar 0
AnchorPoint: "Anchor-2" 407 -40 basechar 0
AnchorPoint: "Anchor-0" 387 731.008 basechar 0
LayerCount: 2
Fore
SplineSet
508.987304688 399.25 m 1
 770.096679688 399.25 l 1
 773.716796875 226.319335938 l 1
 695.565429688 228.323242188 l 1
 699.88671875 -87.7607421875 l 1
 503.557617188 -87.7607421875 l 1
 508.987304688 399.25 l 1
20 361.93359375 m 0
 20 592.358449127 162.722067273 738.9921875 387 738.9921875 c 0
 575.709977925 738.9921875 655.916992188 662.840820312 655.916992188 662.840820312 c 1
 594.647460938 475.427734375 l 1
 594.647460938 475.427734375 522.768326148 533.9921875 411 533.9921875 c 0
 310.1660493 533.9921875 246 467.081474501 246 361.93359375 c 0
 246 260.488789062 299.456152344 195.93359375 404 195.93359375 c 0
 523.58025026 195.93359375 584.1484375 274.364257812 584.1484375 274.364257812 c 1
 651.146484375 152.31640625 l 1
 651.146484375 152.31640625 579.446585739 -10.06640625 357 -10.06640625 c 0
 151.055413272 -10.06640625 20 134.599173678 20 361.93359375 c 0
EndSplineSet
Validated: 1048581
EndChar

StartChar: T
Encoding: 84 84 61
Width: 590
Flags: W
HStem: 0 21G<181.83 398.159> 558 30<186.151 394.104> 558.08 172.931<13.6201 186.151 394.104 568.729>
VStem: 181.83 216.329<0 588>
AnchorPoint: "Anchor-2" 288 0 basechar 0
AnchorPoint: "Anchor-2" 288 0 basechar 0
AnchorPoint: "Anchor-0" 289 731.008 basechar 0
LayerCount: 2
Fore
SplineSet
394.103515625 588 m 1xd0
 398.159179688 0 l 1
 181.830078125 0 l 1
 186.151367188 590.083984375 l 1
 394.103515625 588 l 1xd0
292.103515625 558 m 1
 10 558.080078125 l 1
 13.6201171875 731.010742188 l 1
 568.729492188 731.010742188 l 1xb0
 574.61328125 554 l 1
 292.103515625 558 l 1
EndSplineSet
Validated: 1048581
EndChar

StartChar: V
Encoding: 86 86 62
Width: 783
Flags: W
HStem: 0 21G<316.915 530.159>
AnchorPoint: "Anchor-2" 425 0 basechar 0
AnchorPoint: "Anchor-2" 425 0 basechar 0
AnchorPoint: "Anchor-0" 424 731.008 basechar 0
LayerCount: 2
Fore
SplineSet
522.607421875 0 m 1
 323.174804688 0 l 1
 149.151367188 556 l 1
 26.0458984375 548 l 1
 19 732 l 1
 307.546875 746 l 1
 437.905273438 284.1328125 l 1
 574.904296875 746 l 1
 791.450195312 712 l 1
 522.607421875 0 l 1
EndSplineSet
Validated: 1048577
EndChar

StartChar: W
Encoding: 87 87 63
Width: 1143
Flags: W
HStem: 0 21G<298.598 520.941 705.73 929.127> 716 20G<929.861 1062.28>
AnchorPoint: "Anchor-2" 618 0 basechar 0
AnchorPoint: "Anchor-2" 618 0 basechar 0
AnchorPoint: "Anchor-0" 664 731.008 basechar 0
LayerCount: 2
Fore
SplineSet
513.607421875 0 m 5
 304.174804688 0 l 5
 149.151367188 556 l 5
 26.0458984375 548 l 5
 19 732 l 5
 307.546875 746 l 5
 428.905273438 264.1328125 l 5
 562.904296875 759 l 5
 779.450195312 725 l 5
 513.607421875 0 l 5
922.607421875 0 m 5
 713.174804688 0 l 5
 552 433 l 5
 695.395507812 623 l 5
 815.905273438 264.1328125 l 5
 934.904296875 736 l 5
 1151.45019531 702 l 5
 922.607421875 0 l 5
EndSplineSet
Validated: 1048581
EndChar

StartChar: Q
Encoding: 81 81 64
Width: 765
Flags: W
HStem: -10.0664 205.351<296.681 461.379> 533.583 205.351<298.251 459.688>
VStem: 20 205.487<269.389 456.402> 539.513 205.487<271.083 454.652>
AnchorPoint: "Anchor-2" 427 -90 basechar 0
AnchorPoint: "Anchor-0" 377 731.008 basechar 0
LayerCount: 2
Fore
SplineSet
78 151 m 1
 820 11 l 1
 770 -184 l 1
 54 29 l 1
 78 151 l 1
EndSplineSet
Refer: 43 79 N 1 0 0 1 0 0 2
EndChar

StartChar: underscore
Encoding: 95 95 65
Width: 580
Flags: W
HStem: -148 152<212.182 566> -137 137<14 363.818>
LayerCount: 2
Fore
SplineSet
14 0 m 1x40
 570 4 l 1
 566 -148 l 5x80
 10 -137 l 5
 14 0 l 1x40
EndSplineSet
Validated: 1
EndChar

StartChar: R
Encoding: 82 82 66
Width: 719
Flags: W
HStem: 0 21G<117.771 329.003> 542.992 196<332.642 454.837> 542.992 56.2578<166.336 325.67>
VStem: 117.771 211.232<0 244.434 395.877 599.25> 489.917 209<399.964 508.654>
AnchorPoint: "Anchor-2" 417 0 basechar 0
AnchorPoint: "Anchor-2" 417 0 basechar 0
AnchorPoint: "Anchor-0" 386 731.008 basechar 0
LayerCount: 2
Fore
SplineSet
329.002929688 0 m 1xb8
 117.770507812 0 l 1
 123.940429688 599.25 l 1
 325.669921875 599.25 l 1
 329.002929688 0 l 1xb8
284.196289062 395.876953125 m 1
 284.196289062 395.876953125 316.828125 374.93359375 390.916992188 374.93359375 c 0
 456.421875 374.93359375 489.916992188 405.266601562 489.916992188 452.93359375 c 0
 489.916992188 507.969726562 448.553710938 542.9921875 363.916992188 542.9921875 c 0
 166.3359375 542.9921875 39.26953125 471.427734375 39.26953125 471.427734375 c 1
 -2 664.840820312 l 1
 -2 664.840820312 113.998046875 738.9921875 386.916992188 738.9921875 c 0xd8
 577.583984375 738.9921875 698.916992188 634.747070312 698.916992188 470.93359375 c 0
 698.916992188 303.419921875 544.740234375 261.040039062 544.740234375 261.040039062 c 1
 709.770507812 138 l 1
 585.770507812 -37 l 1
 235.2578125 244.43359375 l 1
 284.196289062 395.876953125 l 1
EndSplineSet
Validated: 1048581
EndChar

StartChar: five
Encoding: 53 53 67
Width: 581
Flags: W
HStem: -10.0664 174<103.48 311.019> 317.992 161.008<224.415 404.235> 550 181.008<239 519.017>
VStem: 340.917 219<190.952 292.134>
LayerCount: 2
Back
SplineSet
529.016601562 549.0078125 m 5
 239 550 l 29
 224 471 l 21
 224 471 248.642857143 479 316 479 c 4
 492.46964774 479 559.916992188 386.635747331 559.916992188 246.9921875 c 4
 559.916992188 68.1744133844 445.97265625 -10.06640625 266.916992188 -10.06640625 c 4
 85.2246769868 -10.06640625 8 44.0849609375 8 44.0849609375 c 5
 50 207 l 5
 50 207 126.85984585 163.93359375 233.916992188 163.93359375 c 4
 305.791015625 163.93359375 340.916992188 195.456256431 340.916992188 244.9921875 c 4
 340.916992188 289.603298611 303.700683594 317.9921875 230.916992188 317.9921875 c 4
 164.966339317 317.9921875 125.2578125 288.43359375 125.2578125 288.43359375 c 5
 19 392 l 5
 80 731.0078125 l 5
 365 731.0078125 l 5
 362 798.0078125 l 5
 515.016601562 800.0078125 l 5
 529.016601562 549.0078125 l 5
EndSplineSet
Fore
SplineSet
529.016601562 549.0078125 m 5
 239 550 l 29
 224 471 l 21
 224 471 248.642857143 479 316 479 c 4
 492.46964774 479 559.916992188 386.635747331 559.916992188 246.9921875 c 4
 559.916992188 68.1744133844 445.97265625 -10.06640625 266.916992188 -10.06640625 c 4
 85.2246769868 -10.06640625 8 44.0849609375 8 44.0849609375 c 5
 50 207 l 5
 50 207 126.85984585 163.93359375 233.916992188 163.93359375 c 4
 305.791015625 163.93359375 340.916992188 195.456256431 340.916992188 244.9921875 c 4
 340.916992188 289.603298611 303.700683594 317.9921875 230.916992188 317.9921875 c 4
 164.966339317 317.9921875 125.2578125 288.43359375 125.2578125 288.43359375 c 5
 19 392 l 5
 80 731.0078125 l 5
 519.016601562 731.0078125 l 5
 529.016601562 549.0078125 l 5
EndSplineSet
Validated: 1
Substitution2: "'ss02' Style Set 2 lookup 10-1" five.ss02
Substitution2: "'frac' Diagonal Fractions in Latin lookup 26 subtable" five.numr
Substitution2: "'dnom' Denominators lookup 0 subtable" five.dnom
Substitution2: "'numr' Numerators lookup 0 subtable" five.numr
Substitution2: "'sinf' Scientific Inferiors lookup 0 subtable" five.inferior
Substitution2: "'sups' Superscript lookup 0 subtable" five.superior
EndChar

StartChar: Z
Encoding: 90 90 68
Width: 601
Flags: W
HStem: 0 194<297.169 571.017> 532.008 199<30 293.848>
AnchorPoint: "Anchor-2" 315 0 basechar 0
AnchorPoint: "Anchor-2" 315 0 basechar 0
AnchorPoint: "Anchor-0" 294 731.008 basechar 0
LayerCount: 2
Fore
SplineSet
20 532.0078125 m 1
 30 731.0078125 l 1
 559.016601562 731.0078125 l 1
 589.016601562 573.0078125 l 1
 297.168945312 194 l 1
 581.016601562 200 l 1
 571.016601562 0 l 1
 42 0 l 1
 12 158 l 1
 293.84765625 538.0078125 l 1
 20 532.0078125 l 1
EndSplineSet
Validated: 1048577
EndChar

StartChar: Y
Encoding: 89 89 69
Width: 753
Flags: W
HStem: 0 21G<303.83 526.159>
VStem: 307.623 215.111<0 260.155>
AnchorPoint: "Anchor-2" 422 0 basechar 0
AnchorPoint: "Anchor-2" 422 0 basechar 0
AnchorPoint: "Anchor-0" 420 731.008 basechar 0
AnchorPoint: "Anchor-0" 420 731.008 basechar 0
LayerCount: 2
Fore
SplineSet
307.623046875 260.155273438 m 1
 153.151367188 551 l 1
 36.0458984375 533 l 1
 19 722 l 1
 307.546875 746 l 1
 424.905273438 474.1328125 l 1
 544.904296875 746 l 1
 761.450195312 682 l 1
 522.734375 266.650390625 l 1
 526.159179688 0 l 1
 303.830078125 0 l 1
 307.623046875 260.155273438 l 1
EndSplineSet
Validated: 1048577
EndChar

StartChar: X
Encoding: 88 88 70
Width: 776
Flags: W
AnchorPoint: "Anchor-2" 425 0 basechar 0
AnchorPoint: "Anchor-2" 425 0 basechar 0
AnchorPoint: "Anchor-0" 422 731.008 basechar 0
LayerCount: 2
Fore
SplineSet
287 745.0078125 m 1
 531 364 l 1
 262 -27 l 1
 68 108 l 1
 289 364 l 1
 174 521.0078125 l 1
 44 486.93359375 l 1
 -2 671 l 1
 287 745.0078125 l 1
572 745.0078125 m 1
 756 621.0078125 l 1
 560 364 l 1
 781 108 l 1
 587 -27 l 1
 318 364 l 1
 572 745.0078125 l 1
EndSplineSet
Validated: 1048581
EndChar

StartChar: comma
Encoding: 44 44 71
Width: 280
Flags: W
VStem: -31 307
LayerCount: 2
Fore
SplineSet
81 243 m 29
 276 141 l 29
 81 -109 l 29
 -31 -44 l 29
 81 243 l 29
EndSplineSet
Validated: 1
EndChar

StartChar: nine
Encoding: 57 57 73
Width: 619
Flags: W
HStem: -20 182.459<120.097 231.59> 243.266 149.718<174.524 362.141> 567.134 171.858<246.984 359.921>
VStem: 20 199.691<417.929 541.544> 385.941 213.375<313.796 538.425>
LayerCount: 2
Fore
SplineSet
121.005859375 -20 m 5
 97.31640625 162.458984375 l 5
 358.30078125 184.84765625 367.858398438 265.059570312 367.858398438 265.059570312 c 5
 367.858398438 265.059570312 334.689453125 243.265625 244.715820312 243.265625 c 4
 105.334960938 243.265625 20 334.989257812 20 473.743164062 c 4
 20 623.852539062 98.7890625 738.9921875 303.005859375 738.9921875 c 4
 480.452148438 738.9921875 599.31640625 646.598632812 599.31640625 422.643554688 c 4
 599.31640625 209.85546875 484.740234375 0.5283203125 121.005859375 -20 c 5
385.94140625 479.133789062 m 4
 385.94140625 532.912109375 353.799804688 567.133789062 303.291015625 567.133789062 c 4
 252.202148438 567.133789062 219.69140625 532.912109375 219.69140625 479.133789062 c 4
 219.69140625 426.486328125 252.202148438 392.983398438 303.291015625 392.983398438 c 4
 353.799804688 392.983398438 385.94140625 426.486328125 385.94140625 479.133789062 c 4
EndSplineSet
Validated: 1
Substitution2: "'frac' Diagonal Fractions in Latin lookup 26 subtable" nine.numr
Substitution2: "'dnom' Denominators lookup 0 subtable" nine.dnom
Substitution2: "'numr' Numerators lookup 0 subtable" nine.numr
Substitution2: "'sinf' Scientific Inferiors lookup 0 subtable" nine.inferior
Substitution2: "'sups' Superscript lookup 0 subtable" nine.superior
EndChar

StartChar: at
Encoding: 64 64 74
Width: 925
Flags: W
HStem: -159.727 116.758<342.854 676.128> 61.1953 135.043<402.386 499.994> 61.1953 119.293<697.577 776.031> 347.564 133.167<401.85 500.537> 595.738 111.988<325.072 608.342>
VStem: 20 123.175<141.484 407.701> 227.065 156.617<214.379 329.633> 518.107 166.342<226.109 318.587> 537.609 79.4688<135.467 377.257> 797.417 107.87<201.433 421.458>
LayerCount: 2
Back
SplineSet
383.682617188 363.05078125 m 4
 383.682617188 316.109247754 409.670958279 286.23828125 450.510742188 286.23828125 c 4
 491.819512399 286.23828125 518.107421875 316.109247754 518.107421875 363.05078125 c 4
 518.107421875 408.587225891 491.819512399 437.564453125 450.510742188 437.564453125 c 4
 409.670958279 437.564453125 383.682617188 408.587225891 383.682617188 363.05078125 c 4
227.065429688 362.180664062 m 4
 227.065429688 489.62830702 304.104829916 570.731445312 425.166015625 570.731445312 c 4
 542.446294413 570.731445312 617.078125 481.850523805 617.078125 342.180664062 c 4
 617.078125 225.467188381 542.446294413 151.1953125 425.166015625 151.1953125 c 4
 304.104829916 151.1953125 227.065429688 233.244944662 227.065429688 362.180664062 c 4
482.713867188 -69.7265625 m 4
 196.205078125 -69.7265625 20 94.120869497 20 358.08984375 c 4
 20 614.04161915 179.602962903 797.7265625 458.420898438 797.7265625 c 4
 719.309753403 797.7265625 905.287109375 644.481343946 905.287109375 393.712890625 c 4
 905.287109375 244.839167523 837.952756418 151.1953125 717.719726562 151.1953125 c 4
 615.522094238 151.1953125 537.609375 214.164366887 537.609375 369.505859375 c 4xbec0
 537.609375 467.256613965 560.59375 568.397460938 560.59375 568.397460938 c 5
 719.240234375 557.948242188 l 5
 719.240234375 557.948242188 684.44921875 433.940847325 684.44921875 344.6015625 c 4
 684.44921875 296.089332487 702.751947423 270.48828125 737.275390625 270.48828125 c 4xbf40
 776.877487851 270.48828125 797.416992188 309.544489267 797.416992188 388.072265625 c 4
 797.416992188 598.423866678 657.969723158 685.73828125 454.984375 685.73828125 c 4
 244.117457887 685.73828125 143.174804688 558.151791284 143.174804688 359.489257812 c 4
 143.174804688 155.069734874 261.674804688 47.03125 492.6796875 47.03125 c 4
 674.779296875 47.03125 788.61328125 106.557617188 788.61328125 106.557617188 c 5
 818.250976562 5.7744140625 l 5
 818.250976562 5.7744140625 708.095703125 -69.7265625 482.713867188 -69.7265625 c 4
EndSplineSet
Fore
SplineSet
383.682617188 273.05078125 m 4xdf40
 383.682617188 226.109247754 409.670958279 196.23828125 450.510742188 196.23828125 c 4
 491.819512399 196.23828125 518.107421875 226.109247754 518.107421875 273.05078125 c 4
 518.107421875 318.587225891 491.819512399 347.564453125 450.510742188 347.564453125 c 4
 409.670958279 347.564453125 383.682617188 318.587225891 383.682617188 273.05078125 c 4xdf40
227.065429688 272.180664062 m 4
 227.065429688 399.62830702 304.104829916 480.731445312 425.166015625 480.731445312 c 4
 542.446294413 480.731445312 617.078125 391.850523805 617.078125 252.180664062 c 4xdec0
 617.078125 135.467188381 542.446294413 61.1953125 425.166015625 61.1953125 c 4
 304.104829916 61.1953125 227.065429688 143.244944662 227.065429688 272.180664062 c 4
482.713867188 -159.7265625 m 4
 196.205078125 -159.7265625 20 4.12086949697 20 268.08984375 c 4
 20 524.04161915 179.602962903 707.7265625 458.420898438 707.7265625 c 4
 719.309753403 707.7265625 905.287109375 554.481343946 905.287109375 303.712890625 c 4
 905.287109375 154.839167523 837.952756418 61.1953125 717.719726562 61.1953125 c 4
 615.522094238 61.1953125 537.609375 124.164366887 537.609375 279.505859375 c 4xbec0
 537.609375 377.256613965 560.59375 478.397460938 560.59375 478.397460938 c 5
 719.240234375 467.948242188 l 5
 719.240234375 467.948242188 684.44921875 343.940847325 684.44921875 254.6015625 c 4
 684.44921875 206.089332487 702.751947423 180.48828125 737.275390625 180.48828125 c 4xbf40
 776.877487851 180.48828125 797.416992188 219.544489267 797.416992188 298.072265625 c 4
 797.416992188 508.423866678 657.969723158 595.73828125 454.984375 595.73828125 c 4
 244.117457887 595.73828125 143.174804688 468.151791284 143.174804688 269.489257812 c 4
 143.174804688 65.0697348738 261.674804688 -42.96875 492.6796875 -42.96875 c 4
 674.779296875 -42.96875 788.61328125 16.5576171875 788.61328125 16.5576171875 c 5
 818.250976562 -84.2255859375 l 5
 818.250976562 -84.2255859375 708.095703125 -159.7265625 482.713867188 -159.7265625 c 4
EndSplineSet
EndChar

StartChar: percent
Encoding: 37 37 75
Width: 889
Flags: W
HStem: -10 135.303<635.612 712.699> 235.479 135.399<635.292 713.022> 358.113 135.303<175.612 252.699> 603.593 135.399<175.292 253.022>
VStem: 19.5205 146.384<501.768 596.134> 262.704 146.416<502.1 595.813> 479.521 146.384<133.655 228.021> 722.704 146.416<133.987 227.7>
LayerCount: 2
Fore
SplineSet
625.904296875 181.302734375 m 0xdf
 625.904296875 147.080592105 644.607826248 125.302734375 674 125.302734375 c 0
 703.763657131 125.302734375 722.704101562 147.080592105 722.704101562 181.302734375 c 0
 722.704101562 214.41091252 703.763657131 235.479492188 674 235.479492188 c 0
 644.607826248 235.479492188 625.904296875 214.41091252 625.904296875 181.302734375 c 0xdf
479.520507812 181.399414062 m 0
 479.520507812 297.192737064 555.151113526 370.87890625 674 370.87890625 c 0
 793.240276768 370.87890625 869.120117188 297.192737064 869.120117188 181.399414062 c 0
 869.120117188 64.4329057749 793.240276768 -10 674 -10 c 0
 555.151113526 -10 479.520507812 64.4329057749 479.520507812 181.399414062 c 0
165.904296875 549.416015625 m 0
 165.904296875 515.193873355 184.607826248 493.416015625 214 493.416015625 c 0xbf
 243.763657131 493.416015625 262.704101562 515.193873355 262.704101562 549.416015625 c 0
 262.704101562 582.52419377 243.763657131 603.592773438 214 603.592773438 c 0
 184.607826248 603.592773438 165.904296875 582.52419377 165.904296875 549.416015625 c 0
19.5205078125 549.512695312 m 0
 19.5205078125 665.306018314 95.1511135263 738.9921875 214 738.9921875 c 0
 333.240276768 738.9921875 409.120117188 665.306018314 409.120117188 549.512695312 c 0
 409.120117188 432.546187025 333.240276768 358.11328125 214 358.11328125 c 0
 95.1511135263 358.11328125 19.5205078125 432.546187025 19.5205078125 549.512695312 c 0
EndSplineSet
Refer: 168 8260 S 1 0 0 1 304 0 2
Validated: 1
EndChar

StartChar: ampersand
Encoding: 38 38 76
Width: 706
Flags: W
HStem: -9.99805 176.998<242.634 400.844> 264 159<580 658.556>
VStem: 20 205<185.991 269.289> 38 206<474.715 547.9> 404 195<184 421.364> 580 12<264 423>
LayerCount: 2
Fore
SplineSet
686 427 m 25xc4
 683 255 l 25
 573 264 l 25
 580 423 l 25
 686 427 l 25xc4
365 745 m 9
 390 583 l 17
 298 568 244 555 244 511.93359375 c 0xd0
 244 468 290 459 354 450 c 9
 347 289 l 17
 254 289 225 265 225 228 c 16
 225 191 252 167 315 167 c 16
 378 167 404 184 404 184 c 25xe8
 415 557 l 25
 592 547 l 25xc4
 599 55 l 25
 599 55 507 -9.998046875 315 -9.998046875 c 0
 183 -9.998046875 20 10 20 197 c 16xe8
 20 360 167 384 167 384 c 1
 167 384 38 410.984375 38 537 c 0xd0
 38 638 121 719 365 745 c 9
EndSplineSet
Validated: 5
Substitution2: "'ss09' Style Set 9 lookup 17-1" ampersand.ss09
EndChar

StartChar: two
Encoding: 50 50 77
Width: 599
Flags: W
HStem: 0 194<345.152 569> 545 194<157.52 301.655>
VStem: 326.364 228.6<415.574 591.463>
LayerCount: 2
Fore
SplineSet
345.15234375 194 m 5
 579 200 l 1
 569 0 l 1
 29.9833984375 0 l 1
 19.9833984375 158 l 1
 19.9833984375 158 326.364257812 303.896484375 326.364257812 465 c 0
 326.364257812 518.841796875 291.873046875 545 242.955078125 545 c 0
 159.375 545 108.463867188 488 108.463867188 488 c 1
 20.5634765625 648 l 1
 20.5634765625 648 121.564453125 739 291.03125 739 c 0
 461.01171875 739 554.963867188 659 554.963867188 523.418945312 c 0
 554.963867188 322.1875 345.15234375 194 345.15234375 194 c 5
EndSplineSet
Validated: 1
Substitution2: "'frac' Diagonal Fractions in Latin lookup 26 subtable" two.numr
Substitution2: "'dnom' Denominators lookup 0 subtable" two.dnom
Substitution2: "'numr' Numerators lookup 0 subtable" two.numr
Substitution2: "'sinf' Scientific Inferiors lookup 0 subtable" two.inferior
Substitution2: "'sups' Superscript lookup 0 subtable" two.superior
EndChar

StartChar: three.ss01
Encoding: 65536 -1 78
Width: 579
Flags: W
HStem: -10.0664 174<84.2771 316.557> 297.992 149.941<145.29 316.829> 521.428 21G<54.5099 59.2695> 565.992 173<108.633 312.93>
VStem: 332.917 209<467.248 604.582> 340.917 219<188.942 279.999>
LayerCount: 2
Fore
SplineSet
50 197 m 1xf4
 50 197 126.85984585 163.93359375 233.916992188 163.93359375 c 4
 305.791015625 163.93359375 340.916992188 191.567382812 340.916992188 234.9921875 c 4xf4
 340.916992188 273.4921875 313.850585938 297.9921875 260.916992188 297.9921875 c 4
 188.724510347 297.9921875 145.2578125 288.43359375 145.2578125 288.43359375 c 1
 145.196289062 451.876953125 l 1
 145.196289062 451.876953125 171.407069927 447.93359375 230.916992188 447.93359375 c 0
 298.407324219 447.93359375 332.916992188 469.322265625 332.916992188 502.93359375 c 0
 332.916992188 541.469726562 300.417256863 565.9921875 233.916992188 565.9921875 c 0
 127.626219326 565.9921875 59.26953125 521.427734375 59.26953125 521.427734375 c 1
 18 694.840820312 l 1
 18 694.840820312 89.2591761628 738.9921875 256.916992188 738.9921875 c 0
 431.083764398 738.9921875 541.916992188 662.358782476 541.916992188 541.93359375 c 0xf8
 541.916992188 417.620329417 426.275390625 384.96875 426.275390625 384.96875 c 1
 426.275390625 384.96875 559.916992188 354.49609375 559.916992188 196.9921875 c 0
 559.916992188 70.4560546875 445.97265625 -10.06640625 266.916992188 -10.06640625 c 0
 85.2246769868 -10.06640625 8 24.0849609375 8 24.0849609375 c 1
 50 197 l 1xf4
EndSplineSet
Validated: 1
Substitution2: "'sinf' Scientific Inferiors lookup 0 subtable" three.ss01.inferior
Substitution2: "'sups' Superscript lookup 0 subtable" three.ss01.superior
EndChar

StartChar: four
Encoding: 52 52 79
Width: 709
Flags: W
HStem: 0 21G<372 580.329> 154.68 183.28<252.72 679.76> 162.12 170.96<252.72 642.527>
LayerCount: 2
Fore
SplineSet
574.899414062 576.93359375 m 1x80
 580.329101562 0 l 1
 372 0 l 1
 378.169921875 576.93359375 l 1
 574.899414062 576.93359375 l 1x80
298.559570312 752.280273438 m 1
 470.759765625 644.400390625 l 1
 252.719726562 333.080078125 l 1xa0
 685.639648438 337.959960938 l 1
 679.759765625 154.6796875 l 1xc0
 50.759765625 162.120117188 l 1xa0
 13.5595703125 288.360351562 l 1
 298.559570312 752.280273438 l 1
EndSplineSet
Validated: 5
Substitution2: "'frac' Diagonal Fractions in Latin lookup 26 subtable" four.numr
Substitution2: "'dnom' Denominators lookup 0 subtable" four.dnom
Substitution2: "'numr' Numerators lookup 0 subtable" four.numr
Substitution2: "'sinf' Scientific Inferiors lookup 0 subtable" four.inferior
Substitution2: "'sups' Superscript lookup 0 subtable" four.superior
EndChar

StartChar: seven
Encoding: 55 55 80
Width: 568
Flags: W
HStem: 538.008 193<200 341.848>
LayerCount: 2
Fore
SplineSet
7 429.0078125 m 5
 37 731.0078125 l 1
 527.016601562 731.0078125 l 1
 577.016601562 603.0078125 l 1
 346 -16 l 5
 131 48 l 5
 341.84765625 538.0078125 l 1
 200 534.712890625 l 1
 186 411 l 5
 7 429.0078125 l 5
EndSplineSet
Validated: 1
Substitution2: "'frac' Diagonal Fractions in Latin lookup 26 subtable" seven.numr
Substitution2: "'dnom' Denominators lookup 0 subtable" seven.dnom
Substitution2: "'numr' Numerators lookup 0 subtable" seven.numr
Substitution2: "'sinf' Scientific Inferiors lookup 0 subtable" seven.inferior
Substitution2: "'sups' Superscript lookup 0 subtable" seven.superior
EndChar

StartChar: dollar
Encoding: 36 36 81
Width: 408
Flags: W
HStem: 0 21G<148 285> 719 20G<113 250>
LayerCount: 2
Fore
SplineSet
285 0 m 29
 148 0 l 29
 165 215 l 29
 266 215 l 29
 285 0 l 29
113 739 m 29
 250 739 l 29
 233 524 l 29
 132 524 l 29
 113 739 l 29
307.302734375 645.848632812 m 1
 331.232421875 503.830078125 l 1
 331.232421875 503.830078125 234.431640625 494.62109375 234.431640625 466.092773438 c 0
 234.431640625 451.572265625 253.3828125 445.52734375 297.732421875 424.959960938 c 0
 363.058661043 394.66454712 388.2890625 356.294921875 388.2890625 295.793945312 c 0
 388.2890625 107.013671875 73.0390625 87.0791015625 73.0390625 87.0791015625 c 1
 51.5693359375 236.671875 l 1
 51.5693359375 236.671875 182.4375 241.786132812 182.4375 287.923828125 c 0
 182.4375 306.712890625 162.719726562 316.098632812 122.036132812 331.897460938 c 0
 45.1147896276 361.768644088 20 400.168945312 20 456.14453125 c 0
 20 629.578125 307.302734375 645.848632812 307.302734375 645.848632812 c 1
EndSplineSet
Validated: 5
EndChar

StartChar: quotesingle
Encoding: 39 39 82
Width: 256
Flags: W
HStem: 465 300<67 183>
VStem: 14 228
LayerCount: 2
Fore
SplineSet
14 765 m 29
 242 765 l 29
 183 465 l 29
 67 465 l 29
 14 765 l 29
EndSplineSet
Validated: 1
EndChar

StartChar: quotedbl
Encoding: 34 34 83
Width: 462
VWidth: 1111
Flags: W
HStem: 453 315
LayerCount: 2
Fore
SplineSet
9 755 m 5
 201 768 l 5
 186 462 l 5
 71 453 l 5
 9 755 l 5
251 767 m 5
 447 751 l 5
 376 454 l 5
 254 460 l 5
 251 767 l 5
EndSplineSet
Validated: 1
EndChar

StartChar: plus
Encoding: 43 43 84
Width: 450
Flags: W
HStem: 160.5 137.5<222 306.5> 293 154<21 256.667>
VStem: 154.5 145<296.971 547.25>
LayerCount: 2
Fore
SplineSet
307.5 569.5 m 1xa0
 299.5 391.5 l 1
 306.5 158.5 l 1
 137.5 160.5 l 1
 154.5 392.5 l 1
 146.5 572.5 l 1
 307.5 569.5 l 1xa0
21 447 m 1x60
 223 443 l 5
 432 450 l 1
 430 281 l 1
 222 298 l 5xa0
 18 293 l 1
 21 447 l 1x60
EndSplineSet
Validated: 5
EndChar

StartChar: minus
Encoding: 8722 8722 85
Width: 450
Flags: W
HStem: 245 172<174.455 401> 256 157<49 271.545>
LayerCount: 2
Fore
SplineSet
49 413 m 5x40
 405 417 l 5
 401 245 l 5x80
 45 256 l 5
 49 413 l 5x40
EndSplineSet
Validated: 1
EndChar

StartChar: question
Encoding: 63 63 86
Width: 437
Flags: W
HStem: -10 220<75.35 216.65> 254.635 189.839<70.0198 196.976> 589 156.384<49.1254 138.402>
VStem: 36 220<29.35 170.65> 213 204<462.562 545.248>
LayerCount: 2
Fore
SplineSet
20 589 m 5xe8
 50.490234375 745.383789062 l 5
 301.833984375 713.731445312 417 638.8046875 417 506.93359375 c 4
 417 366 234.327148438 320 234.327148438 320 c 5
 221 245 l 5
 221 245 199 254.634765625 148 254.634765625 c 4
 97 254.634765625 70 243 70 243 c 5
 55.9052734375 449 l 5
 55.9052734375 449 78 444.473632812 122 444.473632812 c 4
 175 444.473632812 213 461 213 505 c 4
 213 553.075195312 169.16796875 571.017578125 20 589 c 5xe8
36 100 m 0xf0
 36 167.22265625 78.77734375 210 146 210 c 0
 213.22265625 210 256 167.22265625 256 100 c 0
 256 32.77734375 213.22265625 -10 146 -10 c 0
 78.77734375 -10 36 32.77734375 36 100 c 0xf0
EndSplineSet
Validated: 1
EndChar

StartChar: parenleft
Encoding: 40 40 87
Width: 361
Flags: W
VStem: 20 211.137<116.161 478.583>
LayerCount: 2
Fore
SplineSet
231.13671875 300.836914062 m 0
 231.13671875 21 360 -128.994140625 360 -128.994140625 c 5
 200 -198.994140625 l 1
 200 -198.994140625 20 -37 20 301.005859375 c 0
 20 613 200 791.001953125 200 791.001953125 c 1
 360 721.001953125 l 5
 360 721.001953125 231.13671875 577 231.13671875 300.836914062 c 0
EndSplineSet
Validated: 1
EndChar

StartChar: parenright
Encoding: 41 41 88
Width: 361
Flags: W
VStem: 129.863 211.137<113.424 475.847>
LayerCount: 2
Fore
SplineSet
129.86328125 291.170898438 m 4
 129.86328125 571.0078125 1 721.001953125 1 721.001953125 c 5
 161 791.001953125 l 5
 161 791.001953125 341 629.0078125 341 291.001953125 c 4
 341 -20.9921875 161 -198.994140625 161 -198.994140625 c 5
 1 -128.994140625 l 5
 1 -128.994140625 129.86328125 15.0078125 129.86328125 291.170898438 c 4
EndSplineSet
Validated: 1
EndChar

StartChar: bracketleft
Encoding: 91 91 89
Width: 394
Flags: W
HStem: -190 154<233.747 381.824> 626 165.011<230.672 372.395>
VStem: 30 203.747<-36 629>
LayerCount: 2
Fore
SplineSet
372.39453125 791.010742188 m 5
 378.665039062 626 l 1
 230.671875 629 l 1
 233.747070312 -36 l 1
 384.806640625 -32 l 1
 381.82421875 -190 l 1
 30 -190 l 1
 32.69140625 791.010742188 l 5
 372.39453125 791.010742188 l 5
EndSplineSet
Validated: 1
EndChar

StartChar: bracketright
Encoding: 93 93 90
Width: 394
Flags: W
HStem: -190 165.011<22.4121 164.135> 633.011 158<12.9824 161.06>
VStem: 164.135 197.98<-27.9893 637.011>
LayerCount: 2
Fore
SplineSet
22.412109375 -190 m 5
 16.1416015625 -24.9892578125 l 5
 164.134765625 -27.9892578125 l 5
 161.059570312 637.010742188 l 5
 10 633.010742188 l 5
 12.982421875 791.010742188 l 5
 364.806640625 791.010742188 l 5
 362.115234375 -190 l 5
 22.412109375 -190 l 5
EndSplineSet
Validated: 1
EndChar

StartChar: less
Encoding: 60 60 91
Width: 450
Flags: W
LayerCount: 2
Fore
SplineSet
289.37109375 341.5 m 5
 435.349609375 271 l 5
 375.349609375 122 l 5
 14.650390625 332 l 5
 375.349609375 561 l 5
 435.349609375 412 l 5
 289.37109375 341.5 l 5
EndSplineSet
Validated: 1
EndChar

StartChar: greater
Encoding: 62 62 92
Width: 450
Flags: W
LayerCount: 2
Fore
SplineSet
160.62890625 341.5 m 1
 14.650390625 412 l 1
 74.650390625 561 l 1
 435.349609375 351 l 1
 74.650390625 122 l 1
 14.650390625 271 l 1
 160.62890625 341.5 l 1
EndSplineSet
Validated: 1
EndChar

StartChar: asciicircum
Encoding: 94 94 93
Width: 392
Flags: W
HStem: 416 332
LayerCount: 2
Fore
SplineSet
194 748 m 29
 397 512 l 29
 269 416 l 29
 195 540 l 29
 119 422 l 29
 -5 496 l 29
 194 748 l 29
EndSplineSet
Validated: 1
EndChar

StartChar: asterisk
Encoding: 42 42 94
Width: 401
Flags: W
LayerCount: 2
Fore
SplineSet
135.857421875 765 m 21
 263.857421875 765 l 13
 255.416992188 633.537109375 l 29
 360.330078125 683.889648438 l 29
 400.1640625 566.8046875 l 29
 289.74609375 530.580078125 l 29
 372.087890625 430.75 l 29
 267.357421875 364.55078125 l 29
 201.891601562 482.959960938 l 29
 136.426757812 364.55078125 l 5
 31.6962890625 430.75 l 29
 114.038085938 530.580078125 l 29
 1 575.254882812 l 29
 46.8681640625 683.889648438 l 29
 148.368164062 633.537109375 l 29
 135.857421875 765 l 21
EndSplineSet
Validated: 1
EndChar

StartChar: sterling
Encoding: 163 163 95
Width: 576
Flags: W
HStem: 0 171.293<259.064 556.539> 245 172<161.273 426> 256 157<14 274.727>
LayerCount: 2
Fore
SplineSet
14 413 m 5xa0
 430 417 l 5
 426 245 l 5xc0
 10 256 l 5
 14 413 l 5xa0
259.064453125 171.29296875 m 5
 560.159179688 172.930664062 l 5
 556.5390625 0 l 5
 23.4296875 0 l 5
 44.9454523104 452.125433501 138.308892123 623.005046291 431.930664062 747.6640625 c 5
 528.798828125 596.354492188 l 5
 358.057748787 525.209540867 278.173342051 399.323518271 259.064453125 171.29296875 c 5
EndSplineSet
Validated: 5
EndChar

StartChar: braceleft
Encoding: 123 123 96
Width: 474
Flags: W
HStem: -199.681 152.12<224.025 445.138> 230.602 140.4<10.0328 138.283> 648.927 152.12<223.985 445.135>
VStem: 73.3398 210.227<-92.4478 57.3471 517.271 637.414> 142.296 190.451<116.656 224.787 374.036 469.395>
LayerCount: 2
Fore
SplineSet
296.986328125 801.046875 m 0xf0
 401.322686383 801.046875 462.4609375 773.2265625 462.4609375 773.2265625 c 5
 443.530273438 631.016601562 l 5
 443.530273438 631.016601562 409.261551041 648.926757812 360.157226562 648.926757812 c 0
 309.657157174 648.926757812 283.56640625 632.704188208 283.56640625 592 c 0xf0
 283.56640625 516.583704902 335.350585938 504.78646623 335.350585938 389.743164062 c 0
 335.350585938 320.680364452 269.905273438 296.681640625 269.905273438 296.681640625 c 1
 269.905273438 296.681640625 332.747070312 266.810162193 332.747070312 204.143554688 c 0xe8
 332.747070312 123.58226423 283.56640625 96.2242617722 283.56640625 11 c 0
 283.56640625 -31.3371495863 309.962522245 -47.560546875 360.157226562 -47.560546875 c 0
 416.627587944 -47.560546875 443.530273438 -29.650390625 443.530273438 -29.650390625 c 5
 462.4609375 -171.860351562 l 5
 462.4609375 -171.860351562 401.322686383 -199.680664062 296.986328125 -199.680664062 c 0
 153.484375 -199.680664062 73.33984375 -145.895507812 73.33984375 -39 c 0xf0
 73.33984375 63.978515625 142.295898438 111.669047538 142.295898438 188.765625 c 0
 142.295898438 218.299804688 123.784557308 230.6015625 93.7431640625 230.6015625 c 0
 51.3464752527 230.6015625 10 228.721679688 10 228.721679688 c 1
 10 375 l 1
 10 375 55.0248106136 371.001953125 98.982421875 371.001953125 c 0
 124.420788466 371.001953125 142.295898438 379.53125 142.295898438 403.12109375 c 0xe8
 142.295898438 470.177232813 73.33984375 499.405606061 73.33984375 622 c 0
 73.33984375 733.947265625 153.484375 801.046875 296.986328125 801.046875 c 0xf0
EndSplineSet
EndChar

StartChar: braceright
Encoding: 125 125 97
Width: 474
Flags: W
HStem: -199.681 152.12<28.8648 250.015> 230.364 140.4<335.717 463.967> 648.927 152.12<28.8622 249.975>
VStem: 138.649 193.055<131.971 227.33 376.58 478.982> 190.434 210.227<-36.0474 84.095 544.019 693.814>
LayerCount: 2
Fore
SplineSet
177.013671875 -199.680664062 m 0xe8
 72.677313617 -199.680664062 11.5390625 -171.860351562 11.5390625 -171.860351562 c 5
 30.4697265625 -29.650390625 l 5
 30.4697265625 -29.650390625 64.7384489587 -47.560546875 113.842773438 -47.560546875 c 0
 164.342842826 -47.560546875 190.43359375 -31.3379772708 190.43359375 9.3662109375 c 0xe8
 190.43359375 84.7825060356 138.649414062 96.5797447079 138.649414062 211.623046875 c 0xf0
 138.649414062 280.685846486 204.094726562 304.684570312 204.094726562 304.684570312 c 1
 204.094726562 304.684570312 141.252929688 334.556048745 141.252929688 397.22265625 c 0
 141.252929688 477.783946708 190.43359375 505.141949165 190.43359375 590.366210938 c 0
 190.43359375 632.703360524 164.037477755 648.926757812 113.842773438 648.926757812 c 0
 57.3724120558 648.926757812 30.4697265625 631.016601562 30.4697265625 631.016601562 c 5
 11.5390625 773.2265625 l 5
 11.5390625 773.2265625 72.677313617 801.046875 177.013671875 801.046875 c 0
 320.515625 801.046875 400.66015625 747.26171875 400.66015625 640.366210938 c 0xe8
 400.66015625 537.387695312 331.704101562 489.697163399 331.704101562 412.600585938 c 0
 331.704101562 383.06640625 350.215442692 370.764648438 380.256835938 370.764648438 c 0
 422.653524747 370.764648438 464 372.64453125 464 372.64453125 c 1
 464 226.366210938 l 1
 464 226.366210938 418.975189387 230.364257812 375.017578125 230.364257812 c 0
 349.579211534 230.364257812 331.704101562 221.834960938 331.704101562 198.245117188 c 0xf0
 331.704101562 131.188978125 400.66015625 101.960604877 400.66015625 -20.6337890625 c 0
 400.66015625 -132.581054688 320.515625 -199.680664062 177.013671875 -199.680664062 c 0xe8
EndSplineSet
EndChar

StartChar: cent
Encoding: 162 162 98
Width: 401
Flags: W
HStem: 0 21G<188 325> 159.934 55.0664<205 306> 524 52.9336<203 304> 719 20G<184 321>
VStem: 20 179<317.137 416.015>
LayerCount: 2
Fore
SplineSet
325 0 m 1
 188 0 l 1
 205 215 l 5
 306 215 l 5
 325 0 l 1
184 739 m 1
 321 739 l 1
 304 524 l 5
 203 524 l 5
 184 739 l 1
20 369.93359375 m 4
 20 496.433681147 112.166566604 576.93359375 257 576.93359375 c 4
 354.483696794 576.93359375 395.916992188 530.782226562 395.916992188 530.782226562 c 5
 339.647460938 408.369140625 l 5
 339.647460938 408.369140625 313.561819439 432.93359375 273 432.93359375 c 4
 227.777500898 432.93359375 199 408.433946118 199 369.93359375 c 4
 199 327.155664062 222.683105469 299.93359375 269 299.93359375 c 4
 342.115137188 299.93359375 379.1484375 325.364257812 379.1484375 325.364257812 c 5
 411.146484375 192.31640625 l 5
 411.146484375 192.31640625 373.572391561 159.93359375 257 159.93359375 c 4
 112.166566604 159.93359375 20 241.599646935 20 369.93359375 c 4
EndSplineSet
Validated: 5
EndChar

StartChar: asciitilde
Encoding: 126 126 99
Width: 524
Flags: W
HStem: 216.96 285.04
LayerCount: 2
Fore
SplineSet
337.321289062 391.168945312 m 1
 431.98046875 484.280273438 l 1
 523.66015625 379 l 1
 342.280273438 216.959960938 l 1
 187.33984375 327.791015625 l 5
 92.6806640625 234.6796875 l 1
 1 339.959960938 l 1
 182.380859375 502 l 1
 337.321289062 391.168945312 l 1
EndSplineSet
Validated: 1
EndChar

StartChar: numbersign
Encoding: 35 35 100
Width: 704
Flags: W
HStem: -10 21G<84 223.639 344 483.639> 178 132<248.364 648> 189 117<24 419.636> 430 132<288 680> 441 117<68 456>
LayerCount: 2
Fore
SplineSet
24 306 m 1xa0
 652 310 l 1
 648 178 l 1xc0
 20 189 l 1
 24 306 l 1xa0
68 558 m 1x88
 684 562 l 1
 680 430 l 1x90
 64 441 l 1
 68 558 l 1x88
344 10 m 5
 487 741.0078125 l 5
 613 721.0078125 l 5
 480 -10 l 5
 344 10 l 5
84 10 m 5
 227 741.0078125 l 5
 353 721.0078125 l 5
 220 -10 l 5
 84 10 l 5
EndSplineSet
Validated: 5
EndChar

StartChar: five.ss02
Encoding: 65537 -1 101
Width: 581
Flags: W
HStem: -10.0664 174<103.48 311.019> 317.992 161.008<224.415 404.235> 550 181.008<239 365>
VStem: 340.917 219<190.952 292.134>
LayerCount: 2
Fore
SplineSet
529.016601562 549.0078125 m 5
 239 550 l 29
 224 471 l 21
 224 471 248.642857143 479 316 479 c 4
 492.46964774 479 559.916992188 386.635747331 559.916992188 246.9921875 c 4
 559.916992188 68.1744133844 445.97265625 -10.06640625 266.916992188 -10.06640625 c 4
 85.2246769868 -10.06640625 8 44.0849609375 8 44.0849609375 c 5
 50 207 l 5
 50 207 126.85984585 163.93359375 233.916992188 163.93359375 c 4
 305.791015625 163.93359375 340.916992188 195.456256431 340.916992188 244.9921875 c 4
 340.916992188 289.603298611 303.700683594 317.9921875 230.916992188 317.9921875 c 4
 164.966339317 317.9921875 125.2578125 288.43359375 125.2578125 288.43359375 c 5
 19 392 l 5
 80 731.0078125 l 5
 365 731.0078125 l 5
 362 798.0078125 l 5
 515.016601562 800.0078125 l 5
 529.016601562 549.0078125 l 5
EndSplineSet
Validated: 1
Substitution2: "'sinf' Scientific Inferiors lookup 0 subtable" five.ss02.inferior
Substitution2: "'sups' Superscript lookup 0 subtable" five.ss02.superior
EndChar

StartChar: yen
Encoding: 165 165 102
Width: 753
Flags: W
HStem: 0 21G<303.83 526.159> 109.712 109<529.294 671> 117.712 100<171 459.563> 245.712 109<448.625 675> 253 93.7119<175 638.09> 253.712 100<175 416>
VStem: 307.623 215.111<0 260.155>
LayerCount: 2
Fore
SplineSet
171 217.711914062 m 1xa2
 412 216.711914062 l 1
 673 218.711914062 l 5
 671 109.711914062 l 5xc2
 402 123 l 1
 169 117.711914062 l 1
 171 217.711914062 l 1xa2
175 353.711914062 m 1x86
 416 346.711914062 l 1x8a
 677 354.711914062 l 5
 675 245.711914062 l 5x92
 406 253 l 1x8a
 173 253.711914062 l 1
 175 353.711914062 l 1x86
EndSplineSet
Refer: 69 89 N 1 0 0 1 0 0 2
Validated: 5
EndChar

StartChar: brokenbar
Encoding: 166 166 103
Width: 256
Flags: W
VStem: 32.3164 191.975<-170 239.44 355.92 788.992>
LayerCount: 2
Fore
SplineSet
223.022460938 355.919921875 m 1
 33.7568359375 355.919921875 l 1
 36.169921875 788.9921875 l 1
 220.899414062 788.9921875 l 1
 223.022460938 355.919921875 l 1
224.291015625 239.440429688 m 1
 226.329101562 -170 l 1
 30 -170 l 1
 32.31640625 239.440429688 l 1
 224.291015625 239.440429688 l 1
EndSplineSet
Validated: 1
EndChar

StartChar: section
Encoding: 167 167 104
Width: 609
Flags: W
LayerCount: 2
Fore
SplineSet
69.890625 440.674804688 m 1
 119.677734375 359 203.677734375 332 326.131835938 288.893554688 c 0
 451.97265625 244.594726562 504.102539062 185.8046875 504.102539062 102.5 c 0
 504.102539062 -108.239257812 175.088867188 -114.163085938 175.088867188 -114.163085938 c 1
 146.552734375 41.9765625 l 1
 146.552734375 41.9765625 280.00390625 52.232421875 280.00390625 94.279296875 c 0
 280.00390625 114.564453125 268.21875 133.001953125 198.58984375 165.873046875 c 0
 118.647460938 203.61328125 20 266 20 337.936523438 c 0
 20 395.051757812 69.890625 440.674804688 69.890625 440.674804688 c 1
539.46484375 230.325195312 m 1
 489.677734375 312 405.677734375 339 283.223632812 382.106445312 c 0
 157.3828125 426.405273438 105.252929688 485.1953125 105.252929688 568.5 c 0
 105.252929688 779.239257812 434.266601562 785.163085938 434.266601562 785.163085938 c 1
 462.802734375 629.0234375 l 1
 462.802734375 629.0234375 329.3515625 618.767578125 329.3515625 576.720703125 c 0
 329.3515625 556.435546875 341.13671875 537.998046875 410.765625 505.126953125 c 0
 490.708007812 467.38671875 589.35546875 405 589.35546875 333.063476562 c 0
 589.35546875 275.948242188 539.46484375 230.325195312 539.46484375 230.325195312 c 1
EndSplineSet
Validated: 1
EndChar

StartChar: currency
Encoding: 164 164 105
Width: 465
Flags: W
HStem: 153.532 138.966<204.894 260.367> 421.688 138.967<204.894 260.367>
VStem: 25.2803 145.989<307.293 407.666> 293.991 145.988<307.293 407.666>
LayerCount: 2
Fore
SplineSet
261.239257812 213.436523438 m 1
 379.889648438 246.325195312 l 1
 464.259765625 114.765625 l 1
 315.580078125 66.1455078125 l 1
 261.239257812 213.436523438 l 1
204.020507812 213.436523438 m 1
 149.6796875 66.1455078125 l 1
 1 114.765625 l 1
 85.3701171875 246.325195312 l 1
 204.020507812 213.436523438 l 1
261.239257812 497.74609375 m 1
 315.580078125 645.036132812 l 1
 464.259765625 596.416015625 l 1
 379.889648438 464.856445312 l 1
 261.239257812 497.74609375 l 1
204.020507812 497.74609375 m 1
 85.3701171875 464.856445312 l 1
 1 596.416015625 l 1
 149.6796875 645.036132812 l 1
 204.020507812 497.74609375 l 1
171.26953125 355.671875 m 0
 171.26953125 314.975585938 197.703125 292.498046875 232.629882812 292.498046875 c 0
 267.559570312 292.498046875 293.991210938 314.975585938 293.991210938 355.671875 c 0
 293.991210938 397.412109375 267.559570312 421.688476562 232.629882812 421.688476562 c 0
 197.703125 421.688476562 171.26953125 397.412109375 171.26953125 355.671875 c 0
25.2802734375 355.590820312 m 0
 25.2802734375 485.24609375 114.739257812 560.655273438 232.629882812 560.655273438 c 0
 350.520507812 560.655273438 439.979492188 485.24609375 439.979492188 355.590820312 c 0
 439.979492188 225.424804688 350.520507812 153.532226562 232.629882812 153.532226562 c 0
 114.739257812 153.532226562 25.2802734375 225.424804688 25.2802734375 355.590820312 c 0
EndSplineSet
Validated: 5
EndChar

StartChar: dieresis
Encoding: 168 168 106
Width: 450
Flags: W
HStem: 559.008 180<57.3847 182.615 267.385 392.615>
VStem: 30 180<586.392 711.623> 240 180<586.392 711.623>
LayerCount: 2
Fore
SplineSet
240 649.0078125 m 4
 240 704.008167614 274.999644886 739.0078125 330 739.0078125 c 4
 385.000355114 739.0078125 420 704.008167614 420 649.0078125 c 4
 420 594.007457386 385.000355114 559.0078125 330 559.0078125 c 4
 274.999644886 559.0078125 240 594.007457386 240 649.0078125 c 4
30 649.0078125 m 0
 30 704.008167614 64.9996448864 739.0078125 120 739.0078125 c 0
 175.000355114 739.0078125 210 704.008167614 210 649.0078125 c 0
 210 594.007457386 175.000355114 559.0078125 120 559.0078125 c 0
 64.9996448864 559.0078125 30 594.007457386 30 649.0078125 c 0
EndSplineSet
Validated: 1
EndChar

StartChar: guillemotleft
Encoding: 171 171 107
Width: 672
Flags: W
LayerCount: 2
Fore
SplineSet
515.720703125 349.5 m 5
 671.69921875 199 l 5
 571.69921875 90 l 5
 311 340 l 5
 571.69921875 599 l 5
 671.69921875 510 l 5
 515.720703125 349.5 l 5
215.720703125 341.5 m 1
 411.69921875 151 l 1
 291.69921875 42 l 1
 -9 332 l 1
 291.69921875 631 l 1
 411.69921875 542 l 1
 215.720703125 341.5 l 1
EndSplineSet
Validated: 1
EndChar

StartChar: guillemotright
Encoding: 187 187 108
Width: 672
Flags: W
LayerCount: 2
Fore
SplineSet
155.978515625 323.5 m 5
 0 474 l 5
 100 583 l 5
 360.69921875 333 l 5
 100 74 l 5
 0 163 l 5
 155.978515625 323.5 l 5
455.978515625 331.5 m 1
 260 522 l 1
 380 631 l 1
 680.69921875 341 l 1
 380 42 l 1
 260 131 l 1
 455.978515625 331.5 l 1
EndSplineSet
Validated: 1
EndChar

StartChar: logicalnot
Encoding: 172 172 109
Width: 497
Flags: W
HStem: 248.966 168.034<14 316> 256 157<14 314.513>
VStem: 312 171<128.824 248.966>
LayerCount: 2
Fore
SplineSet
14 413 m 1x60
 480 417 l 1
 483 125 l 1
 312 128.82421875 l 5
 316 248.965820312 l 1xa0
 10 256 l 1
 14 413 l 1x60
EndSplineSet
Validated: 1
EndChar

StartChar: macron
Encoding: 175 175 111
Width: 330
Flags: W
HStem: 609.008 122<121.273 316> 620.008 107<14 204.727>
VStem: 10 310
LayerCount: 2
Fore
SplineSet
14 727.0078125 m 1x60
 320 731.0078125 l 1
 316 609.0078125 l 1xa0
 10 620.0078125 l 1
 14 727.0078125 l 1x60
EndSplineSet
Validated: 1
EndChar

StartChar: mu
Encoding: 181 181 112
Width: 663
Flags: W
HStem: -9.93164 159<232.003 340.823> 0 150.927<557.849 649.38> 492.002 5G<42.8408 237.17 367.81 555.325>
VStem: 25 192<-45.7069 498.01> 368 187.17<213.068 497.002>
LayerCount: 2
Fore
SplineSet
217 235.068359375 m 0x38
 217 56.272465495 256 -164 256 -164 c 1
 62 -190 l 1
 62 -190 25 62.2344942517 25 208.068359375 c 0
 25 357.54296875 42.8408203125 512.001953125 42.8408203125 512.001953125 c 1
 237.169921875 497.001953125 l 1
 237.169921875 497.001953125 217 353.235351562 217 235.068359375 c 0x38
266 -9.931640625 m 0xb8
 170.45323989 -9.931640625 128.894957983 122 117 213.068359375 c 1
 195 250.068359375 l 1
 202 182 230.48828125 149.068359375 286 149.068359375 c 0
 341.51171875 149.068359375 370 182 377 250.068359375 c 1
 425 213.068359375 l 1
 401 90 381.035500919 -9.931640625 266 -9.931640625 c 0xb8
363.270507812 0 m 1x78
 368 497.001953125 l 1
 555.169921875 497.001953125 l 1
 557.848632812 150.926757812 l 1
 653 152.930664062 l 1
 649.379882812 0 l 1
 363.270507812 0 l 1x78
EndSplineSet
Validated: 5
EndChar

StartChar: acute
Encoding: 180 180 113
Width: 230
Flags: W
HStem: 516.72 223.784
VStem: 1 228.518
LayerCount: 2
Fore
SplineSet
137.840820312 740.50390625 m 29
 229.517578125 636.18359375 l 29
 60.4375 516.719726562 l 29
 1 582.465820312 l 29
 137.840820312 740.50390625 l 29
EndSplineSet
Validated: 1
EndChar

StartChar: plusminus
Encoding: 177 177 114
Width: 450
Flags: W
HStem: 84 156<223 430> 96 141<21 258.333> 200.5 32.5<137.5 306.5> 333 154<21 256.667>
VStem: 154.5 145<336.971 587.25>
LayerCount: 2
Fore
SplineSet
21 487 m 5x18
 223 483 l 5
 432 490 l 5
 430 321 l 5
 222 338 l 5
 18 333 l 5
 21 487 l 5x18
307.5 609.5 m 5
 299.5 431.5 l 5
 306.5 198.5 l 5
 137.5 200.5 l 5x38
 154.5 432.5 l 5
 146.5 612.5 l 5
 307.5 609.5 l 5
21 237 m 5x58
 223 233 l 5x38
 432 240 l 5
 430 84 l 5x98
 18 96 l 5
 21 237 l 5x58
EndSplineSet
Validated: 5
EndChar

StartChar: copyright
Encoding: 169 169 116
Width: 795
Flags: W
HStem: -10.0664 100.877<283.004 518.138> 139.745 123.601<361.832 523.249> 466.181 123<365.885 508.762> 640.64 98.2939<286.076 514.996>
VStem: 20 108<243.344 482.978> 195.229 135.6<295.425 430.36> 674.117 100.883<243.344 482.978>
LayerCount: 2
Fore
SplineSet
195.229492188 362.9453125 m 0
 195.229492188 501.200195312 280.862304688 589.180664062 415.4296875 589.180664062 c 0
 520.234375 589.180664062 564.779296875 543.489257812 564.779296875 543.489257812 c 1
 528.017578125 431.041992188 l 1
 528.017578125 431.041992188 489.586914062 466.180664062 429.829101562 466.180664062 c 0
 369.329101562 466.180664062 330.829101562 426.034179688 330.829101562 362.9453125 c 0
 330.829101562 302.078125 362.903320312 263.345703125 425.62890625 263.345703125 c 0
 505.342773438 263.345703125 545.71875 298.403320312 545.71875 298.403320312 c 1
 573.916992188 177.174804688 l 1
 573.916992188 177.174804688 533.822265625 139.745117188 409.4296875 139.745117188 c 0
 278.529296875 139.745117188 195.229492188 226.544921875 195.229492188 362.9453125 c 0
20 361.93359375 m 4
 20 592.322641811 166.610951939 738.93359375 397 738.93359375 c 4
 628.000476926 738.93359375 775 592.322641811 775 361.93359375 c 4
 775 134.599173678 628.000476926 -10.06640625 397 -10.06640625 c 4
 166.610951939 -10.06640625 20 134.599173678 20 361.93359375 c 4
128 361.93359375 m 4
 128 196.246930926 232.9990625 90.810546875 398 90.810546875 c 4
 566.738726451 90.810546875 674.1171875 196.246930926 674.1171875 361.93359375 c 4
 674.1171875 532.255308483 566.738726451 640.639648438 398 640.639648438 c 4
 232.9990625 640.639648438 128 532.255308483 128 361.93359375 c 4
EndSplineSet
Validated: 1
EndChar

StartChar: registered
Encoding: 174 174 117
Width: 795
Flags: W
HStem: -10.0664 100.877<283.004 518.138> 466.193 117.601<384.609 471.119> 466.193 33.7549<288.355 383.956> 640.64 98.2939<286.076 514.996>
VStem: 20 108<243.344 482.978> 262.918 121.038<140.398 287.059 377.925 499.948> 482.504 125.4<373.93 451.454> 674.117 100.883<243.344 482.978>
LayerCount: 2
Fore
SplineSet
385.956054688 140.3984375 m 5xbf
 259.216796875 140.3984375 l 5
 262.91796875 499.948242188 l 5
 383.956054688 499.948242188 l 5
 385.956054688 140.3984375 l 5xbf
359.072265625 377.924804688 m 5
 359.072265625 377.924804688 378.651367188 365.358398438 423.104492188 365.358398438 c 4
 462.407226562 365.358398438 482.50390625 383.55859375 482.50390625 412.158203125 c 4
 482.50390625 445.180664062 457.686523438 466.193359375 406.904296875 466.193359375 c 4
 288.35546875 466.193359375 212.116210938 423.254882812 212.116210938 423.254882812 c 5
 187.354492188 539.302734375 l 5
 187.354492188 539.302734375 256.953125 583.793945312 420.704101562 583.793945312 c 4xdf
 535.104492188 583.793945312 607.904296875 521.247070312 607.904296875 422.958984375 c 4
 607.904296875 322.450195312 515.3984375 297.022460938 515.3984375 297.022460938 c 5
 654.416015625 183.198242188 l 5
 580.016601562 78.1982421875 l 5
 329.708984375 287.05859375 l 5
 359.072265625 377.924804688 l 5
20 361.93359375 m 4
 20 592.322641811 166.610951939 738.93359375 397 738.93359375 c 4
 628.000476926 738.93359375 775 592.322641811 775 361.93359375 c 4
 775 134.599173678 628.000476926 -10.06640625 397 -10.06640625 c 4
 166.610951939 -10.06640625 20 134.599173678 20 361.93359375 c 4
128 361.93359375 m 4
 128 196.246930926 232.9990625 90.810546875 398 90.810546875 c 4
 566.738726451 90.810546875 674.1171875 196.246930926 674.1171875 361.93359375 c 4
 674.1171875 532.255308483 566.738726451 640.639648438 398 640.639648438 c 4
 232.9990625 640.639648438 128 532.255308483 128 361.93359375 c 4
EndSplineSet
Validated: 5
EndChar

StartChar: degree
Encoding: 176 176 118
Width: 429
Flags: W
HStem: 358.113 135.303<176.091 253.178> 603.593 135.399<175.772 253.502>
VStem: 20 146.384<501.768 596.134> 263.184 146.416<502.1 595.813>
LayerCount: 2
Fore
SplineSet
166.383789062 549.416015625 m 4
 166.383789062 515.194335938 185.086914062 493.416015625 214.479492188 493.416015625 c 4
 244.243164062 493.416015625 263.18359375 515.194335938 263.18359375 549.416015625 c 4
 263.18359375 582.524414062 244.243164062 603.592773438 214.479492188 603.592773438 c 4
 185.086914062 603.592773438 166.383789062 582.524414062 166.383789062 549.416015625 c 4
20 549.512695312 m 4
 20 665.305664062 95.630859375 738.9921875 214.479492188 738.9921875 c 4
 333.719726562 738.9921875 409.599609375 665.305664062 409.599609375 549.512695312 c 4
 409.599609375 432.545898438 333.719726562 358.11328125 214.479492188 358.11328125 c 4
 95.630859375 358.11328125 20 432.545898438 20 549.512695312 c 4
EndSplineSet
Validated: 1
EndChar

StartChar: AE
Encoding: 198 198 119
Width: 960
Flags: W
HStem: 0 171.293<679.064 946.539> 149 157<262 459.091> 278 172<667.455 894> 558.08 172.931<153.62 390 676.104 938.729>
VStem: 542 134.104<310 446>
AnchorPoint: "Anchor-2" 538 0 basechar 0
AnchorPoint: "Anchor-2" 538 0 basechar 0
AnchorPoint: "Anchor-0" 536 731.008 basechar 0
LayerCount: 2
Fore
SplineSet
262 306 m 1x58
 578 310 l 1
 574 138 l 1
 258 149 l 1
 262 306 l 1x58
938.729492188 731.010742188 m 1
 944.61328125 554 l 1
 676.103515625 558 l 1
 679.017578125 171.48046875 l 1
 679.064453125 171.29296875 l 1
 950.159179688 172.930664062 l 1
 946.5390625 0 l 1
 463.4296875 0 l 1x98
 468.151367188 560.083984375 l 1
 150 558.080078125 l 1
 153.620117188 731.010742188 l 1
 938.729492188 731.010742188 l 1
542 446 m 1
 898 450 l 1
 894 278 l 1x38
 538 289 l 1
 542 446 l 1
522 555 m 1
 159.819335938 -15 l 1
 -9.7265625 89 l 1
 390 643 l 1
 522 555 l 1
EndSplineSet
Validated: 1048581
EndChar

StartChar: ae
Encoding: 230 230 120
Width: 878
Flags: W
HStem: -23.9004 145.801<640.839 769.819> -10.0664 124<205.931 313.186> 204 102<508 694> 220.934 116<146.834 316.774> 366.934 140<574.346 674.665> 501 20G<184.438 191>
VStem: 18 174<127.254 208.891> 368 492.619<192.02 375>
AnchorPoint: "Anchor-0" 437 496.019 basechar 0
AnchorPoint: "Anchor-2" 438 0 basechar 0
LayerCount: 2
Fore
SplineSet
327 169.93359375 m 0x53
 327 200.600585938 300.944335938 220.93359375 260 220.93359375 c 0
 218.444335938 220.93359375 192 200.600585938 192 169.93359375 c 0
 192 134.989257812 218.444335938 113.93359375 260 113.93359375 c 0
 300.944335938 113.93359375 327 134.989257812 327 169.93359375 c 0x53
460 133.93359375 m 0
 460 56.7197265625 395.760742188 -10.06640625 226 -10.06640625 c 0
 98.888671875 -10.06640625 18 58.7666015625 18 166.93359375 c 0
 18 270.823242188 91.1103515625 336.93359375 206 336.93359375 c 0
 361.22265625 336.93359375 460 257.989257812 460 133.93359375 c 0
471.848632812 150.926757812 m 1
 330.270507812 151 l 1
 330.270507812 151 335 244.29296875 335 311 c 0
 335 376.921875 149 393 149 393 c 1
 191 521 l 1x07
 191 521 469.169921875 506.93359375 469.169921875 337.001953125 c 0
 469.169921875 266.752929688 471.848632812 150.926757812 471.848632812 150.926757812 c 1
EndSplineSet
Refer: 9 101 N 1 0 0 1 348 0 2
Validated: 1048581
EndChar

StartChar: cedilla
Encoding: 184 184 121
Width: 227
Flags: W
HStem: -248 81<12 96.7557> -99 119<37 100.633>
VStem: 103 104<-157.727 -107.868>
LayerCount: 2
Fore
SplineSet
37 20 m 1
 130 17 l 5
 110 -49 l 1
 110 -49 207 -55.1298701299 207 -136 c 0
 207 -216.730463477 140.680203046 -242 12 -248 c 1
 6 -167 l 1
 74.7818181818 -166.522727273 103 -157.041407437 103 -132 c 0
 103 -109.772727273 81.8386975593 -100.313660655 19 -99 c 1
 13 -52 l 1
 37 20 l 1
EndSplineSet
Validated: 1
EndChar

StartChar: paragraph
Encoding: 182 182 124
Width: 788
Flags: W
HStem: 536 168<422.6 500 664.261 721.517>
VStem: 20 402.6<333.54 535.454> 245 177.6<-173.994 206> 500 176<-173.994 246.723> 500 164.261<110.847 531.564>
LayerCount: 2
Fore
SplineSet
768 679.9921875 m 1xc0
 757 522.9921875 l 5
 757 522.9921875 698.730016744 531 664.260742188 531.564453125 c 1xc8
 676 -173.994140625 l 1
 500 -173.994140625 l 1x90
 500 536 l 1
 422.599609375 536 l 1
 422.599609375 -173.994140625 l 1
 245 -173.994140625 l 1xa8
 249 206 l 1
 249 206 20 210.017094017 20 441 c 0
 20 630 146.896551724 704 388 704 c 0
 634.540880503 704 768 679.9921875 768 679.9921875 c 1xc0
EndSplineSet
Validated: 1
EndChar

StartChar: Eth
Encoding: 208 208 125
Width: 773
Flags: W
HStem: -10.0664 197<330.852 466.41> 265 172<164.909 436> 276 157<14 281.091> 539.992 59.2578<170.25 325.67> 539.992 199<332.557 461.153>
VStem: 123.94 201.729<188.847 599.25> 538.917 215<262.359 463.054>
AnchorPoint: "Anchor-0" 386 731.008 basechar 0
AnchorPoint: "Anchor-2" 399 0 basechar 0
AnchorPoint: "Anchor-2" 399 0 basechar 0
LayerCount: 2
Fore
SplineSet
14 433 m 1xa6
 440 437 l 1
 436 265 l 1xc6
 10 276 l 1
 14 433 l 1xa6
EndSplineSet
Refer: 57 68 N 1 0 0 1 0 0 2
Validated: 1048581
EndChar

StartChar: eth
Encoding: 240 240 126
Width: 565
Flags: W
HStem: -10.0664 164.925<220.912 331.139> 342.009 164.925<222.105 333.811> 510.966 21G<160.923 207.201>
VStem: 20 174.375<184.303 314.108> 360.625 184.375<184.291 477.745>
AnchorPoint: "Anchor-0" 230 755.01 basechar 0
AnchorPoint: "Anchor-2" 277 0 basechar 0
LayerCount: 2
Fore
SplineSet
123.401367188 610.420898438 m 1
 296.440429688 684.025390625 l 1
 450.33984375 774.794921875 l 1
 503.955078125 661.89453125 l 1
 334.1171875 599.879882812 l 1
 170.368164062 510.965820312 l 1
 123.401367188 610.420898438 l 1
194.375 249.858398438 m 0
 194.375 191.802734375 226.516601562 154.858398438 277.025390625 154.858398438 c 0
 328.114257812 154.858398438 360.625 191.802734375 360.625 249.858398438 c 0
 360.625 306.172851562 328.114257812 342.008789062 277.025390625 342.008789062 c 0
 226.516601562 342.008789062 194.375 306.172851562 194.375 249.858398438 c 0
20 249.93359375 m 0
 20 406.989257812 106.333239604 506.93359375 242 506.93359375 c 0
 313.16785012 506.93359375 333.90234375 489.057617188 333.90234375 489.057617188 c 1
 292 630 132.021484375 688.267578125 132.021484375 688.267578125 c 1
 312.770507812 782.510742188 l 1
 312.770507812 782.510742188 545 639.959487241 545 312 c 0
 545 76.5609773511 440.778115916 -10.06640625 277 -10.06640625 c 0
 119.944335938 -10.06640625 20 91.0439453125 20 249.93359375 c 0
EndSplineSet
Validated: 1048581
EndChar

StartChar: multiply
Encoding: 215 215 127
Width: 450
Flags: W
LayerCount: 2
Fore
SplineSet
139.086914062 568.0859375 m 1
 265.802734375 427.094726562 l 5
 429 276.7578125 l 1
 308.084960938 158.670898438 l 1
 162.6953125 345.126953125 l 1
 23.12109375 456.36328125 l 1
 139.086914062 568.0859375 l 1
23.12109375 278.879882812 m 1
 172.942382812 412.864257812 l 1
 311.620117188 571.622070312 l 1
 429.70703125 450.706054688 l 1
 274.91015625 329.7578125 l 5
 129.89453125 167.86328125 l 1
 23.12109375 278.879882812 l 1
EndSplineSet
Validated: 5
EndChar

StartChar: divide
Encoding: 247 247 128
Width: 450
Flags: W
HStem: 138 140<156.526 293.474> 309 104<50 401> 441 140<156.526 293.474>
VStem: 135 180<159.299 256.701 462.299 559.701>
LayerCount: 2
Fore
SplineSet
135 511 m 0
 135 553.778320312 170 581 225 581 c 0
 280 581 315 553.778320312 315 511 c 0
 315 468.221679688 280 441 225 441 c 0
 170 441 135 468.221679688 135 511 c 0
49 413 m 5
 405 417 l 5
 401 305 l 5
 50 309 l 5
 49 413 l 5
135 208 m 0
 135 250.778320312 170 278 225 278 c 0
 280 278 315 250.778320312 315 208 c 0
 315 165.221679688 280 138 225 138 c 0
 170 138 135 165.221679688 135 208 c 0
EndSplineSet
Validated: 1
EndChar

StartChar: Oslash
Encoding: 216 216 129
Width: 765
Flags: W
HStem: -10.0664 205.351<296.681 461.379> 533.583 205.351<298.251 459.688>
VStem: 20 205.487<269.389 456.402> 539.513 205.487<271.083 454.652>
AnchorPoint: "Anchor-0" 377 731.008 basechar 0
AnchorPoint: "Anchor-0" 377 731.008 basechar 0
AnchorPoint: "Anchor-2" 377 0 basechar 0
AnchorPoint: "Anchor-2" 377 0 basechar 0
LayerCount: 2
Fore
SplineSet
705.94921875 721.93359375 m 1
 427.330078125 344.799804688 l 1
 180.37890625 -86 l 1
 59.05078125 -12 l 1
 341.529296875 383.200195312 l 1
 591.220703125 798.93359375 l 1
 705.94921875 721.93359375 l 1
EndSplineSet
Refer: 43 79 N 1 0 0 1 0 0 2
Validated: 1048581
EndChar

StartChar: oslash
Encoding: 248 248 130
Width: 555
Flags: W
HStem: -10.0664 164.925<220.912 333.544> 342.009 164.925<220.912 333.544>
VStem: 20 174.375<184.303 314.108> 360.625 174.375<184.303 314.108>
AnchorPoint: "Anchor-0" 277 496.019 basechar 0
AnchorPoint: "Anchor-2" 278 0 basechar 0
LayerCount: 2
Fore
SplineSet
498.0390625 508.638671875 m 1
 305.294921875 244.815429688 l 1
 132.185546875 -42.2802734375 l 1
 56.9609375 3.599609375 l 1
 252.09765625 268.624023438 l 1
 426.90625 556.37890625 l 1
 498.0390625 508.638671875 l 1
EndSplineSet
Refer: 3 111 N 1 0 0 1 0 0 2
Validated: 1048581
EndChar

StartChar: Thorn
Encoding: 222 222 131
Width: 714
Flags: W
HStem: 0 21G<128.958 345.287> 89.9336 165<346.329 465.994> 432.992 186<344.6 457.941> 560.084 170.927<18.748 133.279>
VStem: 128.958 216.329<0 114.434 285.877 371.428> 495.917 199<284.582 397.461>
LayerCount: 2
Fore
SplineSet
339.857421875 731.010742188 m 1xdc
 345.287109375 0 l 1
 128.958007812 0 l 1
 133.279296875 560.083984375 l 1
 15.1279296875 558.080078125 l 1
 18.748046875 731.010742188 l 1
 339.857421875 731.010742188 l 1xdc
284.196289062 285.876953125 m 1
 284.196289062 285.876953125 316.828125 254.93359375 390.916992188 254.93359375 c 0
 460.392578125 254.93359375 495.916992188 287.989052221 495.916992188 339.93359375 c 0
 495.916992188 396.802930332 455.866787997 432.9921875 373.916992188 432.9921875 c 0
 267.626219326 432.9921875 199.26953125 371.427734375 199.26953125 371.427734375 c 1
 158 564.840820312 l 1
 158 564.840820312 226.276584782 618.9921875 386.916992188 618.9921875 c 0xec
 582.138899125 618.9921875 694.916992188 511.247668348 694.916992188 341.93359375 c 0
 694.916992188 187.932445729 590.694560757 89.93359375 426.916992188 89.93359375 c 0
 319.770507812 89.93359375 255.2578125 114.43359375 255.2578125 114.43359375 c 1
 284.196289062 285.876953125 l 1
EndSplineSet
Validated: 5
EndChar

StartChar: thorn
Encoding: 254 254 132
Width: 682
Flags: W
HStem: -10.0664 160<334.688 448.52> 346.934 160<340.361 449.304> 614.084 150.927<13.6201 108.151>
VStem: 108.151 186.578<-174 614.084> 207 93.1592<76.6553 370.578> 480 182<180.106 315.052>
LayerCount: 2
Fore
SplineSet
305 249.93359375 m 0xe4
 305 188.822265625 338.833007812 149.93359375 392 149.93359375 c 0
 445.778320312 149.93359375 480 188.822265625 480 249.93359375 c 0
 480 309.211914062 445.778320312 346.93359375 392 346.93359375 c 0
 338.833007812 346.93359375 305 309.211914062 305 249.93359375 c 0xe4
207 212.93359375 m 0xec
 207 370.578125 285.69921875 506.93359375 434 506.93359375 c 0
 573.333984375 506.93359375 662 406.989257812 662 249.93359375 c 0
 662 91.0439453125 573.333984375 -10.06640625 434 -10.06640625 c 0
 295.27734375 -10.06640625 207 76.6552734375 207 212.93359375 c 0xec
294.729492188 765.010742188 m 5xf4
 300.159179688 -174 l 1xec
 103.830078125 -174 l 1
 108.151367188 614.083984375 l 5
 10 612.080078125 l 5
 13.6201171875 765.010742188 l 5
 294.729492188 765.010742188 l 5xf4
EndSplineSet
Validated: 5
EndChar

StartChar: kgreenlandic
Encoding: 312 312 133
Width: 630
Flags: W
HStem: 0 21G<103.83 300.159> 356.075 150.927<13.6201 108.151>
VStem: 103.83 196.329<0 356.075>
LayerCount: 2
Fore
SplineSet
471 514 m 25
 595 390 l 25
 449 264 l 25
 620 118 l 25
 486 -17 l 25
 217 264 l 25
 471 514 l 25
294.729492188 507.001953125 m 5
 300.159179688 0 l 1
 103.830078125 0 l 1
 108.151367188 356.075195312 l 5
 10 354.071289062 l 5
 13.6201171875 507.001953125 l 5
 294.729492188 507.001953125 l 5
EndSplineSet
Validated: 5
EndChar

StartChar: Eng
Encoding: 330 330 134
Width: 813
Flags: W
HStem: 0 21G<128.958 345.287> 553.992 185<411.036 605.914> 558.08 172.931<18.748 133.279>
VStem: 128.958 216.329<0 445.992> 556 212<83.8831 521.426>
LayerCount: 2
Back
SplineSet
248 445.9921875 m 1xb8
 273.745077328 629.036889359 354.94395727 738.9921875 523 738.9921875 c 0
 684.425495427 738.9921875 768 647.571907254 768 470.9921875 c 0
 768 231.981121005 750.159179688 -15 750.159179688 -15 c 1
 535.830078125 0 l 1
 535.830078125 0 556 238.203817266 556 433.9921875 c 0
 556 510.161337209 532.798983808 553.9921875 467 553.9921875 c 0
 377.880454674 553.9921875 340.958095792 510.404214874 316 398.9921875 c 5
 248 445.9921875 l 1xb8
339.857421875 731.010742188 m 1
 345.287109375 0 l 1
 128.958007812 0 l 1
 133.279296875 560.083984375 l 1
 15.1279296875 558.080078125 l 1
 18.748046875 731.010742188 l 1
 339.857421875 731.010742188 l 1
EndSplineSet
Fore
SplineSet
248 445.9921875 m 1xd8
 273.745077328 629.036889359 354.94395727 738.9921875 523 738.9921875 c 0
 684.425495427 738.9921875 768 647.571907254 768 470.9921875 c 0
 768 298.992838904 753.4296875 29.9814453125 753.4296875 29.9814453125 c 1
 611.270507812 -197.018554688 l 1
 413.270507812 -100.018554688 l 1
 541.100585938 69.9814453125 l 1
 541.100585938 69.9814453125 556 292.027784151 556 433.9921875 c 0
 556 510.161337209 532.798983808 553.9921875 467 553.9921875 c 0
 377.880454674 553.9921875 340.958095792 510.404214874 316 398.9921875 c 5
 248 445.9921875 l 1xd8
339.857421875 731.010742188 m 1xb8
 345.287109375 0 l 1
 128.958007812 0 l 1
 133.279296875 560.083984375 l 1
 15.1279296875 558.080078125 l 1
 18.748046875 731.010742188 l 1
 339.857421875 731.010742188 l 1xb8
EndSplineSet
EndChar

StartChar: eng
Encoding: 331 331 135
Width: 663
Flags: W
HStem: 0 21G<103.83 300.159> 346.075 150.927<13.6201 108.151> 347.934 159<325.167 498.831>
VStem: 103.83 196.329<0 253.934> 446 192<16.2549 329.64>
LayerCount: 2
Back
SplineSet
188 253.93359375 m 5xb8
 210.936523438 411.989257812 283.27734375 506.93359375 433 506.93359375 c 4
 568.0703125 506.93359375 638 432.569335938 638 288.93359375 c 4
 638 139.458984375 620.159179688 -15 620.159179688 -15 c 5
 425.830078125 0 l 5
 425.830078125 0 446 143.766601562 446 261.93359375 c 4
 446 316.521484375 428.012695312 347.93359375 377 347.93359375 c 4
 311.48828125 347.93359375 284.346679688 311.094726562 266 216.93359375 c 5
 188 253.93359375 l 5xb8
EndSplineSet
Fore
SplineSet
446 261.93359375 m 0xb8
 446 316.521484375 428.012695312 347.93359375 377 347.93359375 c 0
 311.48828125 347.93359375 284.346679688 311.094726562 266 216.93359375 c 1
 188 253.93359375 l 1
 210.936523438 411.989257812 283.27734375 506.93359375 433 506.93359375 c 0
 568.0703125 506.93359375 638 432.569335938 638 288.93359375 c 0
 638 176.24275665 622.159179688 0 622.159179688 0 c 1
 505 -204 l 1
 323 -118 l 1
 427.830078125 18 l 1
 427.830078125 18 446 166.79837988 446 261.93359375 c 0xb8
294.729492188 497.001953125 m 1xd8
 300.159179688 0 l 1
 103.830078125 0 l 1
 108.151367188 346.075195312 l 1
 10 344.071289062 l 1
 13.6201171875 497.001953125 l 1
 294.729492188 497.001953125 l 1xd8
EndSplineSet
Validated: 5
EndChar

StartChar: OE
Encoding: 338 338 136
Width: 1095
Flags: W
HStem: -10.0664 205.351<296.681 461.379> 0 171.293<814.064 1081.54> 278 172<802.455 1029> 289 157<677 899.545> 533.583 205.351<298.251 459.688> 558 173.011<811.104 1073.73>
VStem: 20 205.487<269.389 456.402> 539.513 205.487<271.083 454.652> 673 141.018<289 446>
LayerCount: 2
Fore
SplineSet
677 446 m 5x1280
 1033 450 l 5
 1029 278 l 5x2280
 673 289 l 5
 677 446 l 5x1280
1073.72949219 731.010742188 m 5x4680
 1079.61328125 554 l 5
 811.103515625 558 l 5
 814.017578125 171.48046875 l 5
 814.064453125 171.29296875 l 5
 1085.15917969 172.930664062 l 5
 1081.5390625 0 l 5
 598.4296875 0 l 5
 603.151367188 731.010742188 l 5
 1073.72949219 731.010742188 l 5x4680
EndSplineSet
Refer: 43 79 N 1 0 0 1 0 0 2
Validated: 5
EndChar

StartChar: longs
Encoding: 383 383 138
Width: 391
Flags: W
HStem: 0 21G<93.335 288.637> 346 151<12 187>
VStem: 83.8691 181.533<495.55 597.221> 93.335 195.302<0 351 399.965 476.068> 95.9844 91.0156<351 493>
AnchorPoint: "Anchor-0" 254 765.01 basechar 0
LayerCount: 2
Fore
SplineSet
190 493 m 1xc8
 187 351 l 1
 7 346 l 1
 12 497 l 1
 190 493 l 1xc8
95.984375 412.096679688 m 2
 96.5302734375 497.05859375 83.869140625 518 83.869140625 584 c 0
 83.869140625 713 181.047851562 768.412109375 352.01953125 797.84375 c 1
 377.7265625 628.374023438 l 1
 296 616 265.40234375 594.819335938 265.40234375 555 c 0xe0
 265.40234375 514 283.876953125 476.068359375 284.637695312 399.96484375 c 2
 288.63671875 0 l 1
 93.3349609375 0 l 1xd0
 95.984375 412.096679688 l 2
EndSplineSet
Validated: 1048613
EndChar

StartChar: uni018F
Encoding: 399 399 139
Width: 761
Flags: W
HStem: -9.99805 195<305.019 446.679> 277.994 167<255.162 612.81> 283.566 172.587<255.162 395.921> 545.63 209.048<189.663 360.414>
VStem: 20 720.81<200.958 404.516>
LayerCount: 2
Back
SplineSet
20 361.93359375 m 4
 20 592.358449127 162.722067273 738.9921875 387 738.9921875 c 4
 692.703602516 738.9921875 740.809570312 528.036293548 740.809570312 395.250976562 c 4
 740.809570312 324.478601915 729.916992188 272.840820312 729.916992188 272.840820312 c 5
 148 284 l 5
 137 451 l 5
 505.647460938 445.427734375 l 5
 505.647460938 445.427734375 494.816386769 543.9921875 381 543.9921875 c 4
 300.33283944 543.9921875 249 476.30370791 249 369.93359375 c 4
 249 231.45533579 353.417075805 194.391339376 594.1484375 183.364257812 c 5
 571.146484375 -25.68359375 l 5
 248.292348682 -22.428262906 20 98.1280331654 20 361.93359375 c 4
EndSplineSet
Fore
SplineSet
740.809570312 367.060546875 m 4xb8
 740.809570312 136.635691498 598.08750304 -9.998046875 373.809570312 -9.998046875 c 4
 68.1059677965 -9.998046875 20 200.957847077 20 333.743164062 c 4
 20 404.51553871 30.892578125 456.153320312 30.892578125 456.153320312 c 5xb8
 612.809570312 444.994140625 l 5
 623.809570312 277.994140625 l 5xd8
 255.162109375 283.56640625 l 5
 255.162109375 283.56640625 265.993183544 185.001953125 379.809570312 185.001953125 c 4
 460.476730872 185.001953125 511.809570312 252.690432715 511.809570312 359.060546875 c 4
 511.809570312 497.538804835 407.392494508 534.602801249 166.661132812 545.629882812 c 5
 189.663085938 754.677734375 l 5
 512.51722163 751.422403531 740.809570312 630.86610746 740.809570312 367.060546875 c 4xb8
EndSplineSet
Validated: 5
EndChar

StartChar: ordfeminine
Encoding: 170 170 140
Width: 488
Flags: W
HStem: 262 104<50 451> 402 120<159.497 257.7> 410 113<418 479> 628 120<162.157 257.609>
VStem: 13 137<532.058 616.922> 276 140<599 741> 276 66<493 690>
LayerCount: 2
Fore
SplineSet
49 366 m 5x98
 455 370 l 5
 451 258 l 5
 50 262 l 5
 49 366 l 5x98
268 574 m 4
 268 607 246 628 210 628 c 4
 174 628 150 607 150 574 c 4
 150 542 174 522 210 522 c 4xd8
 246 522 268 542 268 574 c 4
342 599 m 4xda
 342 493 285 402 178 402 c 4
 77 402 13 469 13 574 c 4
 13 680 77 748 178 748 c 4
 278 748 342 690 342 599 c 4xda
273 410 m 5xbc
 276 741 l 5
 416 741 l 5
 418 523 l 5
 481 525 l 5
 479 410 l 5
 273 410 l 5xbc
EndSplineSet
Validated: 5
EndChar

StartChar: ordmasculine
Encoding: 186 186 141
Width: 399
Flags: W
HStem: 262 104<20 375> 403 124<152.771 245.904> 624 124<152.771 245.904>
VStem: 13 131<537.48 614.845> 255 131<537.155 615.167>
LayerCount: 2
Fore
SplineSet
19 366 m 5
 379 370 l 5
 375 258 l 5
 20 262 l 5
 19 366 l 5
144 576 m 0
 144 546 166 527 200 527 c 0
 234 527 255 546 255 576 c 0
 255 605 234 624 200 624 c 0
 166 624 144 605 144 576 c 0
13 577 m 0
 13 682 85 748 199 748 c 0
 313 748 386 682 386 577 c 0
 386 471 313 403 199 403 c 0
 85 403 13 471 13 577 c 0
EndSplineSet
Validated: 1
EndChar

StartChar: germandbls
Encoding: 223 223 142
Width: 688
Flags: W
HStem: 0 21G<93.335 288.637> 346 151<12 187> 610.374 164.47<288.909 419.434>
VStem: 83.8691 185.533<495.281 591.268> 93.335 195.302<0 351 399.965 471.16> 96.0016 90.9984<351 493> 443.509 183.491<475.076 586.099>
LayerCount: 2
Fore
SplineSet
190 493 m 1xe6
 187 351 l 1
 7 346 l 1
 12 497 l 1
 190 493 l 1xe6
95.984375 412.096679688 m 2
 95.9959086754 413.890657241 96.0015537459 415.65609147 96.0015537459 417.394009255 c 0xe6
 96.0015537459 497.963039862 83.869140625 519.393595268 83.869140625 584 c 0
 83.869140625 699.125383604 184.622253137 774.84375 362.01953125 774.84375 c 0
 521.32280429 774.84375 627 692.103245472 627 506.93359375 c 0
 627 452.065860822 601.232421875 379.700195312 601.232421875 379.700195312 c 1
 601.232421875 379.700195312 530.431640625 376 530.431640625 344 c 0
 530.431640625 331.900390625 537.382388187 323.3204705 577.732421875 303.299804688 c 0
 642.576171875 271.125976562 668.2890625 233.5 668.2890625 172 c 0
 668.2890625 -19.900390625 363.0390625 -23.900390625 363.0390625 -23.900390625 c 1
 341.569335938 111.900390625 l 1
 341.569335938 111.900390625 462.4375 117.099609375 462.4375 164 c 0
 462.4375 183.099609375 451.040579252 193.356230531 422.036132812 208.700195312 c 0
 347.750425897 247.998903291 320 278.099609375 320 335 c 0
 320 413.997836806 378.180596977 455.870611384 438.392578125 478.052734375 c 1
 438.392578125 478.052734375 443.508789062 496.000078927 443.508789062 525.416015625 c 0
 443.508789062 573.409382013 417.394432109 610.374023438 354 610.374023438 c 0
 291.984912417 610.374023438 269.40234375 580.468691496 269.40234375 545 c 0xf2
 269.40234375 506.644561465 284.035011964 471.159566898 284.637695312 399.96484375 c 2
 288.63671875 0 l 1
 93.3349609375 0 l 1xea
 95.984375 412.096679688 l 2
EndSplineSet
Validated: 5
EndChar

StartChar: florin
Encoding: 402 402 144
Width: 423
Flags: W
HStem: 346 151<12 222.333> 480 20G<190 402.518>
VStem: 83.8691 181.533<495.527 597.221> 95.9844 188.653<20 476>
LayerCount: 2
Fore
SplineSet
12 497 m 5x80
 190 493 l 5
 403 500 l 5x40
 399 334 l 5
 187 351 l 5
 7 346 l 5
 12 497 l 5x80
288.63671875 0 m 5
 171.477539062 -204 l 5
 -10.5224609375 -118 l 5
 92.3076171875 20 l 5
 95.984375 412.096679688 l 6x10
 96.7805472928 497.002057846 83.869140625 518 83.869140625 584 c 4
 83.869140625 713 181.047851562 768.412109375 352.01953125 797.84375 c 5
 377.7265625 628.374023438 l 5
 296 616 265.40234375 594.819335938 265.40234375 555 c 4x20
 265.40234375 514 284 476 284.637695312 399.96484375 c 6x10
 288.63671875 0 l 5
EndSplineSet
Validated: 37
EndChar

StartChar: circumflex
Encoding: 710 710 145
Width: 332
Flags: W
HStem: 516 232
LayerCount: 2
Fore
SplineSet
164 748 m 25
 337 612 l 25
 249 516 l 25
 165 610 l 29
 79 522 l 25
 -5 606 l 25
 164 748 l 25
EndSplineSet
Validated: 1
EndChar

StartChar: caron
Encoding: 711 711 146
Width: 332
Flags: W
HStem: 516 232
LayerCount: 2
Fore
SplineSet
168 516 m 25
 -5 652 l 25
 83 748 l 25
 167 654 l 29
 253 742 l 25
 337 658 l 25
 168 516 l 25
EndSplineSet
Validated: 1
EndChar

StartChar: tilde
Encoding: 732 732 147
Width: 384
Flags: W
HStem: 523.187 224.475 713.706 20G<282.718 320.166>
LayerCount: 2
Fore
SplineSet
245.321289062 670.379882812 m 1x80
 299.98046875 733.706054688 l 1x40
 383.66015625 650.795898438 l 1
 246.280273438 523.186523438 l 5
 145.33984375 600.467773438 l 1
 84.6806640625 537.140625 l 1
 1 620.051757812 l 1
 143.380859375 747.661132812 l 1
 245.321289062 670.379882812 l 1x80
EndSplineSet
Validated: 1
EndChar

StartChar: zero.superior
Encoding: 8304 8304 148
Width: 421
HStem: 299 118<166.558 254.807> 668 118<166.558 254.807>
VStem: 13 123<450.279 633.454> 285 123<450.279 633.454>
LayerCount: 2
Fore
SplineSet
136 541 m 0
 136 465 165 417 210 417 c 4
 256 417 285 465 285 541 c 0
 285 619 256 668 210 668 c 0
 165 668 136 619 136 541 c 0
13 541 m 0
 13 691 90 786 211 786 c 0
 332 786 408 691 408 541 c 0
 408 393 332 299 211 299 c 0
 90 299 13 393 13 541 c 0
EndSplineSet
Validated: 1
EndChar

StartChar: one.superior
Encoding: 185 185 149
Width: 233
HStem: 683 104<10 86>
VStem: 83 130<300 684>
LayerCount: 2
Fore
SplineSet
210 787 m 1
 213 300 l 1
 83 300 l 1
 86 684 l 5
 7 683 l 5
 10 787 l 5
 210 787 l 1
EndSplineSet
Validated: 1
EndChar

StartChar: two.superior
Encoding: 178 178 150
Width: 383
HStem: 300 116<229 364> 677 116<104.488 206.665>
VStem: 217 137<549.497 666.776>
LayerCount: 2
Fore
SplineSet
229 416 m 5
 370 420 l 1
 364 300 l 1
 20 300 l 1
 13 394 l 1
 13 394 217 501 217 619 c 0
 217 658 195 677 163 677 c 0
 109 677 75 627 75 627 c 1
 14 738 l 1
 14 738 78 793 186 793 c 0
 294 793 354 738 354 644 c 0
 354 505 229 416 229 416 c 5
EndSplineSet
Validated: 1
EndChar

StartChar: three.superior
Encoding: 179 179 151
Width: 372
HStem: 293 104<46.7433 213.503> 499 21G<98.5714 102> 668 119<21 187>
VStem: 227 131<409.187 498.721>
LayerCount: 2
Fore
SplineSet
260 580 m 1
 260 580 358 567 358 444 c 0
 358 345 286 293 171 293 c 0
 55 293 5 313 5 313 c 1
 35 424 l 1
 35 424 86 397 157 397 c 4
 205 397 227 420 227 455 c 4
 227 486 210 506 176 506 c 4
 130 506 102 499 102 499 c 1
 90 569 l 1
 187 672 l 1
 14 668 l 1
 21 787 l 1
 340 787 l 1
 346 693 l 1
 260 580 l 1
EndSplineSet
Validated: 1
EndChar

StartChar: four.superior
Encoding: 8308 8308 152
Width: 472
HStem: 423 103<168 453>
LayerCount: 2
Fore
SplineSet
383 687 m 1
 387 300 l 1
 248 300 l 1
 252 687 l 1
 383 687 l 1
199 804 m 1
 314 732 l 1
 168 526 l 1
 457 529 l 1
 453 419 l 1
 34 423 l 1
 9 499 l 1
 199 804 l 1
EndSplineSet
Validated: 5
EndChar

StartChar: five.superior
Encoding: 8309 8309 153
Width: 372
HStem: 293 104<61.4596 213.042> 500 21G<64.5625 88> 519 97<134.5 266.13> 678 109<166 334>
VStem: 227 131<411.451 504.798>
LayerCount: 2
Fore
SplineSet
340 677 m 5xd8
 166 678 l 29
 157 611 l 21
 157 611 172 616 212 616 c 4
 318 616 358 555 358 463 c 4
 358 345 286 293 171 293 c 4
 55 293 5 325 5 325 c 5
 35 433 l 5
 35 433 86 397 157 397 c 4
 205 397 227 422 227 461 c 4
 227 496 203 519 156 519 c 4xb8
 113 519 88 500 88 500 c 5
 13 564 l 5
 56 787 l 5
 334 787 l 5
 340 677 l 5xd8
EndSplineSet
Validated: 1
EndChar

StartChar: six.superior
Encoding: 8310 8310 154
Width: 385
HStem: 298 104<152.815 238.244> 528 91<156.133 240.832> 683 110<225.908 312.891>
VStem: 13 128<414.411 567.44> 252 120<413.423 517.39>
LayerCount: 2
Fore
SplineSet
312 793 m 5
 326 683 l 5
 162 666 156 605 156 605 c 5
 156 605 177 619 233 619 c 4
 320 619 372 560 372 470 c 4
 372 373 324 298 197 298 c 4
 87 298 13 358 13 504 c 4
 13 643 85 780 312 793 c 5
141 466 m 4
 141 427 163 402 197 402 c 4
 231 402 252 427 252 466 c 4
 252 504 231 528 197 528 c 4
 163 528 141 504 141 466 c 4
EndSplineSet
Validated: 1
EndChar

StartChar: seven.superior
Encoding: 8311 8311 155
Width: 378
HStem: 671 116<133 228>
LayerCount: 2
Fore
SplineSet
5 598 m 5
 25 787 l 1
 351 787 l 1
 385 710 l 1
 231 302 l 5
 87 344 l 5
 228 671 l 1
 133 669 l 1
 124 586 l 5
 5 598 l 5
EndSplineSet
Validated: 1
EndChar

StartChar: eight.superior
Encoding: 8312 8312 156
Width: 383
HStem: 298 102<139.845 234.453> 687 100<148.679 236.329>
VStem: 13 119<409.664 497.34> 29 116<622.984 681.956> 240 111<594.332 681.991> 241 129<406.894 471.491>
LayerCount: 2
Fore
SplineSet
189 400 m 4xe4
 221 400 241 415 241 440 c 4xe4
 241 462 224 475 170 492 c 4
 76 522 29 575 29 652 c 4
 29 735 93 787 194 787 c 4
 290 787 351 740 351 665 c 4
 351 574 264 540 264 540 c 5
 194 573 l 5
 194 573 240 605 240 648 c 4
 240 672 222 687 193 687 c 4
 163 687 145 673 145 651 c 4xd8
 145 631 159 621 204 609 c 4
 325 576 370 532 370 449 c 4
 370 355 304 298 193 298 c 4
 85 298 13 352 13 433 c 4
 13 522 96 551 96 551 c 5
 186 513 l 5
 186 513 132 492 132 446 c 4
 132 418 155 400 189 400 c 4xe4
EndSplineSet
Validated: 5
EndChar

StartChar: nine.superior
Encoding: 8313 8313 157
Width: 385
HStem: 292 110<73.1091 160.747> 466 91<146.321 232.919> 683 104<144.885 230.528>
VStem: 13 120<568.021 671.151> 244 128<514.157 671.015>
LayerCount: 2
Fore
SplineSet
74 292 m 5
 60 402 l 5
 228 419 234 480 234 480 c 5
 234 480 213 466 156 466 c 4
 68 466 13 525 13 615 c 4
 13 712 62 787 189 787 c 4
 299 787 372 727 372 581 c 4
 372 442 301 305 74 292 c 5
244 619 m 4
 244 658 223 683 189 683 c 4
 155 683 133 658 133 619 c 4
 133 581 155 557 189 557 c 4
 223 557 244 581 244 619 c 4
EndSplineSet
Validated: 1
EndChar

StartChar: zero.inferior
Encoding: 8320 8320 158
Width: 421
HStem: -301 118<166.558 254.807> 68 118<166.558 254.807>
VStem: 13 123<-149.721 33.4536> 285 123<-149.721 33.4536>
LayerCount: 2
Fore
SplineSet
136 -59 m 0
 136 -135 165 -183 210 -183 c 4
 256 -183 285 -135 285 -59 c 0
 285 19 256 68 210 68 c 0
 165 68 136 19 136 -59 c 0
13 -59 m 0
 13 91 90 186 211 186 c 0
 332 186 408 91 408 -59 c 0
 408 -207 332 -301 211 -301 c 0
 90 -301 13 -207 13 -59 c 0
EndSplineSet
Validated: 1
EndChar

StartChar: one.inferior
Encoding: 8321 8321 159
Width: 233
HStem: 83 104<10 86>
VStem: 83 130<-300 84>
LayerCount: 2
Fore
SplineSet
210 187 m 1
 213 -300 l 1
 83 -300 l 1
 86 84 l 5
 7 83 l 5
 10 187 l 5
 210 187 l 1
EndSplineSet
Validated: 1
EndChar

StartChar: two.inferior
Encoding: 8322 8322 160
Width: 383
HStem: -300 116<229 364> 77 116<97.7956 206.298>
VStem: 217 137<-50.9494 66.6069>
LayerCount: 2
Fore
SplineSet
229 -184 m 5
 370 -180 l 1
 364 -300 l 1
 20 -300 l 1
 13 -206 l 1
 13 -206 217 -100 217 18 c 0
 217 57 195 77 163 77 c 0
 109 77 75 35 75 35 c 1
 14 139 l 1
 14 139 78 193 186 193 c 0
 294 193 354 138 354 44 c 0
 354 -95 229 -184 229 -184 c 5
EndSplineSet
Validated: 1
EndChar

StartChar: three.inferior
Encoding: 8323 8323 161
Width: 372
HStem: -307 104<29.2059 217.196> 68 119<21 187>
VStem: 227 131<-190.442 -113.965>
LayerCount: 2
Fore
SplineSet
260 -15 m 1
 260 -15 358 -28 358 -153 c 0
 358 -254 286 -307 171 -307 c 0
 55 -307 5 -286 5 -286 c 1
 35 -182 l 1
 35 -182 86 -203 157 -203 c 4
 205 -203 227 -183 227 -152 c 4
 227 -124 210 -106 176 -106 c 4
 130 -106 102 -113 102 -113 c 1
 90 -29 l 1
 187 72 l 1
 14 68 l 1
 21 187 l 1
 340 187 l 1
 346 93 l 1
 260 -15 l 1
EndSplineSet
Validated: 1
EndChar

StartChar: four.inferior
Encoding: 8324 8324 162
Width: 472
HStem: -177 103<168 453>
LayerCount: 2
Fore
SplineSet
383 88 m 1
 387 -300 l 1
 248 -300 l 1
 252 88 l 1
 383 88 l 1
199 205 m 1
 314 133 l 1
 168 -74 l 1
 457 -71 l 1
 453 -181 l 1
 34 -177 l 1
 9 -101 l 1
 199 205 l 1
EndSplineSet
Validated: 5
EndChar

StartChar: five.inferior
Encoding: 8325 8325 163
Width: 372
HStem: -307 104<52.1488 213.042> -81 97<134.5 266.13> 78 109<166 334>
VStem: 227 131<-188.549 -95.2019>
LayerCount: 2
Fore
SplineSet
340 77 m 5
 166 78 l 29
 157 11 l 21
 157 11 172 16 212 16 c 4
 318 16 358 -45 358 -137 c 4
 358 -255 286 -307 171 -307 c 4
 55 -307 5 -275 5 -275 c 5
 35 -173 l 5
 35 -173 86 -203 157 -203 c 4
 205 -203 227 -178 227 -139 c 4
 227 -104 203 -81 156 -81 c 4
 113 -81 88 -105 88 -105 c 5
 13 -36 l 5
 56 187 l 5
 334 187 l 5
 340 77 l 5
EndSplineSet
Validated: 1
EndChar

StartChar: six.inferior
Encoding: 8326 8326 164
Width: 385
HStem: -302 104<152.815 238.244> -72 91<156.133 240.832> 83 110<225.908 312.891>
VStem: 13 128<-185.589 -83.0953> 252 120<-186.577 -82.6097>
LayerCount: 2
Fore
SplineSet
312 193 m 5
 326 83 l 5
 162 66 156 6 156 6 c 5
 156 6 177 19 233 19 c 4
 320 19 372 -40 372 -130 c 4
 372 -227 324 -302 197 -302 c 4
 87 -302 13 -242 13 -96 c 4
 13 43 85 180 312 193 c 5
141 -134 m 4
 141 -173 163 -198 197 -198 c 4
 231 -198 252 -173 252 -134 c 4
 252 -96 231 -72 197 -72 c 4
 163 -72 141 -96 141 -134 c 4
EndSplineSet
Validated: 1
EndChar

StartChar: seven.inferior
Encoding: 8327 8327 165
Width: 378
HStem: 71 116<133 228>
LayerCount: 2
Fore
SplineSet
5 -8 m 5
 25 187 l 1
 351 187 l 1
 385 110 l 1
 231 -310 l 5
 87 -267 l 5
 228 71 l 1
 133 69 l 1
 124 -21 l 5
 5 -8 l 5
EndSplineSet
Validated: 1
EndChar

StartChar: eight.inferior
Encoding: 8328 8328 166
Width: 383
HStem: -302 102<139.845 234.453> 87 100<148.679 236.536>
VStem: 13 119<-190.403 -112.803> 29 116<22.9838 81.9558> 240 111<-4.78859 81.6367> 241 129<-193.106 -128.509>
LayerCount: 2
Fore
SplineSet
189 -200 m 4xe4
 221 -200 241 -185 241 -160 c 4xe4
 241 -138 224 -125 170 -108 c 4
 76 -78 29 -25 29 52 c 4
 29 135 93 187 194 187 c 4
 290 187 351 139 351 64 c 4
 351 -28 264 -61 264 -61 c 5
 194 -23 l 5
 194 -23 240 8 240 49 c 4
 240 73 222 87 193 87 c 4
 163 87 145 73 145 51 c 4xd8
 145 31 159 21 204 9 c 4
 325 -24 370 -68 370 -151 c 4
 370 -245 304 -302 193 -302 c 4
 85 -302 13 -248 13 -167 c 4
 13 -78 96 -49 96 -49 c 5
 186 -92 l 5
 186 -92 132 -112 132 -156 c 4
 132 -182 155 -200 189 -200 c 4xe4
EndSplineSet
Validated: 5
EndChar

StartChar: nine.inferior
Encoding: 8329 8329 167
Width: 385
HStem: -308 110<73.1091 160.747> -134 91<146.321 232.919> 83 104<144.885 230.528>
VStem: 13 120<-31.9793 71.1508> 244 128<-32.3157 71.0151>
LayerCount: 2
Fore
SplineSet
74 -308 m 5
 60 -198 l 5
 228 -181 234 -121 234 -121 c 5
 234 -121 213 -134 156 -134 c 4
 68 -134 13 -75 13 15 c 4
 13 112 62 187 189 187 c 4
 299 187 372 127 372 -19 c 4
 372 -158 301 -295 74 -308 c 5
244 19 m 4
 244 58 223 83 189 83 c 4
 155 83 133 58 133 19 c 4
 133 -19 155 -43 189 -43 c 4
 223 -43 244 -19 244 19 c 4
EndSplineSet
Validated: 1
EndChar

StartChar: fraction
Encoding: 8260 8260 168
Width: 238
Flags: W
LayerCount: 2
Fore
SplineSet
422.329101562 671.93359375 m 1
 183.708984375 344.799804688 l 1
 -23.2412109375 -26 l 1
 -144.5703125 48 l 1
 97.908203125 383.200195312 l 1
 307.599609375 748.93359375 l 1
 422.329101562 671.93359375 l 1
EndSplineSet
Validated: 1
EndChar

StartChar: perthousand
Encoding: 8240 8240 169
Width: 1159
Flags: W
HStem: -10 135.303<636.485 712.537 905.798 981.809> 235.479 135.399<636.165 712.86 905.479 984.613> 358.113 135.303<175.612 252.699> 603.593 135.399<175.292 253.022>
VStem: 19.5205 146.384<501.768 596.134> 262.704 146.416<502.1 595.813> 479.521 146.384<133.655 228.021> 779.521 59.5996<64.4329 297.192> 992.704 146.416<133.987 227.7>
LayerCount: 2
Fore
SplineSet
895.904296875 181.302734375 m 0xdf80
 895.904296875 147.081054688 914.607421875 125.302734375 944 125.302734375 c 0
 973.763671875 125.302734375 992.704101562 147.081054688 992.704101562 181.302734375 c 0
 992.704101562 214.411132812 973.763671875 235.479492188 944 235.479492188 c 0
 914.607421875 235.479492188 895.904296875 214.411132812 895.904296875 181.302734375 c 0xdf80
779.520507812 181.399414062 m 0
 779.520507812 297.192382812 847.373594989 370.87890625 954 370.87890625 c 0
 1067.12911492 370.87890625 1139.12011719 297.192382812 1139.12011719 181.399414062 c 0
 1139.12011719 64.4326171875 1067.12911492 -10 954 -10 c 0
 847.373594989 -10 779.520507812 64.4326171875 779.520507812 181.399414062 c 0
625.904296875 181.302734375 m 0
 625.904296875 147.080592105 644.607826248 125.302734375 674 125.302734375 c 0
 703.763657131 125.302734375 722.704101562 147.080592105 722.704101562 181.302734375 c 0
 722.704101562 214.41091252 703.763657131 235.479492188 674 235.479492188 c 0
 644.607826248 235.479492188 625.904296875 214.41091252 625.904296875 181.302734375 c 0
479.520507812 181.399414062 m 0
 479.520507812 297.192737064 551.26224047 370.87890625 664 370.87890625 c 0
 771.018033517 370.87890625 839.120117188 297.192737064 839.120117188 181.399414062 c 0
 839.120117188 64.4329057751 771.018033517 -10 664 -10 c 0
 551.26224047 -10 479.520507812 64.4329057749 479.520507812 181.399414062 c 0
165.904296875 549.416015625 m 0
 165.904296875 515.193873355 184.607826248 493.416015625 214 493.416015625 c 0xbf80
 243.763657131 493.416015625 262.704101562 515.193873355 262.704101562 549.416015625 c 0
 262.704101562 582.52419377 243.763657131 603.592773438 214 603.592773438 c 0
 184.607826248 603.592773438 165.904296875 582.52419377 165.904296875 549.416015625 c 0
19.5205078125 549.512695312 m 0
 19.5205078125 665.306018314 95.1511135263 738.9921875 214 738.9921875 c 0
 333.240276768 738.9921875 409.120117188 665.306018314 409.120117188 549.512695312 c 0
 409.120117188 432.546187025 333.240276768 358.11328125 214 358.11328125 c 0
 95.1511135263 358.11328125 19.5205078125 432.546187025 19.5205078125 549.512695312 c 0
EndSplineSet
Refer: 168 8260 S 1 0 0 1 304 0 2
Validated: 5
EndChar

StartChar: uni2031
Encoding: 8241 8241 170
Width: 1439
Flags: W
HStem: -10 135.303<636.485 712.537 905.258 983.061 1185.8 1261.81> 235.479 135.399<636.165 712.86 904.939 983.384 1185.48 1264.61> 358.113 135.303<175.612 252.699> 603.593 135.399<175.292 253.022>
VStem: 19.5205 146.384<501.768 596.134> 262.704 146.416<502.1 595.813> 479.521 146.384<133.655 228.021> 769.521 69.5996<64.4329 297.192> 1059.52 59.5996<64.4326 297.192> 1272.7 146.416<133.987 227.7>
LayerCount: 2
Fore
SplineSet
1175.90429688 181.302734375 m 0xdfc0
 1175.90429688 147.081054688 1194.60742188 125.302734375 1224 125.302734375 c 0
 1253.76367188 125.302734375 1272.70410156 147.081054688 1272.70410156 181.302734375 c 0
 1272.70410156 214.411132812 1253.76367188 235.479492188 1224 235.479492188 c 0
 1194.60742188 235.479492188 1175.90429688 214.411132812 1175.90429688 181.302734375 c 0xdfc0
1059.52050781 181.399414062 m 0
 1059.52050781 297.192382812 1127.37359499 370.87890625 1234 370.87890625 c 0
 1347.12911492 370.87890625 1419.12011719 297.192382812 1419.12011719 181.399414062 c 0
 1419.12011719 64.4326171875 1347.12911492 -10 1234 -10 c 0
 1127.37359499 -10 1059.52050781 64.4326171875 1059.52050781 181.399414062 c 0
895.904296875 181.302734375 m 0
 895.904296875 147.081054688 914.607421875 125.302734375 944 125.302734375 c 0
 973.763671875 125.302734375 992.704101562 147.081054688 992.704101562 181.302734375 c 0
 992.704101562 214.411132812 973.763671875 235.479492188 944 235.479492188 c 0
 914.607421875 235.479492188 895.904296875 214.411132812 895.904296875 181.302734375 c 0
769.520507812 181.399414062 m 0
 769.520507812 297.192382812 837.373594989 370.87890625 944 370.87890625 c 0
 1051.01799547 370.87890625 1119.12011719 297.192382812 1119.12011719 181.399414062 c 0
 1119.12011719 64.4326171875 1051.01799547 -10 944 -10 c 0
 837.373594989 -10 769.520507812 64.4326171875 769.520507812 181.399414062 c 0
625.904296875 181.302734375 m 0
 625.904296875 147.080592105 644.607826248 125.302734375 674 125.302734375 c 0
 703.763657131 125.302734375 722.704101562 147.080592105 722.704101562 181.302734375 c 0
 722.704101562 214.41091252 703.763657131 235.479492188 674 235.479492188 c 0
 644.607826248 235.479492188 625.904296875 214.41091252 625.904296875 181.302734375 c 0
479.520507812 181.399414062 m 0
 479.520507812 297.192737064 551.26224047 370.87890625 664 370.87890625 c 0
 771.018033517 370.87890625 839.120117188 297.192737064 839.120117188 181.399414062 c 0
 839.120117188 64.4329057751 771.018033517 -10 664 -10 c 0
 551.26224047 -10 479.520507812 64.4329057749 479.520507812 181.399414062 c 0
165.904296875 549.416015625 m 0
 165.904296875 515.193873355 184.607826248 493.416015625 214 493.416015625 c 0xbfc0
 243.763657131 493.416015625 262.704101562 515.193873355 262.704101562 549.416015625 c 0
 262.704101562 582.52419377 243.763657131 603.592773438 214 603.592773438 c 0
 184.607826248 603.592773438 165.904296875 582.52419377 165.904296875 549.416015625 c 0
19.5205078125 549.512695312 m 0
 19.5205078125 665.306018314 95.1511135263 738.9921875 214 738.9921875 c 0
 333.240276768 738.9921875 409.120117188 665.306018314 409.120117188 549.512695312 c 0
 409.120117188 432.546187025 333.240276768 358.11328125 214 358.11328125 c 0
 95.1511135263 358.11328125 19.5205078125 432.546187025 19.5205078125 549.512695312 c 0
EndSplineSet
Refer: 168 8260 S 1 0 0 1 304 0 2
Validated: 5
EndChar

StartChar: Lslash
Encoding: 321 321 171
Width: 620
Flags: W
HStem: 0 171.293<339.065 606.539> 495 20G<405.247 448.714> 560.084 170.927<13.6201 128.151>
VStem: 123.43 215.635<171.293 560.084>
LayerCount: 2
Fore
SplineSet
443 515 m 13
 477 396 l 21
 259 320.293945312 l 1
 49 207 l 9
 11 329 l 17
 233 403.75 l 1
 443 515 l 13
EndSplineSet
Refer: 44 76 N 1 0 0 1 0 0 2
Validated: 5
EndChar

StartChar: lslash
Encoding: 322 322 172
Width: 407
Flags: W
HStem: 0 151.397<299.129 393.539> 604.075 150.927<13.6201 108.151>
VStem: 103.83 195.299<151.397 604.075>
LayerCount: 2
Fore
SplineSet
363 555 m 13
 397 436 l 21
 219 360.293945312 l 1
 49 257 l 9
 11 379 l 17
 193 443.75 l 1
 363 555 l 13
EndSplineSet
Refer: 8 108 N 1 0 0 1 0 0 2
Validated: 5
EndChar

StartChar: quoteright
Encoding: 8217 8217 173
Width: 229
Flags: W
HStem: 445 320
VStem: 1 227
LayerCount: 2
Fore
SplineSet
1 723 m 9
 189 765 l 1
 228 626 l 1
 130 445 l 1
 12 487 l 21
 69 596 l 1
 1 723 l 9
EndSplineSet
Validated: 1
EndChar

StartChar: uni2120
Encoding: 8480 8480 179
Width: 549
Flags: W
HStem: 462.049 303.309 518 21G<373.292 397.599>
VStem: 8 96.9072<651.344 691.32> 97.6484 89.2861<547.235 591.268>
LayerCount: 2
Fore
SplineSet
150.276367188 765.357421875 m 1xa0
 162.616210938 697.836914062 l 1
 162.616210938 697.836914062 104.907226562 693.40234375 104.907226562 675.219726562 c 0xa0
 104.907226562 666.448242188 110.00390625 658.474609375 140.11328125 644.259765625 c 0
 174.68359375 627.940429688 186.934570312 604.95703125 186.934570312 570.41796875 c 0
 186.934570312 464.396484375 29.77734375 462.048828125 29.77734375 462.048828125 c 1
 18.888671875 536.672851562 l 1
 18.888671875 536.672851562 97.6484375 539.849609375 97.6484375 568.400390625 c 0x90
 97.6484375 576.770507812 93.2763671875 583.016601562 76.9609375 591.0625 c 0
 25.2177734375 616.577148438 8 635.641601562 8 671.665039062 c 0
 8 762.794921875 150.276367188 765.357421875 150.276367188 765.357421875 c 1xa0
246.327148438 688.084960938 m 1
 200 685.631835938 l 1
 198.248046875 762.404296875 l 1
 343.091796875 766.404296875 l 1
 388 664.799804688 l 1
 443.599609375 766 l 5
 529.200195312 762.400390625 l 5
 552.799804688 472 l 5
 464 466.400390625 l 5
 452.400390625 626.400390625 l 5
 385.200195312 518 l 1x40
 322.799804688 622.799804688 l 1
 309.200195312 467.599609375 l 1
 228.799804688 473.599609375 l 1
 246.327148438 688.084960938 l 1
EndSplineSet
Validated: 1
EndChar

StartChar: trademark
Encoding: 8482 8482 180
Width: 591
Flags: W
HStem: 518 21G<414.492 438.799> 693.2 12.833<74.4609 157.642> 693.232 69.1719<5.44824 74.4609 157.642 227.492>
VStem: 72.7324 86.5312<470 705.2>
LayerCount: 2
Fore
SplineSet
157.641601562 705.200195312 m 5xd0
 159.263671875 470 l 5
 72.732421875 470 l 5
 74.4609375 706.033203125 l 5
 157.641601562 705.200195312 l 5xd0
116.841796875 693.200195312 m 5
 4 693.232421875 l 1
 5.4482421875 762.404296875 l 1
 227.4921875 762.404296875 l 1xb0
 229.845703125 691.599609375 l 1
 116.841796875 693.200195312 l 5
287.52734375 688.084960938 m 1
 241.200195312 685.631835938 l 1
 239.448242188 762.404296875 l 1
 384.291992188 766.404296875 l 1
 429.200195312 664.799804688 l 1
 484.799804688 766 l 5
 570.400390625 762.400390625 l 5
 594 472 l 5
 505.200195312 466.400390625 l 5
 493.599609375 626.400390625 l 5
 426.400390625 518 l 1
 364 622.799804688 l 1
 350.400390625 467.599609375 l 1
 270 473.599609375 l 1
 287.52734375 688.084960938 l 1
EndSplineSet
Validated: 5
EndChar

StartChar: uni2117
Encoding: 8471 8471 181
Width: 795
Flags: W
HStem: -10.0664 100.877<283.004 518.138> 255 107.358<385.969 472.647> 466.193 117.601<384.609 471.119> 466.193 33.7549<288.355 383.956> 640.64 98.2939<286.076 514.996>
VStem: 20 108<243.344 482.978> 262.918 121.038<140.398 274.059 374.925 499.948> 482.504 125.4<372.196 451.454> 674.117 100.883<243.344 482.978>
LayerCount: 2
Fore
SplineSet
385.956054688 140.3984375 m 1xdf80
 259.216796875 140.3984375 l 1
 262.91796875 499.948242188 l 1
 383.956054688 499.948242188 l 1
 385.956054688 140.3984375 l 1xdf80
329.708984375 274.05859375 m 5
 359.072265625 374.924804688 l 5
 359.072265625 374.924804688 378.651367188 362.358398438 423.104492188 362.358398438 c 4
 462.407226562 362.358398438 482.50390625 381.725277805 482.50390625 412.158203125 c 0
 482.50390625 445.180664062 457.686523438 466.193359375 406.904296875 466.193359375 c 0
 288.35546875 466.193359375 212.116210938 423.254882812 212.116210938 423.254882812 c 1
 187.354492188 539.302734375 l 1
 187.354492188 539.302734375 256.953125 583.793945312 420.704101562 583.793945312 c 0xef80
 535.104492188 583.793945312 607.904296875 521.247070312 607.904296875 422.958984375 c 0
 607.904296875 318.94969687 544 255 437 255 c 4
 361.983704908 255 329.708984375 274.05859375 329.708984375 274.05859375 c 5
20 361.93359375 m 0
 20 592.322641811 166.610951939 738.93359375 397 738.93359375 c 0
 628.000476926 738.93359375 775 592.322641811 775 361.93359375 c 0
 775 134.599173678 628.000476926 -10.06640625 397 -10.06640625 c 0
 166.610951939 -10.06640625 20 134.599173678 20 361.93359375 c 0
128 361.93359375 m 0
 128 196.246930926 232.9990625 90.810546875 398 90.810546875 c 0
 566.738726451 90.810546875 674.1171875 196.246930926 674.1171875 361.93359375 c 0
 674.1171875 532.255308483 566.738726451 640.639648438 398 640.639648438 c 0
 232.9990625 640.639648438 128 532.255308483 128 361.93359375 c 0
EndSplineSet
Validated: 5
EndChar

StartChar: lira
Encoding: 8356 8356 182
Width: 576
Flags: W
HStem: 0 171.293<259.064 556.539> 218 109<254.044 428> 226 100<14 351.33> 358 109<269.935 438> 366 100<24 374.22>
LayerCount: 2
Back
SplineSet
14 326 m 1
 430 327 l 1
 428 218 l 1
 12 226 l 1
 14 326 l 1
24 466 m 1
 440 467 l 1
 438 358 l 1
 22 366 l 1
 24 466 l 1
EndSplineSet
Fore
SplineSet
14 326 m 1xa0
 208 320.466796875 l 1
 430 327 l 1
 428 218 l 1xc0
 190 227.577148438 l 1
 12 226 l 1
 14 326 l 1xa0
24 466 m 5x88
 225 461 l 5
 440 467 l 5
 438 358 l 5x90
 215 367.288085938 l 5
 22 366 l 5
 24 466 l 5x88
259.064453125 171.29296875 m 1
 560.159179688 172.930664062 l 1
 556.5390625 0 l 1
 23.4296875 0 l 1
 44.9454523104 452.125433501 138.308892123 623.005046291 431.930664062 747.6640625 c 1
 528.798828125 596.354492188 l 1
 358.057748787 525.209540867 278.173342051 399.323518271 259.064453125 171.29296875 c 1
EndSplineSet
Validated: 5
EndChar

StartChar: Euro
Encoding: 8364 8364 183
Width: 541
Flags: W
HStem: 246 100<12 252.122> 378 109<369.91 462.978>
LayerCount: 2
Fore
SplineSet
12 346 m 1
 238 339.5078125 l 1
 456.83984375 347 l 1
 436.7734375 238 l 1
 232 252.213867188 l 5
 10 246 l 1
 12 346 l 1
15 486 m 1
 248 472.45703125 l 1
 483.043945312 487 l 1
 462.977539062 378 l 1
 240 387.963867188 l 1
 13 386 l 1
 15 486 l 1
488 -33.06640625 m 1
 220.944259941 -11.8298471102 51 120.543550932 51 361.93359375 c 0
 51 598.46956446 224.833144608 728.46176596 498 748.9921875 c 1
 522 553.9921875 l 1
 372.276861082 531.667398071 277 479.303808586 277 361.93359375 c 0
 277 240.322050781 357.522558594 186.909497364 515 162.93359375 c 1
 488 -33.06640625 l 1
EndSplineSet
Validated: 5
EndChar

StartChar: uni20B5
Encoding: 8373 8373 184
Width: 461
Flags: W
HStem: 0 21G<225.82 362.82> 91.9014 123.099<242.82 343.82> 524 95.457<240.82 341.82> 719 20G<221.82 358.82>
VStem: 20 203.22<291.265 424.607>
LayerCount: 2
Fore
SplineSet
362.8203125 0 m 1
 225.8203125 0 l 1
 242.8203125 215 l 1
 343.8203125 215 l 1
 362.8203125 0 l 1
221.8203125 739 m 1
 358.8203125 739 l 1
 341.8203125 524 l 1
 240.8203125 524 l 1
 221.8203125 739 l 1
20 357.576171875 m 0
 20 517.614257812 126.452148438 619.45703125 293.735351562 619.45703125 c 0
 406.329101562 619.45703125 454.184570312 569.0703125 454.184570312 569.0703125 c 1
 405.112304688 429.358398438 l 1
 405.112304688 429.358398438 371.970703125 458.0390625 320.436523438 458.0390625 c 0
 261.025390625 458.0390625 223.219726562 421.354492188 223.219726562 363.708007812 c 0
 223.219726562 297.145507812 257.775390625 254.787109375 325.35546875 254.787109375 c 0
 400.325195312 254.787109375 438.297851562 286.900390625 438.297851562 286.900390625 c 1
 471.774414062 132.869140625 l 1
 471.774414062 132.869140625 428.375976562 91.9013671875 293.735351562 91.9013671875 c 0
 126.452148438 91.9013671875 20 195.21875 20 357.576171875 c 0
EndSplineSet
Validated: 5
EndChar

StartChar: uni20B2
Encoding: 8370 8370 185
Width: 512
Flags: W
HStem: 0 21G<195.82 332.82> 91.9014 123.099<212.82 313.82> 248.989 122.445<439.916 500.564> 524 95.457<210.82 311.82> 719 20G<191.82 328.82>
VStem: -10 203.22<284.251 424.608> 298.557 203.564<256.849 371.435> 313.82 126.096<135.789 215>
LayerCount: 2
Fore
SplineSet
191.8203125 739 m 1xfc
 328.8203125 739 l 1
 311.8203125 524 l 5
 210.8203125 524 l 5
 191.8203125 739 l 1xfc
332.8203125 0 m 1
 195.8203125 0 l 1
 212.8203125 215 l 5
 313.8203125 215 l 5xfd
 332.8203125 0 l 1
-10 357.576171875 m 4
 -10 517.614257812 96.4521484375 619.45703125 263.735351562 619.45703125 c 4
 376.329101562 619.45703125 424.184570312 569.0703125 424.184570312 569.0703125 c 5
 375.112304688 429.358398438 l 5
 375.112304688 429.358398438 341.970737145 458.0390625 290.436523438 458.0390625 c 4
 231.025663441 458.0390625 193.219726562 421.354817413 193.219726562 363.708007812 c 4
 193.219726562 297.145460845 221.008644775 254.787109375 275.35546875 254.787109375 c 4
 291 254.787109375 298.556640625 256.848632812 298.556640625 256.848632812 c 5
 299.6875 371.434570312 l 5
 500.564453125 371.434570312 l 5
 502.12109375 248.02734375 l 5xfe
 439.916015625 248.989257812 l 5
 441.774414062 132.869140625 l 5
 441.774414062 132.869140625 398.375976562 91.9013671875 263.735351562 91.9013671875 c 4
 96.4521484375 91.9013671875 -10 195.21875 -10 357.576171875 c 4
EndSplineSet
Validated: 5
EndChar

StartChar: uni20AD
Encoding: 8365 8365 186
Width: 707
Flags: W
HStem: 0 21G<123.83 340.159> 302 124<24 233.668> 312.186 104.282<118.332 460.102> 560.084 170.927<13.6201 128.151>
VStem: 123.83 216.329<0 312.186 416.467 560.084>
LayerCount: 2
Fore
SplineSet
24 426 m 5xd8
 326 416.46749226 l 5
 670 427 l 5
 668 294 l 5
 330 312.185758514 l 5xb8
 22 302 l 5
 24 426 l 5xd8
334.729492188 731.010742188 m 1
 340.159179688 0 l 1
 123.830078125 0 l 1
 128.151367188 560.083984375 l 1
 10 558.080078125 l 1
 13.6201171875 731.010742188 l 1
 334.729492188 731.010742188 l 1
478 745.0078125 m 1
 672 641.0078125 l 1
 466 364 l 1
 697 88 l 1
 493 -27 l 1
 264 364 l 1
 478 745.0078125 l 1
EndSplineSet
Validated: 5
EndChar

StartChar: uni20AE
Encoding: 8366 8366 187
Width: 550
Flags: W
HStem: 0 21G<161.83 378.159> 482.5 20G<410.224 469.302> 558 30<166.151 374.104> 558.08 172.931<13.6201 166.151 374.104 528.729>
VStem: 161.83 216.329<0 262.835 334.912 588>
LayerCount: 2
Fore
SplineSet
53.3798828125 202.71484375 m 5xc8
 268.721679688 262.834960938 l 5
 477.76953125 341.35546875 l 5
 512.74609375 221.365234375 l 5
 292.53515625 173.768554688 l 5
 83.9306640625 97.056640625 l 5
 53.3798828125 202.71484375 l 5xc8
39.08203125 363.859375 m 5
 254.423828125 423.98046875 l 5
 463.471679688 502.5 l 5
 498.448242188 382.509765625 l 5
 278.237304688 334.912109375 l 5
 69.6328125 258.200195312 l 5
 39.08203125 363.859375 l 5
374.103515625 588 m 1xe8
 378.159179688 0 l 1
 161.830078125 0 l 1
 166.151367188 590.083984375 l 1
 374.103515625 588 l 1xe8
272.103515625 558 m 1
 10 558.080078125 l 1
 13.6201171875 731.010742188 l 1xd8
 528.729492188 731.010742188 l 1
 534.61328125 554 l 1
 272.103515625 558 l 1
EndSplineSet
Validated: 5
EndChar

StartChar: uni20B1
Encoding: 8369 8369 188
Width: 732
Flags: W
HStem: 0 21G<97.7705 309.003> 169.934 175<310.341 413.666> 286 100<22 224.906> 296 94.4668<474 663.712> 380.467 36.8213<188 253> 390.467 36.8213<585 686.743> 426 100<484 681.389> 511 31.9922<118.574 276> 542.992 196<8.96577 404.495> 542.992 56.2578<128.508 305.67>
VStem: 97.7705 211.232<0 194.434 287.577 365.877 380.467 417.288 511 599.25> 482 162.917<426 526>
LayerCount: 2
Fore
SplineSet
474 396 m 5x9030
 578 390.466796875 l 5
 715 397 l 5
 713 288 l 5
 560 297.577148438 l 5
 472 296 l 5
 474 396 l 5x9030
484 526 m 5x8230
 595 521 l 5
 722 527 l 5
 720 418 l 5
 585 427.288085938 l 5x8430
 482 426 l 5
 484 526 l 5x8230
22 386 m 5xa030
 188 380.466796875 l 5x8830
 253 387 l 5
 251 278 l 5
 170 287.577148438 l 5
 20 286 l 5
 22 386 l 5xa030
24 516 m 5
 205 511 l 5x8930
 276 517 l 5
 274 408 l 5
 195 417.288085938 l 5
 22 416 l 5
 24 516 l 5
309.002929688 0 m 1
 97.7705078125 0 l 1
 103.940429688 599.25 l 1
 305.669921875 599.25 l 1x8070
 309.002929688 0 l 1
224.196289062 365.876953125 m 1
 224.196289062 365.876953125 259.885810621 344.93359375 340.916992188 344.93359375 c 0
 410.392578125 344.93359375 445.916992188 381.877929688 445.916992188 439.93359375 c 0
 445.916992188 502.9140625 402.583984375 542.9921875 313.916992188 542.9921875 c 0
 128.507975077 542.9921875 9.26953125 531.427734375 9.26953125 531.427734375 c 1
 -2 724.840820312 l 1
 -2 724.840820312 96.10249859 738.9921875 326.916992188 738.9921875 c 0
 521.25 738.9921875 644.916992188 619.581054688 644.916992188 431.93359375 c 0
 644.916992188 271.821289062 536.805664062 169.93359375 366.916992188 169.93359375 c 0xc0b0
 259.770507812 169.93359375 195.2578125 194.43359375 195.2578125 194.43359375 c 1
 224.196289062 365.876953125 l 1
EndSplineSet
Validated: 5
EndChar

StartChar: uni20B3
Encoding: 8371 8371 189
Width: 768
Flags: W
HStem: 110.712 109<103.25 756> 118.712 100<12 662.75> 250.712 109<133.25 716> 258.712 100<52 632.75> 529.069 191.931<83.8193 215.508> 711 20G<79.4395 488.11>
LayerCount: 2
Fore
SplineSet
215.5078125 534.112304688 m 1x04
 83.8193359375 529.069335938 l 1
 79.439453125 721 l 1x08
 481.548828125 731 l 1
 716.450195312 14.9111328125 l 1
 505.176757812 -15 l 1
 374.818359375 476.8671875 l 1
 237.819335938 -15 l 1
 28.2734375 19 l 1
 215.5078125 534.112304688 l 1x04
52 358.711914062 m 1x10
 718 359.711914062 l 1
 716 250.711914062 l 1x20
 50 258.711914062 l 1
 52 358.711914062 l 1x10
12 218.711914062 m 1x40
 758 219.711914062 l 1
 756 110.711914062 l 1x80
 10 118.711914062 l 1
 12 218.711914062 l 1x40
EndSplineSet
Validated: 5
EndChar

StartChar: uni20B4
Encoding: 8372 8372 190
Width: 598
Flags: W
HStem: 228 109<330.881 556> 236 100<12 456.78> 368 109<350.106 586> 376 100<22 185.052 273 496.479> 718.393 20G<155.99 159.646>
VStem: 68 223.215<212.673 302.159>
LayerCount: 2
Fore
SplineSet
12 336 m 5x4c
 266 330.466796875 l 5
 558 337 l 5
 556 228 l 5x8c
 248 237.577148438 l 5
 10 236 l 5
 12 336 l 5x4c
22 476 m 5x1c
 283 471 l 5
 588 477 l 5
 586 368 l 5x2c
 273 377.288085938 l 5
 20 376 l 5
 22 476 l 5x1c
159.645507812 738.392578125 m 1
 159.645507812 738.392578125 515.3359375 731.98828125 515.3359375 504.162109375 c 0
 515.3359375 414.102539062 472.291015625 366.442382812 342.934570312 302.655273438 c 0
 302.143554688 282.541015625 291.21484375 266.92578125 291.21484375 246 c 0
 291.21484375 174.623046875 488.115234375 166.682617188 488.115234375 166.682617188 c 1
 460.893554688 -19.8779296875 l 1
 460.893554688 -19.8779296875 68 -14.009765625 68 251.044921875 c 0
 68 337.392578125 98.6279296875 394.850585938 185.051757812 435.650390625 c 0
 260.326171875 471.186523438 273.067382812 491.119140625 273.067382812 513.049804688 c 0
 273.067382812 558.505859375 128.794921875 569.592773438 128.794921875 569.592773438 c 1
 159.645507812 738.392578125 l 1
EndSplineSet
Validated: 5
EndChar

StartChar: uni20B8
Encoding: 8376 8376 191
Width: 590
Flags: W
HStem: 0 21G<181.83 398.159> 378 30<186.151 394.104> 378.08 142.931<13.6201 186.151 394.104 568.729> 578.08 152.931<23.6201 558.729>
VStem: 181.83 216.329<0 408>
LayerCount: 2
Fore
SplineSet
292.103515625 378 m 5xd8
 10 378.080078125 l 5
 13.6201171875 521.010742188 l 1
 568.729492188 521.010742188 l 1xb8
 574.61328125 374 l 5
 292.103515625 378 l 5xd8
394.103515625 408 m 5xd8
 398.159179688 0 l 1
 181.830078125 0 l 1
 186.151367188 410.083984375 l 5
 394.103515625 408 l 5xd8
20 578.080078125 m 1
 23.6201171875 731.010742188 l 1
 558.729492188 731.010742188 l 1
 564.61328125 574 l 1
 20 578.080078125 l 1
EndSplineSet
Validated: 5
EndChar

StartChar: uni20B9
Encoding: 8377 8377 192
Width: 666
Flags: W
HStem: 391.934 109<485.935 654> 399.934 100<130 590.22> 517.428 21G<26.0361 29.2695> 542.992 196<42.9243 317.21>
VStem: 359.917 209<337.297 567.47>
LayerCount: 2
Fore
SplineSet
130 499.93359375 m 1x78
 441 494.93359375 l 1
 656 500.93359375 l 1
 654 391.93359375 l 1xb8
 431 401.221679688 l 1
 128 399.93359375 l 1
 130 499.93359375 l 1x78
144.196289062 366.876953125 m 1
 144.196289062 366.876953125 176.828125 354.93359375 250.916992188 354.93359375 c 0
 323.038529829 354.93359375 359.916992188 389.155448717 359.916992188 442.93359375 c 0
 359.916992188 504.080873819 315.270910838 542.9921875 223.916992188 542.9921875 c 0
 105.454181749 542.9921875 29.26953125 517.427734375 29.26953125 517.427734375 c 5
 -2 710.840820312 l 5
 -2 710.840820312 72.2417675435 738.9921875 246.916992188 738.9921875 c 0
 443.695105919 738.9921875 568.916992188 630.858177375 568.916992188 460.93359375 c 0
 568.916992188 285.439034986 404.740234375 241.040039062 404.740234375 241.040039062 c 1
 569.770507812 138 l 1
 445.770507812 -37 l 1
 103.2578125 228.43359375 l 1
 144.196289062 366.876953125 l 1
EndSplineSet
Validated: 5
EndChar

StartChar: uni20BA
Encoding: 8378 8378 193
Width: 643
Flags: W
HStem: -9.99805 200.877<240.95 409.979> 711.01 20G<110.621 316.809>
VStem: 105.348 215.635<293.769 382.835 454.912 731.01>
LayerCount: 2
Fore
SplineSet
15.2978515625 322.71484375 m 1
 230.639648438 382.834960938 l 1
 439.6875 461.35546875 l 1
 474.6640625 341.365234375 l 1
 254.453125 293.768554688 l 1
 45.8486328125 217.056640625 l 1
 15.2978515625 322.71484375 l 1
1 483.859375 m 1
 216.341796875 543.98046875 l 1
 425.389648438 622.5 l 1
 460.366210938 502.509765625 l 1
 240.155273438 454.912109375 l 1
 31.55078125 378.200195312 l 1
 1 483.859375 l 1
320.982421875 195.29296875 m 1
 320.982421875 195.29296875 331.477539062 190.87890625 351.380859375 190.87890625 c 0
 398.19921875 190.87890625 429.047851562 211.090820312 445.91796875 293 c 1
 631.91796875 256 l 1
 607.461914062 105.546875 538.724609375 -9.998046875 299.91796875 -9.998046875 c 0
 181.982421875 -9.998046875 105.34765625 0 105.34765625 0 c 1
 110.76953125 731.009765625 l 1
 316.647460938 731.009765625 l 1
 320.982421875 195.29296875 l 1
EndSplineSet
Validated: 5
EndChar

StartChar: breve
Encoding: 728 728 194
Width: 332
Flags: W
HStem: 556 130<104.844 232.226>
LayerCount: 2
Fore
SplineSet
168 556 m 0
 61.9767473296 556 -5 636 -5 636 c 29
 63 748 l 25
 63 748 106.282819864 686 167 686 c 0
 226.162790698 686 273 742 273 742 c 25
 337 642 l 29
 337 642 286 556 168 556 c 0
EndSplineSet
Validated: 1
EndChar

StartChar: dotaccent
Encoding: 729 729 195
Width: 240
Flags: W
HStem: 559.008 180<57.3847 182.615>
VStem: 30 180<586.392 711.623>
LayerCount: 2
Fore
SplineSet
30 649.0078125 m 0
 30 704.008167614 64.9996448864 739.0078125 120 739.0078125 c 0
 175.000355114 739.0078125 210 704.008167614 210 649.0078125 c 0
 210 594.007457386 175.000355114 559.0078125 120 559.0078125 c 0
 64.9996448864 559.0078125 30 594.007457386 30 649.0078125 c 0
EndSplineSet
Validated: 1
EndChar

StartChar: ogonek
Encoding: 731 731 196
Width: 207
Flags: W
HStem: -248 81<131.585 195.519>
VStem: 20 104<-158.34 -53.4902>
LayerCount: 2
Fore
SplineSet
190 18 m 5
 190 18 124 -65.7008797666 124 -124 c 0
 124 -157.041407437 146.4 -166.413636364 201 -167 c 1
 195 -248 l 1
 79.5177664972 -242 20 -216.730463477 20 -136 c 0
 20 -47.52 97 22 97 22 c 5
 190 18 l 5
EndSplineSet
Validated: 1
EndChar

StartChar: ring
Encoding: 730 730 197
Width: 307
Flags: W
HStem: 478.113 89.3027<123.522 187.276> 649.593 89.3994<121.613 187.458>
VStem: 20 98.3838<570.412 645.759> 191.184 96.416<571.06 646.249>
LayerCount: 2
Fore
SplineSet
118.383789062 609.416015625 m 0
 118.383789062 583.74975586 132.420436905 567.416015625 154.479492188 567.416015625 c 0
 176.909817361 567.416015625 191.18359375 583.74975586 191.18359375 609.416015625 c 0
 191.18359375 633.968760368 176.909817361 649.592773438 154.479492188 649.592773438 c 0
 132.420436905 649.592773438 118.383789062 633.968760368 118.383789062 609.416015625 c 0
20 609.512695312 m 0
 20 688.639014575 72.2975427796 738.9921875 154.479492188 738.9921875 c 0
 235.830785956 738.9921875 287.599609375 685.717408692 287.599609375 602 c 0
 287.599609375 526.291133604 235.830785956 478.11328125 154.479492188 478.11328125 c 0
 72.2975427796 478.11328125 20 529.212718171 20 609.512695312 c 0
EndSplineSet
Validated: 1
EndChar

StartChar: hungarumlaut
Encoding: 733 733 198
Width: 420
Flags: W
HStem: 509.248 235.246
LayerCount: 2
Fore
SplineSet
300.5078125 744.494140625 m 29
 412.631835938 662.544921875 l 29
 273.493164062 509.248046875 l 29
 201.208984375 560.534179688 l 29
 300.5078125 744.494140625 l 29
110.5078125 744.494140625 m 25
 222.631835938 662.544921875 l 25
 83.4931640625 509.248046875 l 25
 11.208984375 560.534179688 l 25
 110.5078125 744.494140625 l 25
EndSplineSet
Validated: 1
EndChar

StartChar: partialdiff
Encoding: 8706 8706 199
Width: 605
Flags: W
HStem: -10.0664 174.925<240.19 349.406> 342.009 154.925<245.753 353.552>
VStem: 20 194.375<189.865 312.608> 380.625 204.375<193.966 469.753>
LayerCount: 2
Fore
SplineSet
214.375 249.858398438 m 0
 214.375 197.913856907 245.793945312 164.858398438 292.025390625 164.858398438 c 0
 347.391601562 164.858398438 380.625 201.802734375 380.625 259.858398438 c 0
 380.625 310.061705126 350.836461863 342.008789062 304.025390625 342.008789062 c 0
 249.238805404 342.008789062 214.375 306.172851562 214.375 249.858398438 c 0
20 239.93359375 m 0
 20 403.100373145 114.111328125 496.93359375 262 496.93359375 c 0
 325.423828125 496.93359375 353.90234375 477.057617188 353.90234375 477.057617188 c 5
 303.912109375 602.637695312 182.021484375 659.267578125 182.021484375 659.267578125 c 1
 362.770507812 753.510742188 l 1
 362.770507812 753.510742188 585 619.74565517 585 312 c 0
 585 96.5609773511 467.22265625 -10.06640625 279 -10.06640625 c 0
 121.944335938 -10.06640625 20 87.155085637 20 239.93359375 c 0
EndSplineSet
Validated: 1
EndChar

StartChar: emptyset
Encoding: 8709 8709 200
Width: 795
Flags: W
HStem: -10.0664 100.877<283.004 518.138> 640.64 98.2939<286.076 524.103>
VStem: 20 108<243.344 482.978> 674.117 100.883<243.344 482.978>
LayerCount: 2
Fore
SplineSet
710.94921875 726.93359375 m 5
 442.330078125 339.799804688 l 5
 185.37890625 -81 l 5
 84.05078125 -17 l 5
 366.529296875 378.200195312 l 5
 616.220703125 793.93359375 l 5
 710.94921875 726.93359375 l 5
20 361.93359375 m 0
 20 592.322641811 166.610951939 738.93359375 397 738.93359375 c 0
 628.000476926 738.93359375 775 592.322641811 775 361.93359375 c 0
 775 134.599173678 628.000476926 -10.06640625 397 -10.06640625 c 0
 166.610951939 -10.06640625 20 134.599173678 20 361.93359375 c 0
128 361.93359375 m 0
 128 196.246930926 232.9990625 90.810546875 398 90.810546875 c 0
 566.738726451 90.810546875 674.1171875 196.246930926 674.1171875 361.93359375 c 0
 674.1171875 532.255308483 566.738726451 640.639648438 398 640.639648438 c 0
 232.9990625 640.639648438 128 532.255308483 128 361.93359375 c 0
EndSplineSet
Validated: 5
EndChar

StartChar: Delta
Encoding: 8710 8710 201
Width: 670
Flags: W
HStem: 0 178.317<224.086 437.606> 529.069 191.931<45.8193 177.508> 711 20G<41.4395 451.144>
LayerCount: 2
Fore
SplineSet
177.5078125 534.112304688 m 1xa0
 45.8193359375 529.069335938 l 1
 41.439453125 721 l 1xc0
 443.548828125 731 l 1
 660 161 l 1
 653 0 l 1
 17 0 l 1
 10 157 l 1
 177.5078125 534.112304688 l 1xa0
437.606445312 179.631835938 m 5
 336.818359375 476.8671875 l 1
 224.0859375 178.317382812 l 5
 437.606445312 179.631835938 l 5
EndSplineSet
Validated: 1
EndChar

StartChar: notequal
Encoding: 8800 8800 202
Width: 450
Flags: W
HStem: 167 136<223 393> 178 139<49 223> 349 148<174.455 401> 360 133<49 271.545>
LayerCount: 2
Fore
SplineSet
256.526367188 596.734375 m 5x00
 368.124023438 560.322265625 l 5
 263.0859375 315.234375 l 5
 192.477539062 78.1787109375 l 5
 81.7880859375 115.673828125 l 5
 183.328125 343.390625 l 5
 256.526367188 596.734375 l 5x00
EndSplineSet
Refer: 19 61 N 1 0 0 1 0 0 2
Validated: 5
EndChar

StartChar: approxequal
Encoding: 8776 8776 203
Width: 450
Flags: W
LayerCount: 2
Fore
SplineSet
279.991210938 281.168945312 m 1
 374.650390625 344.280273438 l 1
 446.330078125 239 l 1
 284.950195312 116.959960938 l 1
 170.009765625 207.791015625 l 1
 85.3505859375 144.6796875 l 1
 3.669921875 249.959960938 l 1
 165.05078125 372 l 1
 279.991210938 281.168945312 l 1
279.991210938 501.168945312 m 1
 374.650390625 564.280273438 l 1
 446.330078125 459 l 1
 284.950195312 336.959960938 l 1
 170.009765625 427.791015625 l 1
 85.3505859375 364.6796875 l 1
 3.669921875 469.959960938 l 1
 165.05078125 592 l 1
 279.991210938 501.168945312 l 1
EndSplineSet
Validated: 1
EndChar

StartChar: product
Encoding: 8719 8719 204
Width: 853
Flags: W
HStem: 550.084 180.927<13.6201 118.151 325.838 527.979 736.073 840.369>
VStem: 113.83 216.329<-173.994 550.084> 523.83 216.329<-173.994 548.628>
LayerCount: 2
Fore
SplineSet
113.830078125 -173.994140625 m 1
 118.151367188 550.083984375 l 1
 10 548.080078125 l 1
 13.6201171875 731.010742188 l 1
 840.369140625 731.010742188 l 1
 843.989257812 548.080078125 l 1
 736.073242188 550.080078125 l 5
 740.159179688 -173.994140625 l 5
 523.830078125 -173.994140625 l 5
 527.979492188 548.627929688 l 5
 325.837890625 550.083984375 l 1
 330.159179688 -173.994140625 l 1
 113.830078125 -173.994140625 l 1
EndSplineSet
Validated: 1
EndChar

StartChar: summation
Encoding: 8721 8721 205
Width: 670
Flags: W
HStem: -173.994 171.293<281.064 656.539> 558.08 172.931<13.6201 138.151 358.104 648.729>
LayerCount: 2
Fore
SplineSet
648.729492188 731.010742188 m 1
 654.61328125 554 l 1
 358.103515625 558 l 5
 504 301 l 5
 281.017578125 -2.513671875 l 5
 281.064453125 -2.701171875 l 5
 660.159179688 -1.0634765625 l 1
 656.5390625 -173.994140625 l 1
 63.4296875 -173.994140625 l 1
 54.87109375 -2.994140625 l 1
 276 302 l 1
 138.151367188 560.083984375 l 1
 10 558.080078125 l 1
 13.6201171875 731.010742188 l 1
 648.729492188 731.010742188 l 1
EndSplineSet
Validated: 1
EndChar

StartChar: integral
Encoding: 8747 8747 206
Width: 423
Flags: W
LayerCount: 2
Fore
SplineSet
252.01953125 797.84375 m 5
 407.7265625 688.374023438 l 1
 254.637695312 529.96484375 l 1
 308.63671875 10 l 1
 171.477539062 -204 l 1
 -10.5224609375 -118 l 1
 112.307617188 30 l 1
 65.984375 592.096679688 l 1
 252.01953125 797.84375 l 5
EndSplineSet
Validated: 1
EndChar

StartChar: angleleft
Encoding: 9001 9001 268
Width: 382
Flags: W
LayerCount: 2
Fore
SplineSet
212.13671875 300.836914062 m 1
 381 -148.994140625 l 1
 201 -198.994140625 l 1
 1 301.005859375 l 1
 201 791.001953125 l 1
 381 741.001953125 l 1
 212.13671875 300.836914062 l 1
EndSplineSet
Validated: 1
EndChar

StartChar: angleright
Encoding: 9002 9002 269
Width: 382
Flags: W
LayerCount: 2
Fore
SplineSet
169.86328125 291.170898438 m 1
 1 741.001953125 l 1
 181 791.001953125 l 1
 381 291.001953125 l 1
 181 -198.994140625 l 1
 1 -148.994140625 l 1
 169.86328125 291.170898438 l 1
EndSplineSet
Validated: 1
EndChar

StartChar: dcroat
Encoding: 273 273 271
Width: 682
Flags: W
HStem: -10.0664 160<232.696 341.639> 0 150.927<576.849 668.38> 346.934 160<233.48 347.312> 544 100<292 599.38> 735.002 20G<386.875 574.259>
VStem: 20 182<181.816 316.761> 377 199.849<187.655 308.045> 382.271 92.7295<126.289 420.212> 387 187.17<283.934 755.002>
AnchorPoint: "Anchor-0" 483 755.01 basechar 0
AnchorPoint: "Anchor-2" 328 0 basechar 0
LayerCount: 2
Fore
SplineSet
292 644 m 5x3c
 493 639 l 5
 648 645 l 5
 646 536 l 5
 483 545.288085938 l 5
 290 544 l 5
 292 644 l 5x3c
EndSplineSet
Refer: 5 100 S 1 0 0 1 0 0 2
Validated: 1048581
EndChar

StartChar: Hbar
Encoding: 294 294 272
Width: 830
Flags: W
HStem: 0 21G<123.83 340.159 533.83 750.159> 165 172<377.455 604> 176 157<252 474.545> 397.934 109<133.308 818> 406 100<31 713.692> 560.084 170.927<13.6201 128.151 423.62 538.151>
VStem: 123.83 216.329<0 176 333 560.084> 248 92.1592<176 333> 533.83 216.329<0 165 337 560.084>
AnchorPoint: "Anchor-0" 386 731.008 basechar 0
AnchorPoint: "Anchor-2" 432 0 basechar 0
AnchorPoint: "Anchor-2" 432 0 basechar 0
LayerCount: 2
Fore
SplineSet
334.729492188 731.010742188 m 1x8680
 340.159179688 0 l 1
 123.830078125 0 l 1
 128.151367188 560.083984375 l 1
 10 558.080078125 l 1
 13.6201171875 731.010742188 l 1
 334.729492188 731.010742188 l 1x8680
744.729492188 731.010742188 m 1
 750.159179688 0 l 1
 533.830078125 0 l 1
 538.151367188 560.083984375 l 1
 420 558.080078125 l 1
 423.620117188 731.010742188 l 1
 744.729492188 731.010742188 l 1
252 333 m 1xa580
 608 337 l 1
 604 165 l 1xc580
 248 176 l 1
 252 333 l 1xa580
31 506 m 1x8c80
 820 506.93359375 l 1
 818 397.93359375 l 1x9480
 29 406 l 1
 31 506 l 1x8c80
EndSplineSet
Validated: 1048581
EndChar

StartChar: hbar
Encoding: 295 295 273
Width: 663
Flags: W
HStem: 0 21G<103.83 300.159> 347.934 159<325.167 500.535> 549 109<245.472 406> 557 100<12 345.08> 735.002 20G<108.037 294.873>
VStem: 103.83 196.329<0 253.934 558.288 755.002> 446 192<-1.00814 329.64>
AnchorPoint: "Anchor-0" 174 755.01 basechar 0
AnchorPoint: "Anchor-2" 360 0 basechar 0
LayerCount: 2
Fore
SplineSet
12 657 m 1xde
 203 652 l 1
 408 658 l 1
 406 549 l 1xee
 193 558.288085938 l 1
 10 557 l 1
 12 657 l 1xde
188 253.93359375 m 1
 210.936523438 411.989257812 283.27734375 506.93359375 433 506.93359375 c 0
 568.0703125 506.93359375 638 432.569335938 638 288.93359375 c 0
 638 139.458984375 620.159179688 -15 620.159179688 -15 c 1
 425.830078125 0 l 1
 425.830078125 0 446 143.766601562 446 261.93359375 c 0
 446 316.521484375 428.012695312 347.93359375 377 347.93359375 c 0
 311.48828125 347.93359375 284.346679688 311.094726562 266 216.93359375 c 1
 188 253.93359375 l 1
294.729492188 755.001953125 m 1
 300.159179688 0 l 1
 103.830078125 0 l 1
 108.151367188 755.001953125 l 1
 294.729492188 755.001953125 l 1
EndSplineSet
Validated: 1048581
EndChar

StartChar: Tbar
Encoding: 358 358 275
Width: 590
Flags: W
HStem: 0 21G<181.83 398.159> 239 149<373.092 512> 249 137<80 415.947> 558 30<186.151 394.104> 558.08 172.931<13.6201 186.151 394.104 568.729>
VStem: 181.83 216.329<0 588>
AnchorPoint: "Anchor-0" 289 731.008 basechar 0
AnchorPoint: "Anchor-2" 288 0 basechar 0
AnchorPoint: "Anchor-2" 288 0 basechar 0
LayerCount: 2
Fore
SplineSet
80 386 m 1xa4
 295 382 l 1
 516 388 l 1
 512 239 l 1xc4
 288 250.288085938 l 1
 76 249 l 1
 80 386 l 1xa4
EndSplineSet
Refer: 61 84 N 1 0 0 1 0 0 2
Validated: 1048581
EndChar

StartChar: tbar
Encoding: 359 359 276
Width: 443
Flags: W
HStem: 195.712 109<251.008 404> 203.712 100<20 345.94> 346 151<12 225.667> 480 20G<190 422.518>
VStem: 103.83 179.299<195.878 493.825>
AnchorPoint: "Anchor-0" 203 648.019 basechar 0
AnchorPoint: "Anchor-2" 248 0 basechar 0
LayerCount: 2
Fore
SplineSet
20 303.711914062 m 1x48
 211 298.711914062 l 1
 406 304.711914062 l 1
 404 195.711914062 l 1x88
 201 205 l 1
 18 203.711914062 l 1
 20 303.711914062 l 1x48
EndSplineSet
Refer: 7 116 N 1 0 0 1 0 0 2
Validated: 1048581
EndChar

StartChar: .notdef
Encoding: 65538 -1 362
Width: 795
Flags: W
HStem: -10.0664 100.877<283.004 518.138> 141.077 132<323.786 426.214> 299.857 113.903<329.412 412.072> 500.477 93.8301<316.33 393.988> 640.64 98.2939<286.076 514.996>
VStem: 20 108<243.344 482.978> 309 132<155.863 258.291> 415.2 122.399<418.986 479.955> 674.117 100.883<243.344 482.978>
LayerCount: 2
Fore
SplineSet
299.400390625 500.4765625 m 5xfd80
 317.694335938 594.306640625 l 5
 468.5 575.315429688 537.599609375 530.359375 537.599609375 451.237304688 c 4
 537.599609375 366.676757812 427.99609375 339.077148438 427.99609375 339.077148438 c 5
 420 294.077148438 l 5
 420 294.077148438 406.799804688 299.857421875 376.200195312 299.857421875 c 4
 345.599609375 299.857421875 329.400390625 292.876953125 329.400390625 292.876953125 c 5
 320.943359375 416.4765625 l 5
 320.943359375 416.4765625 334.200195312 413.760742188 360.599609375 413.760742188 c 4
 392.400390625 413.760742188 415.200195312 423.676757812 415.200195312 450.077148438 c 4
 415.200195312 478.921875 388.900390625 489.6875 299.400390625 500.4765625 c 5xfd80
309 207.077148438 m 4xfe80
 309 247.41015625 334.666015625 273.077148438 375 273.077148438 c 4
 415.333984375 273.077148438 441 247.41015625 441 207.077148438 c 4
 441 166.743164062 415.333984375 141.077148438 375 141.077148438 c 4
 334.666015625 141.077148438 309 166.743164062 309 207.077148438 c 4xfe80
20 361.93359375 m 0
 20 592.322641811 166.610951939 738.93359375 397 738.93359375 c 0
 628.000476926 738.93359375 775 592.322641811 775 361.93359375 c 0
 775 134.599173678 628.000476926 -10.06640625 397 -10.06640625 c 0
 166.610951939 -10.06640625 20 134.599173678 20 361.93359375 c 0
128 361.93359375 m 0
 128 196.246930926 232.9990625 90.810546875 398 90.810546875 c 0
 566.738726451 90.810546875 674.1171875 196.246930926 674.1171875 361.93359375 c 0
 674.1171875 532.255308483 566.738726451 640.639648438 398 640.639648438 c 0
 232.9990625 640.639648438 128 532.255308483 128 361.93359375 c 0
EndSplineSet
Validated: 1
EndChar

StartChar: uni0326
Encoding: 806 806 363
Width: 0
Flags: W
HStem: -206.337 211.029
VStem: 0 185.796
AnchorPoint: "Anchor-2" 138 21 mark 0
AnchorPoint: "Anchor-2" 138 21 mark 0
LayerCount: 2
Fore
SplineSet
57.78125 4.6923828125 m 25
 185.795898438 -65.037109375 l 25
 77.78125 -206.336914062 l 25
 0 -163 l 25
 57.78125 4.6923828125 l 25
EndSplineSet
Validated: 1
EndChar

StartChar: dcaron
Encoding: 271 271 403
Width: 682
Flags: W
HStem: -10.0664 160<232.696 341.639> 0 150.927<576.849 668.38> 346.934 160<233.48 347.312> 735.002 20G<386.875 574.259>
VStem: 20 182<181.816 316.761> 377 199.849<187.655 308.045> 382.271 92.7295<126.289 420.212> 387 187.17<283.934 755.002>
LayerCount: 2
Fore
SplineSet
807 728.9921875 m 5x38
 734 476 l 29
 635 484 l 5
 625 751 l 29
 807 728.9921875 l 5x38
EndSplineSet
Refer: 5 100 N 1 0 0 1 0 0 2
Validated: 5
EndChar

StartChar: Lcaron
Encoding: 317 317 404
Width: 620
Flags: W
HStem: 0 171.293<339.065 606.539> 560.084 170.927<13.6201 128.151>
VStem: 123.43 215.635<171.293 560.084>
LayerCount: 2
Fore
SplineSet
637 728.9921875 m 5
 564 476 l 29
 465 484 l 5
 455 751 l 29
 637 728.9921875 l 5
EndSplineSet
Refer: 44 76 N 1 0 0 1 0 0 2
Validated: 1
EndChar

StartChar: lcaron
Encoding: 318 318 405
Width: 407
Flags: W
HStem: 0 151.397<299.129 393.539> 604.075 150.927<13.6201 108.151>
VStem: 103.83 195.299<151.397 604.075>
LayerCount: 2
Fore
SplineSet
531 728.9921875 m 5
 458 476 l 29
 359 484 l 5
 349 751 l 29
 531 728.9921875 l 5
EndSplineSet
Refer: 8 108 N 1 0 0 1 0 0 2
Validated: 1
EndChar

StartChar: tcaron
Encoding: 357 357 409
Width: 443
Flags: W
HStem: 346 151<12 225.667> 480 20G<190 422.518>
VStem: 103.83 179.299<195.878 493.825>
LayerCount: 2
Fore
SplineSet
502 728.9921875 m 1x20
 434 551 l 29
 340 549 l 5
 343 751 l 25
 502 728.9921875 l 1x20
EndSplineSet
Refer: 7 116 N 1 0 0 1 0 0 2
Validated: 5
EndChar

StartChar: uni030F
Encoding: 783 783 435
Width: 0
Flags: W
HStem: 509.248 235.246
AnchorPoint: "Anchor-0" 248.423 491 mark 0
LayerCount: 2
Fore
SplineSet
112.124023438 744.494140625 m 25
 211.422851562 560.534179688 l 25
 139.138671875 509.248046875 l 25
 0 662.544921875 l 25
 112.124023438 744.494140625 l 25
302.124023438 744.494140625 m 25
 401.422851562 560.534179688 l 25
 329.138671875 509.248046875 l 25
 190 662.544921875 l 25
 302.124023438 744.494140625 l 25
EndSplineSet
Validated: 1
EndChar

StartChar: uni031B
Encoding: 795 795 463
Width: 0
Flags: W
VStem: 56 164<526.757 666.298>
LayerCount: 2
Fore
SplineSet
9 707 m 1
 175 750 l 1
 175 750 220 683.989257812 220 591 c 0
 220 455 99 404 99 404 c 1
 0 483 l 1
 0 483 56 534.989257812 56 587.989257812 c 0
 56 651 9 707 9 707 c 1
EndSplineSet
Validated: 1
EndChar

StartChar: Uhorn
Encoding: 431 431 464
Width: 847
Flags: W
HStem: -10 192<358.339 494.701> 560.084 170.927<13.6201 128.151 403.62 522.151>
VStem: 116.517 209.643<212.019 645.363> 527.83 209.812<214.132 556.03>
AnchorPoint: "Anchor-0" 386 731.008 basechar 0
AnchorPoint: "Anchor-0" 386 731.008 basechar 0
AnchorPoint: "Anchor-2" 425 0 basechar 0
AnchorPoint: "Anchor-2" 425 0 basechar 0
AnchorPoint: "Anchor-3" 495 0 basechar 0
LayerCount: 2
Fore
SplineSet
637 790 m 1
 764 860.93359375 l 1
 764 860.93359375 827 822 827 754 c 0
 827 671 766 645 686 642 c 1
 619 731.0078125 l 1
 662 731.0078125 682 735 682 753 c 0
 682 776 637 790 637 790 c 1
EndSplineSet
Refer: 53 85 N 1 0 0 1 0 0 2
Validated: 5
EndChar

StartChar: uhorn
Encoding: 432 432 465
Width: 707
Flags: W
HStem: -9.93164 159<164.169 316.686> 0 150.927<557.849 649.38> 477.002 20G<42.8408 237.17 367.81 555.325>
VStem: 25 192<167.362 498.01> 368 187.17<213.068 497.002> 542 145<501.337 568.035>
AnchorPoint: "Anchor-0" 298 496.019 basechar 0
AnchorPoint: "Anchor-2" 325 0 basechar 0
AnchorPoint: "Anchor-3" 465 0 basechar 0
LayerCount: 2
Fore
SplineSet
497 584.002929688 m 1x34
 624 654.936523438 l 1
 624 654.936523438 687 605.80837261 687 520.002929688 c 0
 687 419.075706638 613.021276596 381.230202415 516 378.002929688 c 5
 479 497.010742188 l 1
 522 497.010742188 542 502.818204999 542 529.002929688 c 0
 542 563.192118877 497 584.002929688 497 584.002929688 c 1x34
EndSplineSet
Refer: 27 117 N 1 0 0 1 0 0 2
Validated: 5
EndChar

StartChar: uni01B7
Encoding: 439 439 466
Width: 624
Flags: W
HStem: -183.994 184<83.4967 330.454> 532.008 199<30 303.848>
VStem: 373.917 229<40.9075 159.207>
AnchorPoint: "Anchor-2" 296 -174 basechar 0
AnchorPoint: "Anchor-0" 304 731.008 basechar 0
LayerCount: 2
Fore
SplineSet
406 351 m 1
 406 351 602.916992188 321.502639075 602.916992188 91.056640625 c 0
 602.916992188 -89.1445157095 476.139335138 -183.994140625 276.916992188 -183.994140625 c 0
 88.2072104288 -183.994140625 8 -149.842773438 8 -149.842773438 c 1
 50 33.072265625 l 1
 50 33.072265625 126.859375 0.005859375 233.916992188 0.005859375 c 0
 327.957770517 0.005859375 373.916992188 38.5254563877 373.916992188 99.056640625 c 0
 373.916992188 159.213009677 328.919091797 197.9921875 240.916992188 197.9921875 c 0
 181.208250191 197.9921875 145.2578125 188.43359375 145.2578125 188.43359375 c 1
 129 312 l 1
 303.84765625 538.0078125 l 1
 20 532.0078125 l 1
 30 731.0078125 l 1
 559.016601562 731.0078125 l 5
 589.016601562 573.0078125 l 1
 406 351 l 1
EndSplineSet
Validated: 1048577
EndChar

StartChar: uni0292
Encoding: 658 658 467
Width: 488
Flags: W
HStem: -183.994 157<64.5443 253.492> 338 159.011<30 223.848>
VStem: 270.917 196<-5.9971 81.1503>
AnchorPoint: "Anchor-0" 241 496.019 basechar 0
AnchorPoint: "Anchor-2" 226 -174 basechar 0
LayerCount: 2
Back
SplineSet
20 338 m 5
 30 497 l 5
 399.016601562 497 l 5
 431.016601562 369 l 5
 257.168945312 164 l 5
 441.016601562 170 l 5
 431.016601562 0 l 5
 41 0 l 5
 12 128 l 5
 193.84765625 344 l 5
 20 338 l 5
EndSplineSet
Fore
SplineSet
318 221 m 1
 318 221 466.916992188 197.81747321 466.916992188 37.0830078125 c 0
 466.916992188 -114.514620659 367.361531437 -183.994140625 210.916992188 -183.994140625 c 0
 71.3290030521 -183.994140625 12 -149.842773438 12 -149.842773438 c 1
 44 6.072265625 l 1
 44 6.072265625 84.7716346154 -26.994140625 184 -26.994140625 c 0
 239.844503796 -26.994140625 270.916992188 -2.09823650541 270.916992188 37.056640625 c 0
 270.916992188 77.7558593356 237.422314453 103.9921875 171.916992188 103.9921875 c 0
 130.309529373 103.9921875 105.2578125 97.43359375 105.2578125 97.43359375 c 1
 85 212 l 1
 223.84765625 344 l 1
 20 338 l 1
 30 497.010742188 l 1
 426.016601562 497 l 5
 459.016601562 369 l 1
 318 221 l 1
EndSplineSet
Validated: 1048577
EndChar

StartChar: infinity
Encoding: 8734 8734 470
Width: 579
Flags: W
HStem: 221 110.59<363.476 437.458> 221 101.588<141.816 243.05> 404.634 110.051<141.393 218.637> 412.315 102.369<335.563 435.715>
VStem: 20 117.069<328 399.5> 441.665 118.119<337.001 406.859>
LayerCount: 2
Fore
SplineSet
441.665039062 370.404296875 m 4x9c
 441.665039062 346.333984375 425.881835938 331.58984375 400.116210938 331.58984375 c 4x9c
 376.522460938 331.58984375 363.36328125 345.263671875 345.504882812 388.341796875 c 4
 314.42578125 463.3125 263.467773438 514.684570312 175.237304688 514.684570312 c 4
 80.34375 514.684570312 20 457.278320312 20 367.000976562 c 4
 20 280.737304688 75.1875 221 162.53515625 221 c 4
 269.056640625 221 309.377929688 301.271484375 309.377929688 301.271484375 c 5
 261.307617188 372.428710938 l 5
 261.307617188 372.428710938 231.27734375 322.587890625 182.021484375 322.587890625 c 4
 154.068359375 322.587890625 137.069335938 337.98046875 137.069335938 363.291015625 c 4
 137.069335938 388.787109375 154.357421875 404.633789062 182.170898438 404.633789062 c 4x6c
 206.815429688 404.633789062 220.095703125 390.28125 232.903320312 354.533203125 c 4
 267.490234375 257.99609375 314.149414062 221 401.311523438 221 c 4
 500.095703125 221 559.784179688 276.083984375 559.784179688 367.248046875 c 4
 559.784179688 455.794921875 501.685546875 514.684570312 414.331054688 514.684570312 c 4
 318.250976562 514.684570312 276.788085938 443.2109375 276.788085938 443.2109375 c 5
 329.979492188 379.119140625 l 5
 329.979492188 379.119140625 351.071289062 412.315429688 396.541992188 412.315429688 c 4
 423.866210938 412.315429688 441.665039062 395.784179688 441.665039062 370.404296875 c 4x9c
EndSplineSet
Validated: 5
EndChar

StartChar: radical
Encoding: 8730 8730 471
Width: 659
Flags: W
HStem: 0 21G<230.526 440.599> 491 20G<10 264.279>
LayerCount: 2
Fore
SplineSet
434.607421875 0 m 1
 237.174804688 0 l 1
 120.151367188 352 l 1
 17.0458984375 344 l 1
 10 497 l 1
 258.546875 511 l 1
 337.905273438 234.1328125 l 1
 473 783 l 1
 659 749 l 5
 434.607421875 0 l 1
EndSplineSet
Validated: 1
EndChar

StartChar: lessequal
Encoding: 8804 8804 472
Width: 450
Flags: W
HStem: 64 156<189.667 430> 76 141<21 258.333>
LayerCount: 2
Fore
SplineSet
299.37109375 441.5 m 1x00
 435.349609375 391 l 5
 375.349609375 242 l 5
 14.650390625 432 l 1
 375.349609375 651 l 1
 435.349609375 502 l 1
 299.37109375 441.5 l 1x00
21 217 m 5x40
 432 220 l 5
 430 64 l 5x80
 18 76 l 5
 21 217 l 5x40
EndSplineSet
Validated: 1
EndChar

StartChar: greaterequal
Encoding: 8805 8805 473
Width: 450
Flags: W
HStem: 64 156<189.667 430> 76 141<21 258.333>
LayerCount: 2
Fore
SplineSet
150.62890625 451.5 m 1x00
 14.650390625 502 l 1
 74.650390625 651 l 1
 435.349609375 461 l 1
 74.650390625 242 l 1
 14.650390625 391 l 1
 150.62890625 451.5 l 1x00
21 217 m 5x40
 432 220 l 5
 430 64 l 5x80
 18 76 l 5
 21 217 l 5x40
EndSplineSet
Validated: 1
EndChar

StartChar: three.ss01.superior
Encoding: 65539 -1 507
Width: 371
HStem: 298 105<30.9173 216.618> 496 21G<97 97> 503 91<97.0212 215.945> 682 105<60.2444 214.092>
VStem: 222 125<602.814 672.359> 227 131<416.405 496.011>
LayerCount: 2
Fore
SplineSet
33 428 m 1xb4
 33 428 85 403 156 403 c 4
 204 403 227 424 227 456 c 4
 227 485 209 503 174 503 c 4xb4
 126 503 97 496 97 496 c 1xd4
 97 597 l 1
 97 597 114 594 154 594 c 0
 199 594 222 610 222 635 c 0
 222 664 200 682 156 682 c 0
 85 682 40 649 40 649 c 1
 12 760 l 1
 12 760 58 787 165 787 c 0
 276 787 347 737 347 658 c 0xb8
 347 577 278 556 278 556 c 1
 278 556 358 536 358 433 c 0
 358 350 286 298 171 298 c 0
 55 298 5 319 5 319 c 1
 33 428 l 1xb4
EndSplineSet
Validated: 1
EndChar

StartChar: five.ss02.superior
Encoding: 65540 -1 508
Width: 372
HStem: 293 104<57.3797 212.839> 496 21G<63.1176 84> 519 97<149.47 213.108> 677 156<242 331> 678 109<159 242>
VStem: 227 131<411.922 504.798> 240 91<787 832>
LayerCount: 2
Fore
SplineSet
340 677 m 5xf2
 159 678 l 29
 149 611 l 21
 149 611 165 616 207 616 c 4
 317 616 358 555 358 463 c 4
 358 345 286 293 171 293 c 4
 55 293 5 325 5 325 c 5
 33 431 l 5
 33 431 85 397 156 397 c 4
 204 397 227 422 227 461 c 4
 227 496 203 519 154 519 c 4
 110 519 84 496 84 496 c 5
 13 564 l 5
 53 787 l 5
 242 787 l 5xec
 240 832 l 5
 331 833 l 5
 340 677 l 5xf2
EndSplineSet
Validated: 1
EndChar

StartChar: three.ss01.inferior
Encoding: 65541 -1 509
Width: 371
HStem: -302 105<30.9173 216.618> -97 91<97.0212 215.945> 82 105<60.2444 214.092>
VStem: 222 125<2.8141 72.3589> 227 131<-183.595 -103.989>
LayerCount: 2
Fore
SplineSet
33 -172 m 1xe8
 33 -172 85 -197 156 -197 c 4
 204 -197 227 -176 227 -144 c 4xe8
 227 -115 209 -97 174 -97 c 4
 126 -97 97 -104 97 -104 c 1
 97 -3 l 1
 97 -3 114 -6 154 -6 c 0
 199 -6 222 10 222 35 c 0
 222 64 200 82 156 82 c 0
 85 82 40 49 40 49 c 1
 12 160 l 1
 12 160 58 187 165 187 c 0
 276 187 347 137 347 58 c 0xf0
 347 -23 278 -44 278 -44 c 1
 278 -44 358 -64 358 -167 c 0
 358 -250 286 -302 171 -302 c 0
 55 -302 5 -281 5 -281 c 1
 33 -172 l 1xe8
EndSplineSet
Validated: 1
EndChar

StartChar: five.ss02.inferior
Encoding: 65542 -1 510
Width: 372
HStem: -307 104<57.3797 212.839> -81 97<149.47 213.108> 77 156<242 331> 78 109<159 242>
VStem: 227 131<-188.078 -95.2019> 240 91<187 232>
LayerCount: 2
Fore
SplineSet
340 77 m 5xe4
 159 78 l 29
 149 11 l 21
 149 11 165 16 207 16 c 4
 317 16 358 -45 358 -137 c 4
 358 -255 286 -307 171 -307 c 4
 55 -307 5 -275 5 -275 c 5
 33 -169 l 5
 33 -169 85 -203 156 -203 c 4
 204 -203 227 -178 227 -139 c 4
 227 -104 203 -81 154 -81 c 4
 110 -81 84 -104 84 -104 c 5
 13 -36 l 5
 53 187 l 5
 242 187 l 5xd8
 240 232 l 5
 331 233 l 5
 340 77 l 5xe4
EndSplineSet
Validated: 1
EndChar

StartChar: guilsinglleft
Encoding: 8249 8249 511
Width: 412
Flags: W
LayerCount: 2
Fore
SplineSet
215.720703125 341.5 m 1
 411.69921875 151 l 1
 291.69921875 42 l 1
 -9 332 l 1
 291.69921875 631 l 1
 411.69921875 542 l 1
 215.720703125 341.5 l 1
EndSplineSet
Validated: 1
EndChar

StartChar: guilsinglright
Encoding: 8250 8250 512
Width: 413
Flags: W
LayerCount: 2
Fore
SplineSet
196.978515625 331.5 m 1
 1 522 l 1
 121 631 l 1
 421.69921875 341 l 1
 121 42 l 1
 1 131 l 1
 196.978515625 331.5 l 1
EndSplineSet
Validated: 1
EndChar

StartChar: dagger
Encoding: 8224 8224 513
Width: 520
Flags: W
HStem: 395.934 170<14 222.322> 400.345 157.524<45.6784 369.008>
VStem: 154 208.329<-170 23.2571> 177.616 161.554<288.743 600.787>
LayerCount: 2
Fore
SplineSet
14 565.93359375 m 5x80
 254 557.869140625 l 5
 510 569.93359375 l 5
 506 384.93359375 l 5
 255 400.344726562 l 5x40
 10 395.93359375 l 5
 14 565.93359375 l 5x80
356.899414062 788.9921875 m 1
 339.169921875 478 l 5x10
 362.329101562 -170 l 1
 154 -170 l 1x20
 177.616210938 482 l 5x10
 160.169921875 788.9921875 l 1
 356.899414062 788.9921875 l 1
EndSplineSet
Validated: 5
EndChar

StartChar: daggerdbl
Encoding: 8225 8225 514
Width: 520
Flags: W
HStem: 104.934 170<14 222.322> 109.345 157.524<45.6784 369.008> 266.869 143.476<45.6784 369.008> 405.934 170<14 222.322> 410.345 157.524<45.6784 369.008>
VStem: 178 160.898<155.008 576.144> 338.898 171.102<154.732 249 488 576.144>
LayerCount: 2
Fore
SplineSet
14 274.93359375 m 5x82
 254 266.869140625 l 5
 510 278.93359375 l 5
 506 93.93359375 l 5
 255 109.344726562 l 5x42
 10 104.93359375 l 5
 14 274.93359375 l 5x82
14 575.93359375 m 5x12
 254 567.869140625 l 5x0a
 510 579.93359375 l 5
 506 394.93359375 l 5
 255 410.344726562 l 5x22
 10 405.93359375 l 5
 14 575.93359375 l 5x12
356.899414062 788.9921875 m 5
 337.169921875 488 l 5
 338.8984375 249 l 5
 362.329101562 -170 l 5
 154 -170 l 5
 178 249 l 5x04
 179.616210938 492 l 5
 160.169921875 788.9921875 l 5
 356.899414062 788.9921875 l 5
EndSplineSet
Validated: 5
EndChar

StartChar: uni20A6
Encoding: 8358 8358 515
Width: 831
Flags: W
HStem: -10 21G<504.31 711.539> 0 21G<125.21 331.539> 226 100<22 224.906> 236 94.4668<573 762.712> 320.467 36.8213<188 253> 330.467 36.8213<684 785.743> 356 100<24 251.405> 366 100<583 780.389>
VStem: 125.21 206.329<0 227.577 320.467 331.793> 513 193.109<461 731.011>
LayerCount: 2
Fore
SplineSet
573 336 m 5x10c0
 677 330.466796875 l 5
 814 337 l 5
 812 228 l 5
 659 237.577148438 l 5
 571 236 l 5
 573 336 l 5x10c0
583 466 m 5x01c0
 694 461 l 5
 821 467 l 5
 819 358 l 5
 684 367.288085938 l 5x04c0
 581 366 l 5
 583 466 l 5x01c0
22 326 m 1x20c0
 188 320.466796875 l 1x08c0
 253 327 l 1
 251 218 l 1
 170 227.577148438 l 1
 20 226 l 1
 22 326 l 1x20c0
24 456 m 1x02c0
 205 451 l 1
 276 457 l 1
 274 348 l 1
 195 357.288085938 l 1x08c0
 22 356 l 1
 24 456 l 1x02c0
706.109375 731.010742188 m 1
 711.5390625 0 l 1x40c0
 515.209960938 -10 l 1x80c0
 328.92578125 331.79296875 l 1
 331.5390625 0 l 1
 125.209960938 0 l 1x40c0
 129.53125 564.083984375 l 1
 14.3798828125 558.080078125 l 1
 10 731.010742188 l 1
 346.109375 741.010742188 l 1
 509.151367188 389.888671875 l 1
 513 731.010742188 l 1
 706.109375 731.010742188 l 1
EndSplineSet
Validated: 5
EndChar

StartChar: peseta
Encoding: 8359 8359 516
Width: 732
Flags: W
HStem: 0 21G<97.7705 309.003> 169.934 175<310.341 451.327> 356 100<24 251.405> 366 100<484 681.389> 542.992 196<227.299 404.495> 542.992 56.2578<140.68 305.67>
VStem: 97.7705 211.232<0 194.434 348 357.288 451 599.25> 484 160.917<366 466>
LayerCount: 2
Fore
SplineSet
484 466 m 1xd3
 595 461 l 1
 722 467 l 1
 720 358 l 1
 585 367.288085938 l 1
 482 366 l 1
 484 466 l 1xd3
24 456 m 1xe3
 205 451 l 1
 276 457 l 1
 274 348 l 1
 195 357.288085938 l 1
 22 356 l 1
 24 456 l 1xe3
309.002929688 0 m 5
 97.7705078125 0 l 5
 103.940429688 599.25 l 5
 305.669921875 599.25 l 5xc7
 309.002929688 0 l 5
224.196289062 365.876953125 m 5
 224.196289062 365.876953125 259.885810621 344.93359375 340.916992188 344.93359375 c 4
 410.392578125 344.93359375 445.916992188 381.877929688 445.916992188 439.93359375 c 4
 445.916992188 502.9140625 402.583984375 542.9921875 313.916992188 542.9921875 c 4
 140.680012654 542.9921875 29.26953125 491.427734375 29.26953125 491.427734375 c 5
 -2 684.840820312 l 5
 -2 684.840820312 96.10249859 738.9921875 326.916992188 738.9921875 c 4xcb
 521.25 738.9921875 644.916992188 619.581054688 644.916992188 431.93359375 c 4
 644.916992188 271.821289062 536.805664062 169.93359375 366.916992188 169.93359375 c 4
 259.770507812 169.93359375 195.2578125 194.43359375 195.2578125 194.43359375 c 5
 224.196289062 365.876953125 l 5
EndSplineSet
Validated: 5
EndChar

StartChar: uni20A9
Encoding: 8361 8361 517
Width: 1082
Flags: W
HStem: 0 21G<289.598 510.838 618.578 840.127> 236 94.4668<794 983.712> 245 93.7119<164.139 342> 330.467 36.8213<898 1035> 340 30<173.5 241> 375.533 92.8896<151.436 321> 716 20G<841.08 973.284>
LayerCount: 2
Fore
SplineSet
321 370 m 1x8e
 237 375.533203125 l 1
 80 369 l 1
 82 478 l 1
 215 468.422851562 l 1
 323 470 l 1
 321 370 l 1x8e
342 240 m 1
 251 245 l 1
 104 239 l 1
 106 348 l 1
 241 338.711914062 l 1xae
 344 340 l 1
 342 240 l 1
794 336 m 1
 898 330.466796875 l 1
 1035 337 l 1
 1033 228 l 1
 880 237.577148438 l 1
 792 236 l 1xc6
 794 336 l 1
834 466 m 1
 945 461 l 1
 1072 467 l 1
 1070 358 l 1
 935 367.288085938 l 1x96
 832 366 l 1
 834 466 l 1
504.607421875 0 m 1
 295.174804688 0 l 1
 140.151367188 556 l 1
 17.0458984375 548 l 1
 10 732 l 1
 298.546875 746 l 1
 409.905273438 284.1328125 l 1
 513.904296875 759 l 1
 730.450195312 725 l 1
 504.607421875 0 l 1
833.607421875 0 m 1
 624.174804688 0 l 1
 503 433 l 1
 646.395507812 623 l 1
 736.905273438 284.1328125 l 1
 845.904296875 736 l 1
 1062.45019531 702 l 1
 833.607421875 0 l 1
EndSplineSet
Validated: 5
EndChar

StartChar: dong
Encoding: 8363 8363 518
Width: 682
Flags: W
HStem: -51 102<173.444 637> -42 97<42 504.556> 89.9336 150<228.76 347.524> 100 150.927<576.849 668.38> 416.934 150<228.76 348.843> 584 100<292 599.38> 735.002 20G<386.856 574.276>
VStem: 20 182<267.736 387.541> 382.271 92.7295<207.737 480.212> 387 187.17<585.288 755.002>
LayerCount: 2
Fore
SplineSet
42 55 m 5x4f
 638 51 l 5
 637 -51 l 5x8f
 41 -42 l 5
 42 55 l 5x4f
377 326.93359375 m 4
 377 381.933789063 343.166992188 416.93359375 290 416.93359375 c 4
 236.221679688 416.93359375 202 381.933789063 202 326.93359375 c 4
 202 273.76644048 236.221679688 239.93359375 290 239.93359375 c 4x2f
 343.166992188 239.93359375 377 273.76644048 377 326.93359375 c 4
475 343.93359375 m 4x2f80
 475 207.737298044 396.30078125 89.93359375 248 89.93359375 c 4
 108.666015625 89.93359375 20 182.100160354 20 326.93359375 c 4
 20 473.600961538 108.666015625 566.93359375 248 566.93359375 c 4
 386.72265625 566.93359375 475 480.211914062 475 343.93359375 c 4x2f80
382.270507812 100 m 5x1f80
 387 755.001953125 l 5
 574.169921875 755.001953125 l 5x1f40
 576.848632812 250.926757812 l 5
 672 252.930664062 l 5
 668.379882812 100 l 5
 382.270507812 100 l 5x1f80
292 684 m 5
 493 679 l 5
 648 685 l 5
 646 576 l 5
 483 585.288085938 l 5
 290 584 l 5
 292 684 l 5
EndSplineSet
Validated: 5
EndChar

StartChar: uni20BD
Encoding: 8381 8381 519
Width: 699
Flags: W
HStem: 0 21G<131.771 343.003> 98 119<300.253 506> 106 110<12 427.919> 249.934 125<100.19 449.415> 552.992 186<343.879 439.636> 552.992 46.2578<174.68 339.67>
VStem: 131.771 211.232<0 599.25> 479.917 199<404.407 517.099>
LayerCount: 2
Fore
SplineSet
12 216 m 1xb3
 243 211 l 1
 508 217 l 1
 506 98 l 1xd3
 233 107.288085938 l 1
 10 106 l 1
 12 216 l 1xb3
343.002929688 0 m 1
 131.770507812 0 l 1
 137.940429688 599.25 l 1
 339.669921875 599.25 l 1x97
 343.002929688 0 l 1
23.1962890625 395.876953125 m 1
 23.1962890625 395.876953125 130.741210938 374.93359375 374.916992188 374.93359375 c 0
 444.392578125 374.93359375 479.916992188 407.989257812 479.916992188 459.93359375 c 0
 479.916992188 516.802734375 436.583984375 552.9921875 347.916992188 552.9921875 c 0
 174.6796875 552.9921875 63.26953125 481.427734375 63.26953125 481.427734375 c 1
 22 674.840820312 l 1
 22 674.840820312 123.084960938 738.9921875 360.916992188 738.9921875 c 0x9b
 555.25 738.9921875 678.916992188 635.13671875 678.916992188 471.93359375 c 0
 678.916992188 336.265625 570.805664062 249.93359375 400.916992188 249.93359375 c 0
 161.283203125 249.93359375 17 266 17 266 c 1
 23.1962890625 395.876953125 l 1
EndSplineSet
Validated: 5
EndChar

StartChar: uni20BF
Encoding: 8383 8383 520
Width: 556
Flags: W
HStem: 0 21G<148 275 318 445> 94.6738 120.326<165 256 335 426> 327.278 93.2227<257.438 336.21> 524 125.107<152 243 322 413> 524 14.2734<152 243> 719 20G<133 260 303 430>
VStem: 92.9531 166.319<240.181 320.91 524 538.273> 152 91<524 603.211> 339.891 166.042<426.923 539.078> 368.376 169.208<248.626 319.685>
LayerCount: 2
Back
SplineSet
221.6953125 448.876953125 m 5xda
 221.6953125 448.876953125 244.848632812 437.93359375 297.416015625 437.93359375 c 4
 350.349609375 437.93359375 377.416015625 459.322265625 377.416015625 492.93359375 c 4
 377.416015625 531.469726562 348.85546875 555.9921875 290.416015625 555.9921875 c 4
 98.9208984375 555.9921875 -24.2314453125 471.427734375 -24.2314453125 471.427734375 c 5
 -65.5009765625 664.840820312 l 5
 -65.5009765625 664.840820312 38.56640625 738.9921875 283.416015625 738.9921875 c 4
 462.471679688 738.9921875 576.416015625 654.581054688 576.416015625 521.93359375 c 4xec
 576.416015625 413.459960938 482.774414062 384.96875 482.774414062 384.96875 c 5
 482.774414062 384.96875 616.416015625 356.1171875 616.416015625 206.9921875 c 4
 616.416015625 72.3447265625 502.471679688 -10.06640625 323.416015625 -10.06640625 c 4
 134.706054688 -10.06640625 54.4990234375 24.0849609375 54.4990234375 24.0849609375 c 5
 60.439453125 589.25 l 5
 262.168945312 589.25 l 5
 264.212890625 167.24609375 l 5
 264.212890625 167.24609375 281.637695312 163.93359375 330.416015625 163.93359375 c 4
 388.85546875 163.93359375 417.416015625 191.567382812 417.416015625 234.9921875 c 4
 417.416015625 273.4921875 390.349609375 297.9921875 337.416015625 297.9921875 c 4
 265.223632812 297.9921875 221.756835938 288.43359375 221.756835938 288.43359375 c 5
 221.6953125 448.876953125 l 5xda
EndSplineSet
Fore
SplineSet
445 0 m 25xe4
 318 0 l 25
 335 215 l 25
 426 215 l 25
 445 0 l 25xe4
303 739 m 25
 430 739 l 25
 413 524 l 25
 322 524 l 25xf4
 303 739 l 25
275 0 m 25
 148 0 l 25
 165 215 l 25
 256 215 l 25
 275 0 l 25
133 739 m 25
 260 739 l 25
 243 524 l 25
 152 524 l 25xf5
 133 739 l 25
228.994140625 427.791015625 m 5
 228.994140625 427.791015625 245.482421875 420.500976562 282.919921875 420.500976562 c 4
 320.615234375 420.500976562 339.890625 434.749023438 339.890625 457.140625 c 4
 339.890625 482.811523438 319.551757812 499.146484375 277.93359375 499.146484375 c 4
 141.560546875 499.146484375 30.6552734375 451.063476562 30.6552734375 451.063476562 c 1
 -2 594.22265625 l 1
 -2 594.22265625 80.3466796875 649.107421875 274.08984375 649.107421875 c 0
 415.771484375 649.107421875 505.932617188 586.62890625 505.932617188 488.447265625 c 0xf480
 505.932617188 408.157226562 431.836914062 387.068359375 431.836914062 387.068359375 c 1
 431.836914062 387.068359375 537.583984375 365.712890625 537.583984375 255.334960938 c 0
 537.583984375 155.672851562 447.421875 94.673828125 305.739257812 94.673828125 c 0
 156.418945312 94.673828125 92.953125 119.951171875 92.953125 119.951171875 c 1
 97.6533203125 538.2734375 l 1
 253.27734375 538.2734375 l 5
 259.272460938 240.180664062 l 5
 259.272460938 240.180664062 271.681640625 237.974609375 306.419921875 237.974609375 c 4
 348.037109375 237.974609375 368.375976562 256.381835938 368.375976562 285.309570312 c 4xee40
 368.375976562 310.95703125 349.100585938 327.278320312 311.405273438 327.278320312 c 4
 259.993164062 327.278320312 229.038085938 320.91015625 229.038085938 320.91015625 c 5
 228.994140625 427.791015625 l 5
EndSplineSet
Validated: 5
EndChar

StartChar: colonmonetary
Encoding: 8353 8353 521
Width: 501
Flags: W
HStem: 91.9014 162.886<239.191 451.295> 458.039 161.418<285.041 418.248> 717.812 20G<187.171 293.542 365.26 427.723>
VStem: 49.0977 203.22<291.265 424.607>
LayerCount: 2
Fore
SplineSet
310.375976562 -6.4453125 m 1
 181 18.6181640625 l 1
 247.774414062 236.0625 l 1
 343.154296875 202.840820312 l 1
 310.375976562 -6.4453125 l 1
370.303710938 737.811523438 m 1
 499.6796875 692.748046875 l 1
 412.905273438 495.303710938 l 1
 317.525390625 528.525390625 l 1
 370.303710938 737.811523438 l 1
130.375976562 -6.4453125 m 1
 1 38.6181640625 l 1
 87.7744140625 236.0625 l 1
 183.154296875 202.840820312 l 1
 130.375976562 -6.4453125 l 1
190.303710938 737.811523438 m 1
 319.6796875 712.748046875 l 1
 252.905273438 495.303710938 l 1
 157.525390625 528.525390625 l 1
 190.303710938 737.811523438 l 1
49.09765625 357.576171875 m 0
 49.09765625 517.614257812 155.549804688 619.45703125 322.833007812 619.45703125 c 0
 435.426757812 619.45703125 483.282226562 569.0703125 483.282226562 569.0703125 c 1
 434.209960938 429.358398438 l 1
 434.209960938 429.358398438 401.068359375 458.0390625 349.534179688 458.0390625 c 0
 290.123046875 458.0390625 252.317382812 421.354492188 252.317382812 363.708007812 c 0
 252.317382812 297.145507812 286.873046875 254.787109375 354.453125 254.787109375 c 0
 429.422851562 254.787109375 467.395507812 286.900390625 467.395507812 286.900390625 c 1
 500.872070312 132.869140625 l 1
 500.872070312 132.869140625 457.473632812 91.9013671875 322.833007812 91.9013671875 c 0
 155.549804688 91.9013671875 49.09765625 195.21875 49.09765625 357.576171875 c 0
EndSplineSet
Validated: 5
EndChar

